<?xml version="1.0" standalone="no"?>
<!DOCTYPE svg PUBLIC "-//W3C//DTD SVG 1.1//EN" "http://www.w3.org/Graphics/SVG/1.1/DTD/svg11.dtd" >
<svg xmlns="http://www.w3.org/2000/svg">
<metadata></metadata>
<defs>
<font id="franklin_gothic_demi_condRg" horiz-adv-x="1047" >
<font-face units-per-em="2048" ascent="1638" descent="-410" />
<missing-glyph horiz-adv-x="382" />
<glyph unicode="&#xd;" horiz-adv-x="382" />
<glyph unicode=" "  horiz-adv-x="382" />
<glyph unicode="&#x09;" horiz-adv-x="382" />
<glyph unicode="&#xa0;" horiz-adv-x="382" />
<glyph unicode="!" horiz-adv-x="698" d="M169 1365h360l-89 -958h-183zM209 0v302h279v-302h-279z" />
<glyph unicode="&#x22;" d="M200 1365h264l-38 -600h-187zM584 1365h264l-38 -600h-188z" />
<glyph unicode="#" d="M20 419l25 167h184l33 219h-184l25 165h184l60 395h177l-60 -395h202l60 395h177l-60 -395h184l-25 -165h-184l-33 -219h184l-25 -167h-184l-64 -419h-176l63 419h-203l-63 -419h-177l64 419h-184zM406 586h202l33 219h-202z" />
<glyph unicode="$" d="M73 388l238 62q33 -201 219 -201q87 0 128 43t41 104q0 63 -41 95.5t-182 82.5q-127 44 -198.5 87t-116 120.5t-44.5 180.5q0 135 79.5 243t250.5 132v142h154v-142q258 -31 334 -292l-212 -87q-62 179 -192 179q-65 0 -104.5 -40t-39.5 -97q0 -58 38 -89t163 -77 q137 -50 215 -94.5t124.5 -123t46.5 -183.5q0 -161 -96 -268.5t-277 -126.5v-184h-154v183q-302 31 -374 351z" />
<glyph unicode="%" horiz-adv-x="1361" d="M56 1021q0 172 71.5 261.5t198.5 89.5t198.5 -90t71.5 -261t-72 -261t-198 -90q-125 0 -197.5 88t-72.5 263zM250 1021q0 -128 19.5 -164t56.5 -36q40 0 57.5 41.5t17.5 158.5q0 128 -19.5 164t-55.5 36q-40 0 -58 -40t-18 -160zM283 0l645 1365h154l-644 -1365h-155z M765 344q0 172 72.5 261.5t197.5 89.5q124 0 197 -88t73 -263q0 -172 -72 -261.5t-198 -89.5t-198 90t-72 261zM960 344q0 -127 19.5 -163.5t55.5 -36.5q41 0 58.5 41.5t17.5 158.5q0 128 -19.5 164t-56.5 36q-40 0 -57.5 -41t-17.5 -159z" />
<glyph unicode="&#x26;" horiz-adv-x="1326" d="M94 382q0 263 310 394q-127 174 -127 306q0 123 100.5 213.5t259.5 90.5q161 0 255.5 -94t94.5 -232q0 -206 -236 -328l189 -251q65 106 106 300l223 -40q-55 -242 -186 -437q71 -74 139 -74q9 0 47 2v-232q-56 -14 -104 -14q-142 0 -265 129q-167 -136 -371 -136 q-226 0 -330.5 121t-104.5 282zM379 400q0 -86 51 -141t144 -55q109 0 191 80l-247 334q-139 -84 -139 -218zM545 1084q0 -73 90 -196q123 69 123 188q0 48 -26.5 81.5t-79.5 33.5q-51 0 -79 -30t-28 -77z" />
<glyph unicode="'" horiz-adv-x="698" d="M217 1365h264l-38 -600h-187z" />
<glyph unicode="(" horiz-adv-x="698" d="M103 512q0 486 248 853h220q-208 -387 -208 -853t208 -854h-220q-248 369 -248 854z" />
<glyph unicode=")" horiz-adv-x="698" d="M126 -342q96 172 152 403.5t56 450.5q0 218 -56 449.5t-152 403.5h221q247 -370 247 -853t-247 -854h-221z" />
<glyph unicode="*" d="M172 904l223 98l-223 99l83 153l207 -140l-25 251h171l-24 -251l207 140l83 -153l-223 -99l223 -98l-83 -153l-207 140l24 -251h-171l25 251l-207 -140z" />
<glyph unicode="+" d="M105 574v217h306v310h225v-310h306v-217h-306v-310h-225v310h-306z" />
<glyph unicode="," horiz-adv-x="523" d="M122 0v302h279v-275l-169 -350h-110l131 323h-131z" />
<glyph unicode="-" horiz-adv-x="558" d="M76 407v221h407v-221h-407z" />
<glyph unicode="." horiz-adv-x="523" d="M122 0v302h279v-302h-279z" />
<glyph unicode="/" horiz-adv-x="1081" d="M-40 -342l832 1707h190l-832 -1707h-190z" />
<glyph unicode="0" d="M67 665q0 372 106.5 546.5t349.5 174.5q251 0 353.5 -181.5t102.5 -505.5q0 -370 -106.5 -545t-349.5 -175q-251 0 -353.5 181.5t-102.5 504.5zM383 683q0 -333 31.5 -409t108.5 -76q74 0 106.5 71.5t32.5 413.5q0 310 -28 397.5t-111 87.5q-75 0 -107.5 -74t-32.5 -411z " />
<glyph unicode="1" d="M204 0v223h230v806q-102 -106 -230 -171v267q183 96 301 252h229v-1154h226v-223h-756z" />
<glyph unicode="2" d="M57 0v267q375 321 468 453.5t93 251.5q0 170 -128 170q-77 0 -112.5 -67t-47.5 -191l-273 55q67 447 452 447q208 0 316.5 -115.5t108.5 -282.5q0 -172 -120 -336.5t-451 -384.5h590l-22 -267h-874z" />
<glyph unicode="3" d="M33 383l265 44q20 -204 178 -204q73 0 116 49t43 140q0 186 -210 186l-83 -1v221h83q67 0 105 12.5t63.5 52.5t25.5 105q0 166 -137 166q-120 0 -157 -168l-261 49q103 351 450 351q190 0 296.5 -98.5t106.5 -267.5q0 -216 -203 -304q230 -73 230 -325q0 -202 -126 -307 t-321 -105q-175 0 -304 92t-160 312z" />
<glyph unicode="4" d="M51 321v233l465 832h326v-832h153v-233h-153v-321h-300v321h-491zM263 538h303v562z" />
<glyph unicode="5" d="M69 365l273 45q23 -187 177 -187q169 0 169 221q0 98 -45 158.5t-129 60.5q-110 0 -150 -106l-235 45l48 763h730l-29 -267h-482l-17 -308q85 117 233 117q146 0 256.5 -107t110.5 -340q0 -238 -127 -359.5t-331 -121.5q-190 0 -312 105t-140 281z" />
<glyph unicode="6" d="M105 665q0 371 125 546t346 175q161 0 266 -91.5t139 -271.5l-243 -73q-33 218 -171 218q-86 0 -134 -88.5t-51 -373.5q84 155 250 155q151 0 254 -114.5t103 -313.5q0 -223 -121 -338.5t-310 -115.5q-453 0 -453 686zM395 413q0 -109 41.5 -162.5t109.5 -53.5 q152 0 152 236q0 209 -148 209q-155 0 -155 -229z" />
<glyph unicode="7" d="M118 1098l23 267h811v-230q-326 -421 -331 -1135h-326q8 625 400 1098h-577z" />
<glyph unicode="8" d="M60 355q0 99 46.5 174.5t176.5 143.5q-184 116 -184 321q0 160 108 276t327 116q208 0 311.5 -96.5t103.5 -252.5q0 -191 -174 -292q211 -124 211 -354q0 -172 -121 -292t-356 -120q-226 0 -337.5 105t-111.5 271zM325 375q0 -86 52 -137.5t143 -51.5q85 0 135 47t50 112 q0 53 -41.5 105t-207.5 125q-131 -80 -131 -200zM381 1042q0 -78 69.5 -127t143.5 -80q97 92 97 188q0 75 -39.5 121.5t-112.5 46.5q-70 0 -114 -42t-44 -107z" />
<glyph unicode="9" d="M58 941q0 182 108 313.5t324 131.5q190 0 288 -101.5t131.5 -258t33.5 -320.5q0 -727 -459 -727q-319 0 -395 333l261 51q26 -166 146 -166q168 0 168 389l-1 42q-80 -123 -238 -123q-178 0 -272.5 135.5t-94.5 300.5zM348 959q0 -210 152 -210t152 209q0 100 -42 155 t-114 55q-61 0 -104.5 -52t-43.5 -157z" />
<glyph unicode=":" horiz-adv-x="523" d="M122 0v302h279v-302h-279zM122 708v302h279v-303z" />
<glyph unicode=";" horiz-adv-x="523" d="M122 0v302h279v-275l-169 -350h-110l131 323h-131zM122 708v302h279v-303z" />
<glyph unicode="&#x3c;" d="M80 555v256l887 465v-304l-564 -290l563 -291l1 -302z" />
<glyph unicode="=" d="M105 407v216h837v-216h-837zM105 742v216h837v-216h-837z" />
<glyph unicode="&#x3e;" d="M80 89v304l564 290l-562 291l-2 302l887 -466v-256z" />
<glyph unicode="?" horiz-adv-x="977" d="M59 932q4 203 112 328.5t307 125.5q210 0 306 -115t96 -268q0 -119 -46 -199.5t-155 -177.5q-77 -69 -93.5 -104.5t-16.5 -130.5h-240v45q0 125 13.5 179.5t103.5 142.5q75 73 103.5 125.5t28.5 125.5q0 67 -35 100t-82 33q-145 0 -146 -246zM315 0v291h268v-291h-268z " />
<glyph unicode="@" horiz-adv-x="1291" d="M38 677q0 318 176.5 525.5t464.5 207.5q275 0 425.5 -172.5t150.5 -440.5q0 -228 -108.5 -374.5t-245.5 -146.5q-117 0 -151 116q-62 -118 -176 -118q-92 0 -151.5 92t-59.5 247q0 187 84.5 314t205.5 127q100 0 148 -105l13 91h138l-58 -418q-11 -81 -11 -120 q0 -71 45 -71q61 0 110.5 100.5t49.5 244.5q0 227 -106 355.5t-303 128.5q-202 0 -333 -154.5t-131 -422.5q0 -256 126.5 -414t360.5 -158q193 0 355 110l55 -133q-198 -128 -419 -128q-295 0 -475 195.5t-180 521.5zM549 615q0 -155 77 -155q108 0 108 272q0 136 -70 136 q-49 0 -82 -68.5t-33 -184.5z" />
<glyph unicode="A" d="M-40 0l410 1365h302l390 -1365h-307l-68 282h-384l-67 -282h-276zM360 516h270l-137 557z" />
<glyph unicode="B" horiz-adv-x="1151" d="M129 0v1365h466q164 0 247.5 -26t140 -114t56.5 -219q0 -229 -195 -294q232 -82 232 -335q0 -133 -63 -224.5t-155.5 -122t-262.5 -30.5h-466zM417 235h147q207 0 207 178q0 99 -51.5 139.5t-155.5 40.5h-147v-358zM417 814h97q145 0 182.5 52t37.5 119q0 62 -37.5 110.5 t-160.5 48.5h-119v-330z" />
<glyph unicode="C" horiz-adv-x="1117" d="M80 681q0 331 131 518t389 187q427 0 465 -528l-274 -20q-11 304 -190 304q-94 0 -149.5 -98t-55.5 -380q0 -252 51 -346.5t153 -94.5q164 0 193 274l277 -17q-15 -222 -141 -361.5t-333 -139.5q-252 0 -384 187t-132 515z" />
<glyph unicode="D" horiz-adv-x="1151" d="M129 0v1365h323q210 0 341.5 -56.5t210.5 -208.5t79 -411q0 -184 -48 -326.5t-126 -224.5t-176 -110t-245 -28h-359zM429 235h51q104 0 161 40t91 139.5t34 287.5q0 174 -37.5 268t-94 127.5t-154.5 33.5h-51v-896z" />
<glyph unicode="E" horiz-adv-x="977" d="M129 0v1365h830v-234h-530v-317h412v-235h-412v-335h530v-244h-830z" />
<glyph unicode="F" horiz-adv-x="907" d="M129 0v1365h810v-234h-510v-357h393v-234h-393v-540h-300z" />
<glyph unicode="G" horiz-adv-x="1187" d="M80 656q0 337 134.5 533.5t397.5 196.5q419 0 470 -468l-270 -44q-28 268 -194 268q-101 0 -161.5 -99t-60.5 -375q0 -245 59 -345t173 -100q183 0 184 270h-204v235h474v-728h-127l-39 156q-110 -177 -330 -177q-233 0 -369.5 183.5t-136.5 493.5z" />
<glyph unicode="H" horiz-adv-x="1186" d="M129 0v1365h300v-551h328v551h300v-1365h-300v558h-328v-558h-300z" />
<glyph unicode="I" horiz-adv-x="558" d="M129 0v1365h300v-1365h-300z" />
<glyph unicode="J" horiz-adv-x="663" d="M-10 0v251q72 -14 121 -14q79 0 104.5 42.5t25.5 179.5v906h300v-906q0 -173 -25.5 -269.5t-105.5 -153.5t-237 -57q-68 0 -183 21z" />
<glyph unicode="K" horiz-adv-x="1081" d="M129 0v1365h300v-569l332 569h303l-342 -502l371 -863h-310l-240 629l-114 -165v-464h-300z" />
<glyph unicode="L" horiz-adv-x="872" d="M129 0v1365h300v-1109h440v-256h-740z" />
<glyph unicode="M" horiz-adv-x="1535" d="M129 0v1365h440l193 -843l217 843h427v-1365h-281v1143l-279 -1143h-218l-255 1143v-1143h-244z" />
<glyph unicode="N" horiz-adv-x="1151" d="M118 0v1365h333l351 -848v848h232v-1365h-268l-416 988v-988h-232z" />
<glyph unicode="O" horiz-adv-x="1151" d="M80 683q0 703 495 703q242 0 369 -176t127 -527q0 -704 -495 -704q-246 0 -371 179.5t-125 524.5zM396 683q0 -270 42.5 -365t136.5 -95q93 0 136.5 91t43.5 369q0 276 -43 367.5t-137 91.5q-93 0 -136 -92t-43 -367z" />
<glyph unicode="P" d="M129 0v1365h393q179 0 277.5 -30t165.5 -135.5t67 -261.5q0 -150 -54 -248t-149.5 -141.5t-293.5 -43.5h-106v-505h-300zM429 740h93q123 0 158.5 57t35.5 148q0 77 -27.5 124.5t-64 61t-102.5 13.5h-93v-404z" />
<glyph unicode="Q" horiz-adv-x="1151" d="M80 683q0 703 495 703q245 0 370.5 -178t125.5 -513q0 -241 -55.5 -403.5t-194.5 -252.5q1 -59 25 -80.5t73 -21.5q46 0 102 15v-216q-65 -18 -128 -18q-256 0 -272 263q-37 -2 -57 -2q-221 0 -352.5 169.5t-131.5 534.5zM396 683q0 -270 42.5 -365t136.5 -95 q93 0 136.5 91t43.5 369q0 276 -43 367.5t-137 91.5q-93 0 -136 -92t-43 -367z" />
<glyph unicode="R" horiz-adv-x="1116" d="M129 0v1365h429q125 0 191.5 -11.5t134.5 -62t106.5 -138t38.5 -196.5q0 -256 -192 -360l251 -597h-327l-182 540h-150v-540h-300zM429 761h132q176 0 176 197q0 68 -26 111.5t-60.5 59t-101.5 15.5h-120v-383z" />
<glyph unicode="S" d="M33 354l262 75q48 -206 219 -206q78 0 126.5 40.5t48.5 106.5q0 50 -34 89.5t-156 83.5q-157 56 -234 101.5t-127 130t-50 192.5q0 184 118.5 301.5t313.5 117.5q356 0 444 -318l-248 -95q-53 169 -194 169q-66 0 -104.5 -37.5t-38.5 -87.5q0 -58 45.5 -92.5t190.5 -90.5 q132 -49 207.5 -97t122 -130.5t46.5 -191.5q0 -191 -131.5 -313.5t-352.5 -122.5q-371 0 -474 375z" />
<glyph unicode="T" horiz-adv-x="802" d="M-24 1109v256h851v-256h-279v-1109h-300v1109h-272z" />
<glyph unicode="U" horiz-adv-x="1186" d="M129 585v780h300v-780q0 -165 15 -230t62.5 -98.5t116.5 -33.5q75 0 119 37t54 98t10 227v780h251v-768q0 -230 -26.5 -343t-135 -194t-298.5 -81q-178 0 -280 59.5t-145 167t-43 379.5z" />
<glyph unicode="V" horiz-adv-x="942" d="M-28 1365h315l210 -1040l217 1040h257l-335 -1372l-336 7z" />
<glyph unicode="W" horiz-adv-x="1465" d="M-11 1365h307l143 -945l179 945h275l168 -947l167 947h253l-293 -1372h-269l-182 949l-186 -949h-266z" />
<glyph unicode="X" horiz-adv-x="977" d="M-31 0l375 700l-334 665h334l163 -355l172 355h287l-322 -617l364 -748h-329l-199 446l-224 -446h-287z" />
<glyph unicode="Y" horiz-adv-x="907" d="M-58 1365h330l193 -498l206 498h293l-379 -788v-577h-300v577z" />
<glyph unicode="Z" horiz-adv-x="942" d="M2 0v209l575 912h-533v244h877v-213l-571 -908h589v-244h-937z" />
<glyph unicode="[" horiz-adv-x="698" d="M150 -342v1707h421v-128h-172v-1451h172v-128h-421z" />
<glyph unicode="\" horiz-adv-x="1082" d="M99 1365h190l832 -1707h-189z" />
<glyph unicode="]" horiz-adv-x="698" d="M127 -214h172v1451h-172v128h421v-1707h-421v128z" />
<glyph unicode="^" horiz-adv-x="1024" d="M31 718l311 655h339l311 -655h-270l-210 449l-211 -449h-270z" />
<glyph unicode="_" horiz-adv-x="1024" d="M0 -116h1024v-182h-1024v182z" />
<glyph unicode="`" horiz-adv-x="942" d="M198 1350l112 167l341 -314l-84 -84z" />
<glyph unicode="a" horiz-adv-x="977" d="M73 255q0 169 112 261.5t408 110.5v38q0 101 -20.5 140t-79.5 39q-108 0 -119 -155l-267 26q19 152 129.5 234t278.5 82q142 0 228 -54.5t108.5 -126.5t22.5 -223v-403q0 -188 17 -224h-261q-14 41 -14 155q-93 -176 -277 -176q-118 0 -192 70.5t-74 205.5zM365 292 q0 -128 94 -128q51 0 92.5 57.5t41.5 211.5v50q-123 -14 -175.5 -54.5t-52.5 -136.5z" />
<glyph unicode="b" horiz-adv-x="977" d="M104 0v1365h277v-450q82 109 210 109q140 0 233 -126t93 -387q0 -251 -91 -391.5t-266 -140.5q-172 0 -236 153q-29 -52 -53 -132h-167zM381 419q0 -139 26 -192t92 -53q73 0 100 75.5t27 254.5q0 173 -26 253t-96 80q-123 0 -123 -185v-233z" />
<glyph unicode="c" horiz-adv-x="907" d="M60 502q0 258 108.5 393t304.5 135q354 0 385 -392l-262 -10q-6 93 -30 140.5t-81 47.5q-142 0 -142 -298q0 -173 34.5 -242t102.5 -69q106 0 116 187l262 -17q-35 -398 -396 -398q-195 0 -298.5 131.5t-103.5 391.5z" />
<glyph unicode="d" horiz-adv-x="977" d="M61 501q0 263 91.5 393t244.5 130q141 0 201 -108v449h277v-1365h-261v167q-64 -181 -230 -181q-163 0 -243 142t-80 373zM353 477q0 -164 28 -230t92 -66q54 0 89.5 44.5t35.5 182.5v179q0 149 -31.5 199.5t-91.5 50.5q-71 0 -96.5 -70t-25.5 -290z" />
<glyph unicode="e" horiz-adv-x="942" d="M60 490q0 263 113.5 401.5t304.5 138.5q172 0 287.5 -122.5t115.5 -449.5h-530v-56q0 -136 37 -182t97 -46q129 0 145 173l251 -16q-67 -352 -401 -352q-206 0 -313 139t-107 372zM353 621h262q1 18 1 28q0 195 -132 195q-130 0 -131 -223z" />
<glyph unicode="f" horiz-adv-x="593" d="M37 788v222h115q1 149 23 223t95 130t199 56q74 0 142 -10v-220q-34 4 -63 4q-81 0 -103.5 -34.5t-22.5 -148.5h178v-222h-178v-788h-270v788h-115z" />
<glyph unicode="g" horiz-adv-x="942" d="M43 -116q0 133 165 188q-132 62 -132 175q0 130 174 222q-150 74 -150 252q0 151 103.5 230t276.5 79q115 0 216 -44q11 108 54 154t135 46q44 0 78 -10v-184q-32 8 -61 8q-88 0 -107 -91q75 -79 75 -202q0 -137 -102 -219.5t-264 -82.5q-62 0 -131 17q-66 -36 -66 -83 q0 -38 37 -50t202 -21q152 -9 227.5 -30t126 -86t50.5 -171q0 -338 -493 -338q-414 0 -414 241zM275 -78q0 -102 232 -102q199 0 199 106q0 39 -21.5 63.5t-55 31t-140.5 11.5q-63 4 -125 12q-89 -41 -89 -122zM391 709q0 -153 97 -153q49 0 70 36t21 124q0 163 -89 163 q-54 0 -76.5 -39.5t-22.5 -130.5z" />
<glyph unicode="h" horiz-adv-x="977" d="M104 0v1365h282v-462q76 128 248 128q103 0 162.5 -48t75.5 -121.5t16 -213.5v-648h-282v648q0 99 -18.5 131.5t-76.5 32.5q-57 0 -91 -31t-34 -141v-640h-282z" />
<glyph unicode="i" horiz-adv-x="488" d="M101 1093v279h286v-279h-286zM103 0v1010h282v-1010h-282z" />
<glyph unicode="j" horiz-adv-x="488" d="M-17 -125q21 -3 37 -3q62 0 77.5 31t15.5 138v969h282v-977q0 -156 -17 -234t-81 -123.5t-163 -45.5q-63 0 -151 14v231zM111 1093v279h286v-279h-286z" />
<glyph unicode="k" horiz-adv-x="942" d="M104 0v1365h282v-745l284 390h256l-255 -339l280 -671h-304l-158 469l-103 -142v-327h-282z" />
<glyph unicode="l" horiz-adv-x="488" d="M103 0v1365h282v-1365h-282z" />
<glyph unicode="m" horiz-adv-x="1430" d="M104 0v1010h267v-138q72 158 245 158q180 0 218 -158q68 158 245 158q99 0 157.5 -36t81.5 -98.5t23 -235.5v-660h-281v631q0 113 -16 147t-71 34q-66 0 -86 -44.5t-20 -179.5v-588h-282v640q0 108 -15.5 140t-70.5 32q-68 0 -90.5 -46.5t-22.5 -177.5v-588h-282z" />
<glyph unicode="n" horiz-adv-x="977" d="M104 0v1010h267v-138q70 158 253 158q99 0 163.5 -44.5t82.5 -113.5t18 -210v-662h-282v662q0 102 -26 126t-70 24q-76 0 -100 -46.5t-24 -173.5v-592h-282z" />
<glyph unicode="o" horiz-adv-x="942" d="M61 505q0 525 411 525q410 0 410 -525q0 -526 -410 -526q-411 0 -411 526zM352 505q0 -185 24 -257t96 -72q69 0 94 71.5t25 257.5q0 193 -26.5 261t-92.5 68q-64 0 -92 -64.5t-28 -264.5z" />
<glyph unicode="p" horiz-adv-x="977" d="M104 -342v1352h260v-151q83 164 230 164q139 0 231 -123.5t92 -377.5q0 -266 -90 -401t-253 -135q-117 0 -193 89v-417h-277zM381 413q0 -145 23.5 -188.5t95.5 -43.5q64 0 95 58t31 281q0 186 -27 252t-91 66q-53 0 -90 -41.5t-37 -192.5v-191z" />
<glyph unicode="q" horiz-adv-x="977" d="M61 489q0 286 93.5 410.5t247.5 124.5q151 0 240 -145q45 50 77 131h155q-9 -75 -9 -258v-1094h-277v447q-79 -119 -207 -119q-143 0 -231.5 132.5t-88.5 370.5zM351 529q0 -222 26 -285t93 -63q55 0 86.5 51.5t31.5 226.5v149q0 140 -29.5 185t-89.5 45 q-69 0 -93.5 -55.5t-24.5 -253.5z" />
<glyph unicode="r" horiz-adv-x="628" d="M104 0v1010h248v-244q67 257 239 257q21 0 48 -5v-275q-31 4 -47 4q-206 0 -206 -312v-435h-282z" />
<glyph unicode="s" horiz-adv-x="837" d="M39 280l224 36q28 -151 159 -151q112 0 112 94q0 50 -33 76t-128 56q-174 56 -239 135t-65 183q0 146 102.5 234t256.5 88q269 0 342 -264l-201 -60q-40 137 -148 137q-88 0 -88 -88q0 -50 33 -76t136 -62q116 -41 170 -72t91 -93.5t37 -143.5q0 -140 -101 -235t-282 -95 q-341 0 -378 301z" />
<glyph unicode="t" horiz-adv-x="628" d="M34 788v222h112v310l274 9v-319h186v-222h-186v-371q0 -103 4.5 -133.5t30 -51t85.5 -20.5q32 0 80 2v-214q-94 -21 -172 -21q-128 0 -196 49t-87 123t-19 235v402h-112z" />
<glyph unicode="u" horiz-adv-x="977" d="M90 353v657h282v-648q0 -98 18 -131t78 -33q55 0 83.5 27t34.5 74.5t6 195.5v515h282v-1010h-265v138q-60 -103 -119.5 -131t-140.5 -28q-109 0 -167 45t-75 114t-17 215z" />
<glyph unicode="v" horiz-adv-x="733" d="M-22 1010h271l139 -597l141 597h234l-277 -1010h-223z" />
<glyph unicode="w" horiz-adv-x="1186" d="M-17 1010h274l119 -614l113 614h274l92 -614l136 614h221l-253 -1010h-236l-130 687l-127 -687h-229z" />
<glyph unicode="x" horiz-adv-x="768" d="M-50 0l299 517l-260 493h306l107 -234l130 234h245l-261 -446l301 -564h-305l-148 302l-169 -302h-245z" />
<glyph unicode="y" horiz-adv-x="733" d="M-28 1010h282l136 -617l131 617h243l-304 -1026q-44 -147 -75 -206t-93 -97.5t-158 -38.5q-59 0 -120 16v222q42 -6 79 -6q82 0 112.5 27t57.5 118z" />
<glyph unicode="z" horiz-adv-x="733" d="M41 0v200l366 610h-331v200h630v-181l-375 -629h385v-200h-675z" />
<glyph unicode="{" horiz-adv-x="698" d="M88 442v167q70 2 85 30.5t15 181.5v232q0 197 57.5 255t206.5 58q30 0 94 -3v-134q-73 -2 -92.5 -29.5t-19.5 -146.5v-223q0 -182 -18 -226.5t-102 -78.5q83 -33 101.5 -78t18.5 -227v-250q0 -118 19 -145t93 -31v-134q-70 -2 -93 -2q-93 0 -139.5 13.5t-86 72 t-39.5 226.5v352q-1 69 -19.5 93t-80.5 27z" />
<glyph unicode="|" horiz-adv-x="1024" d="M358 -341v1706h307v-1706h-307z" />
<glyph unicode="}" horiz-adv-x="698" d="M151 -206q74 4 93 30.5t19 145.5v250q0 182 18 226.5t102 78.5q-83 33 -101.5 78t-18.5 227v223q0 118 -19 146t-93 30v134q70 3 92 3q119 0 164 -24t73.5 -83t28.5 -206v-232l1 -92q0 -70 18.5 -94t80.5 -26v-167q-52 -1 -73 -20t-24 -48t-3 -145v-259q0 -135 -25 -199 t-77 -88.5t-161 -24.5q-29 0 -95 2v134z" />
<glyph unicode="~" horiz-adv-x="1365" d="M190 1255q112 279 305 279q69 0 231 -70q120 -52 157 -52q83 0 148 127l149 -124q-105 -274 -321 -274q-62 0 -227 72q-103 45 -150 45q-78 0 -143 -127z" />
<glyph unicode="&#xa1;" horiz-adv-x="698" d="M169 -356l88 958h183l89 -958h-360zM209 707v303l279 -1v-302h-279z" />
<glyph unicode="&#xa2;" d="M137 683q0 220 86 357t243 148v184h147v-185q267 -36 298 -364l-236 -15q-12 183 -129 183q-68 0 -97.5 -63t-29.5 -229q0 -172 30.5 -230t94.5 -58q47 0 82 32t49 148l236 -21q-45 -331 -298 -368v-216h-147v216q-172 28 -250.5 165t-78.5 316z" />
<glyph unicode="&#xa3;" d="M17 0v232h105q72 0 105.5 20t59 84t25.5 184q0 49 -6 106h-157v209h122q-12 102 -12 163q0 176 96.5 282t276.5 106q278 0 345 -258l-217 -103q-32 143 -127 143q-91 0 -91 -141q0 -33 8 -123q5 -53 6 -69h229v-209h-201q1 -33 1 -52q0 -142 -43 -214t-109 -128h151 q154 0 210 56t85 149l221 -83q-25 -110 -66.5 -179.5t-101.5 -108t-129.5 -52.5t-218.5 -14h-567z" />
<glyph unicode="&#xa4;" d="M75 1001l150 150l133 -133q78 41 165 41q90 0 170 -43l132 132l143 -143l-132 -132q43 -80 43 -170q0 -85 -41 -165l133 -133l-150 -150l-133 133q-82 -41 -165 -41q-88 0 -169 43l-133 -132l-143 143l132 133q-43 81 -43 169q0 87 41 165zM364 703q0 -66 46.5 -112.5 t112.5 -46.5t112.5 47t46.5 112t-46.5 112t-112.5 47q-65 0 -112 -46.5t-47 -112.5z" />
<glyph unicode="&#xa5;" d="M49 1365h291l204 -555l219 555h235l-225 -532h205v-149h-269l-52 -123h321v-149h-321v-412h-270v412h-307v149h307l-52 123h-255v149h193z" />
<glyph unicode="&#xa6;" horiz-adv-x="1024" d="M358 314h307v-655h-307v655zM358 646v719h307v-719h-307z" />
<glyph unicode="&#xa7;" d="M108 -32l233 40q31 -157 190 -157q153 0 153 136q0 67 -50 107.5t-220 114.5q-95 42 -147 78.5t-87.5 102t-35.5 148.5q0 184 157 275q-111 94 -111 238q0 150 96.5 242.5t272.5 92.5q299 0 380 -256l-209 -64q-34 134 -158 134q-64 0 -97 -32.5t-33 -80.5q0 -53 33 -81 t165 -89q153 -70 218.5 -144t65.5 -202q0 -160 -136 -269q147 -101 147 -282q0 -167 -109 -265.5t-300 -98.5q-349 0 -418 312zM378 608q0 -54 34.5 -92.5t159.5 -94.5q53 -23 73 -33q55 48 55 121q0 53 -34 86t-146 90q-66 33 -85 44q-57 -51 -57 -121z" />
<glyph unicode="&#xa8;" horiz-adv-x="942" d="M188 1269q0 45 33.5 76.5t80.5 31.5t80.5 -31.5t33.5 -76.5q0 -47 -35.5 -77t-78.5 -30q-41 0 -77.5 29t-36.5 78zM526 1269q0 45 33.5 76.5t80.5 31.5q48 0 81 -31.5t33 -76.5q0 -48 -36 -77.5t-78 -29.5q-43 0 -78.5 30t-35.5 77z" />
<glyph unicode="&#xa9;" horiz-adv-x="1595" d="M82 683q0 291 210.5 499t504.5 208q295 0 505.5 -208t210.5 -499q0 -292 -210.5 -500t-505.5 -208t-505 208t-210 500zM257 683q0 -228 158.5 -388.5t381.5 -160.5t382 161.5t159 387.5q0 227 -158.5 387.5t-382.5 160.5q-222 0 -381 -161t-159 -387zM466 676 q0 206 89.5 317t262.5 111q292 0 316 -329l-205 -14q-7 179 -111 179q-119 0 -119 -268q0 -140 29 -193.5t90 -53.5q96 0 113 161l207 -12q-8 -140 -94.5 -226.5t-228.5 -86.5q-161 0 -255 106.5t-94 308.5z" />
<glyph unicode="&#xaa;" horiz-adv-x="663" d="M45 710q0 211 340 229v23q0 75 -53 75t-61 -68l-202 18q41 185 275 185q89 0 146.5 -28.5t78.5 -71.5t21 -148v-232q0 -116 18 -146h-179q-9 41 -12 86q-70 -98 -187 -98q-78 0 -131.5 44.5t-53.5 131.5zM258 731q0 -62 50 -62q77 0 77 153q-74 -1 -100.5 -24t-26.5 -67z " />
<glyph unicode="&#xab;" horiz-adv-x="907" d="M99 525l211 357h148l-125 -357l125 -358h-148zM448 525l210 357h149l-125 -357l125 -358h-149z" />
<glyph unicode="&#xac;" horiz-adv-x="1024" d="M68 327v268h887v-595h-297v327h-590z" />
<glyph unicode="&#xad;" horiz-adv-x="558" d="M76 407v221h407v-221h-407z" />
<glyph unicode="&#xae;" horiz-adv-x="1595" d="M82 683q0 291 210.5 499t504.5 208q295 0 505.5 -208t210.5 -499q0 -292 -210.5 -500t-505.5 -208t-505 208t-210 500zM257 683q0 -228 158.5 -388.5t381.5 -160.5t382 161.5t159 387.5q0 227 -158.5 387.5t-382.5 160.5q-222 0 -381 -161t-159 -387zM505 273v819h272 q103 0 165.5 -17.5t108.5 -79.5t46 -152q0 -153 -122 -214l152 -356h-242l-104 315h-54v-315h-222zM727 739h51q101 0 101 105q0 97 -108 97h-44v-202z" />
<glyph unicode="&#xaf;" horiz-adv-x="1024" d="M0 1482v182h1024v-182h-1024z" />
<glyph unicode="&#xb0;" d="M198 1061q0 134 95.5 229.5t230.5 95.5t230 -95.5t95 -229.5q0 -135 -96 -230.5t-229 -95.5q-134 0 -230 95.5t-96 230.5zM384 1061q0 -69 41.5 -116t98.5 -47t98 48t41 115q0 66 -40 114t-99 48q-57 0 -98.5 -47t-41.5 -115z" />
<glyph unicode="&#xb1;" d="M105 -23v216h837v-216h-837zM105 574v217h306v310h225v-310h306v-217h-306v-287h-225v287h-306z" />
<glyph unicode="&#xb2;" horiz-adv-x="698" d="M31 1090q44 287 308 287q142 0 215.5 -72.5t73.5 -171.5q0 -85 -63 -176t-289 -224h365l-17 -187h-590v178q246 190 302.5 262.5t56.5 136.5q0 81 -64 81q-79 0 -90 -151z" />
<glyph unicode="&#xb3;" horiz-adv-x="698" d="M16 797l203 30q8 -120 97 -120q88 0 88 91q0 97 -118 97h-70v150h70q108 0 108 85q0 81 -73 81q-69 0 -87 -99l-200 33q65 232 308 232q132 0 203.5 -62.5t71.5 -157.5q0 -121 -133 -180q150 -52 150 -197q0 -112 -83 -179t-219 -67q-282 0 -316 263z" />
<glyph unicode="&#xb4;" horiz-adv-x="942" d="M372 1203l341 314l112 -167l-369 -231z" />
<glyph unicode="&#xb5;" horiz-adv-x="977" d="M90 -342v1352h281v-515q0 -142 4.5 -194t32.5 -77.5t74 -25.5q45 0 73 24.5t32.5 75.5t4.5 197v515h282v-1010h-265v138q-19 -100 -50.5 -129.5t-76.5 -29.5q-47 0 -77.5 30t-49.5 129v-480h-265z" />
<glyph unicode="&#xb6;" horiz-adv-x="1117" d="M43 952q0 143 50.5 239.5t128.5 135t260 38.5h476v-1707h-160v1545h-97v-1545h-160v870h-71q-151 0 -237.5 36t-138 134t-51.5 254z" />
<glyph unicode="&#xb7;" horiz-adv-x="523" d="M122 375v302h279v-303z" />
<glyph unicode="&#xb8;" horiz-adv-x="942" d="M279 -357l33 83q97 -50 161 -50q73 0 73 61q0 38 -34 62t-83 24q-26 0 -67 -5l65 182h116l-40 -102q26 3 39 3q70 0 116.5 -43t46.5 -116q0 -76 -55 -123.5t-151 -47.5q-106 0 -220 72z" />
<glyph unicode="&#xb9;" horiz-adv-x="698" d="M128 546v161h147v412q-72 -57 -147 -88v190q123 56 201 151h171v-665h144v-161h-516z" />
<glyph unicode="&#xba;" horiz-adv-x="628" d="M35 853q0 319 279 319t279 -314q0 -324 -279 -324t-279 319zM254 853q0 -72 9 -122.5t52 -50.5q41 0 50 50.5t9 122.5q0 112 -15 142.5t-45 30.5q-39 0 -49.5 -44.5t-10.5 -128.5z" />
<glyph unicode="&#xbb;" horiz-adv-x="907" d="M99 167l125 358l-125 357h149l210 -357l-210 -358h-149zM448 167l125 358l-125 357h148l211 -357l-211 -358h-148z" />
<glyph unicode="&#xbc;" horiz-adv-x="1640" d="M105 546v161h147v412q-72 -57 -147 -88v190q123 56 201 151h171v-665h144v-161h-516zM415 0l647 1365h165l-651 -1365h-161zM938 185v155l304 491h234v-479h99v-167h-99v-185h-224v185h-314zM1090 330h183v313z" />
<glyph unicode="&#xbd;" horiz-adv-x="1640" d="M110 546v161h147v412q-72 -57 -147 -88v190q123 56 201 151h171v-665h144v-161h-516zM415 0l647 1365h165l-651 -1365h-161zM932 544q44 287 308 287q142 0 215.5 -72.5t73.5 -171.5q0 -85 -63 -176t-289 -224h365l-17 -187h-590v178q246 190 302.5 262.5t56.5 136.5 q0 81 -64 81q-79 0 -90 -151z" />
<glyph unicode="&#xbe;" horiz-adv-x="1640" d="M62 797l203 30q8 -120 97 -120q88 0 88 91q0 97 -118 97h-70v150h70q108 0 108 85q0 81 -73 81q-69 0 -87 -99l-200 33q65 232 308 232q132 0 203.5 -62.5t71.5 -157.5q0 -121 -133 -180q150 -52 150 -197q0 -112 -83 -179t-219 -67q-282 0 -316 263zM462 0l647 1365h165 l-651 -1365h-161zM949 185v155l304 491h234v-479h99v-167h-99v-185h-224v185h-314zM1101 330h183v313z" />
<glyph unicode="&#xbf;" horiz-adv-x="977" d="M97 6q0 119 46 199.5t155 178.5q77 68 93.5 103.5t16.5 131.5h240v-46q0 -128 -14.5 -182t-102.5 -139q-74 -73 -103 -125.5t-29 -126.5q0 -66 34.5 -99t82.5 -33q145 0 146 246l256 -36q-5 -207 -113.5 -331t-305.5 -124q-211 0 -306.5 115.5t-95.5 267.5zM395 719v291 l267 -1v-290h-267z" />
<glyph unicode="&#xc0;" d="M-40 0l410 1365h302l390 -1365h-307l-68 282h-384l-67 -282h-276zM234 1682l112 167l341 -314l-84 -84zM360 516h270l-137 557z" />
<glyph unicode="&#xc1;" d="M-40 0l410 1365h302l390 -1365h-307l-68 282h-384l-67 -282h-276zM360 516h270l-137 557zM378 1535l341 314l112 -167l-369 -231z" />
<glyph unicode="&#xc2;" d="M-40 0l410 1365h302l390 -1365h-307l-68 282h-384l-67 -282h-276zM120 1488l401 313l401 -313h-218l-183 118l-183 -118h-218zM360 516h270l-137 557z" />
<glyph unicode="&#xc3;" d="M-40 0l410 1365h302l390 -1365h-307l-68 282h-384l-67 -282h-276zM194 1564q111 143 219 143q50 0 132 -35q90 -39 122 -39q45 0 96 72l89 -66q-102 -153 -229 -153q-48 0 -126 35q-88 39 -122 39q-39 0 -95 -63zM360 516h270l-137 557z" />
<glyph unicode="&#xc4;" d="M-40 0l410 1365h302l390 -1365h-307l-68 282h-384l-67 -282h-276zM234 1601q0 45 33.5 76.5t80.5 31.5t80.5 -31.5t33.5 -76.5q0 -47 -35.5 -77t-78.5 -30q-41 0 -77.5 29t-36.5 78zM360 516h270l-137 557zM572 1601q0 45 33.5 76.5t80.5 31.5q48 0 81 -31.5t33 -76.5 q0 -48 -36 -77.5t-78 -29.5q-43 0 -78.5 30t-35.5 77z" />
<glyph unicode="&#xc5;" d="M-40 0l410 1365h302l390 -1365h-307l-68 282h-384l-67 -282h-276zM330 1644q0 83 58 139t135 56t135 -55.5t58 -139.5q0 -86 -60.5 -139t-132.5 -53t-132.5 53.5t-60.5 138.5zM360 516h270l-137 557zM446 1645q0 -36 24.5 -58.5t52.5 -22.5q29 0 53 22.5t24 58.5 q0 35 -23.5 58.5t-53.5 23.5t-53.5 -23.5t-23.5 -58.5z" />
<glyph unicode="&#xc6;" horiz-adv-x="1396" d="M-82 0l536 1365h924v-234h-505v-317h398v-235h-398v-335h505v-244h-793v316h-298l-110 -316h-259zM363 537h229v628z" />
<glyph unicode="&#xc7;" horiz-adv-x="1117" d="M80 681q0 331 131 518t389 187q427 0 465 -528l-274 -20q-11 304 -190 304q-94 0 -149.5 -98t-55.5 -380q0 -252 51 -346.5t153 -94.5q164 0 193 274l277 -17q-12 -196 -122 -339t-320 -162l-27 -84q26 3 40 3q73 0 120.5 -45.5t47.5 -118.5q0 -77 -56 -126.5t-156 -49.5 q-110 0 -227 74l34 91q98 -52 166 -52q65 0 65 58q0 36 -30.5 60t-87.5 24l-63 -1l61 172q-435 79 -435 697z" />
<glyph unicode="&#xc8;" horiz-adv-x="977" d="M129 0v1365h830v-234h-530v-317h412v-235h-412v-335h530v-244h-830zM265 1682l112 167l341 -314l-84 -84z" />
<glyph unicode="&#xc9;" horiz-adv-x="977" d="M129 0v1365h830v-234h-530v-317h412v-235h-412v-335h530v-244h-830zM383 1554l341 314l112 -167l-369 -231z" />
<glyph unicode="&#xca;" horiz-adv-x="977" d="M129 0v1365h830v-234h-530v-317h412v-235h-412v-335h530v-244h-830zM148 1488l401 313l401 -313h-218l-183 118l-183 -118h-218z" />
<glyph unicode="&#xcb;" horiz-adv-x="977" d="M129 0v1365h830v-234h-530v-317h412v-235h-412v-335h530v-244h-830zM260 1601q0 45 33.5 76.5t80.5 31.5t80.5 -31.5t33.5 -76.5q0 -47 -35.5 -77t-78.5 -30q-41 0 -77.5 29t-36.5 78zM598 1601q0 45 33.5 76.5t80.5 31.5q48 0 81 -31.5t33 -76.5q0 -48 -36 -77.5 t-78 -29.5q-43 0 -78.5 30t-35.5 77z" />
<glyph unicode="&#xcc;" horiz-adv-x="558" d="M6 1682l112 167l341 -314l-84 -84zM129 0v1365h300v-1365h-300z" />
<glyph unicode="&#xcd;" horiz-adv-x="558" d="M95 1535l341 314l112 -167l-369 -231zM129 0v1365h300v-1365h-300z" />
<glyph unicode="&#xce;" horiz-adv-x="558" d="M-122 1464l401 313l401 -313h-218l-183 118l-183 -118h-218zM129 0v1365h300v-1365h-300z" />
<glyph unicode="&#xcf;" horiz-adv-x="558" d="M-4 1601q0 45 33.5 76.5t80.5 31.5t80.5 -31.5t33.5 -76.5q0 -47 -35.5 -77t-78.5 -30q-41 0 -77.5 29t-36.5 78zM129 0v1365h300v-1365h-300zM334 1601q0 45 33.5 76.5t80.5 31.5q48 0 81 -31.5t33 -76.5q0 -48 -36 -77.5t-78 -29.5q-43 0 -78.5 30t-35.5 77z" />
<glyph unicode="&#xd0;" horiz-adv-x="1152" d="M13 589v204h116v572h323q211 0 342.5 -57t210 -209.5t78.5 -409.5q0 -184 -48 -327t-126 -224.5t-176 -109.5t-245 -28h-359v589h-116zM429 235h51q104 0 161 39.5t91.5 140t34.5 287.5q0 174 -38 268t-95 127.5t-154 33.5h-51v-338h200v-204h-200v-354z" />
<glyph unicode="&#xd1;" horiz-adv-x="1151" d="M118 0v1365h333l351 -848v848h232v-1365h-268l-416 988v-988h-232zM262 1563q111 143 219 143q50 0 132 -35q90 -39 122 -39q45 0 96 72l89 -66q-102 -153 -229 -153q-48 0 -126 35q-88 39 -122 39q-39 0 -95 -63z" />
<glyph unicode="&#xd2;" horiz-adv-x="1151" d="M80 683q0 703 495 703q242 0 369 -176t127 -527q0 -704 -495 -704q-246 0 -371 179.5t-125 524.5zM294 1701l112 167l341 -314l-84 -84zM396 683q0 -270 42.5 -365t136.5 -95q93 0 136.5 91t43.5 369q0 276 -43 367.5t-137 91.5q-93 0 -136 -92t-43 -367z" />
<glyph unicode="&#xd3;" horiz-adv-x="1151" d="M80 683q0 703 495 703q242 0 369 -176t127 -527q0 -704 -495 -704q-246 0 -371 179.5t-125 524.5zM396 683q0 -270 42.5 -365t136.5 -95q93 0 136.5 91t43.5 369q0 276 -43 367.5t-137 91.5q-93 0 -136 -92t-43 -367zM404 1554l341 314l112 -167l-369 -231z" />
<glyph unicode="&#xd4;" horiz-adv-x="1151" d="M80 683q0 703 495 703q242 0 369 -176t127 -527q0 -704 -495 -704q-246 0 -371 179.5t-125 524.5zM182 1464l401 313l401 -313h-218l-183 118l-183 -118h-218zM396 683q0 -270 42.5 -365t136.5 -95q93 0 136.5 91t43.5 369q0 276 -43 367.5t-137 91.5q-93 0 -136 -92 t-43 -367z" />
<glyph unicode="&#xd5;" horiz-adv-x="1151" d="M80 683q0 703 495 703q242 0 369 -176t127 -527q0 -704 -495 -704q-246 0 -371 179.5t-125 524.5zM247 1564q111 143 219 143q50 0 132 -35q90 -39 122 -39q45 0 96 72l89 -66q-102 -153 -229 -153q-48 0 -126 35q-88 39 -122 39q-39 0 -95 -63zM396 683 q0 -270 42.5 -365t136.5 -95q93 0 136.5 91t43.5 369q0 276 -43 367.5t-137 91.5q-93 0 -136 -92t-43 -367z" />
<glyph unicode="&#xd6;" horiz-adv-x="1151" d="M80 683q0 703 495 703q242 0 369 -176t127 -527q0 -704 -495 -704q-246 0 -371 179.5t-125 524.5zM300 1601q0 45 33.5 76.5t80.5 31.5t80.5 -31.5t33.5 -76.5q0 -47 -35.5 -77t-78.5 -30q-41 0 -77.5 29t-36.5 78zM396 683q0 -270 42.5 -365t136.5 -95q93 0 136.5 91 t43.5 369q0 276 -43 367.5t-137 91.5q-93 0 -136 -92t-43 -367zM638 1601q0 45 33.5 76.5t80.5 31.5q48 0 81 -31.5t33 -76.5q0 -48 -36 -77.5t-78 -29.5q-43 0 -78.5 30t-35.5 77z" />
<glyph unicode="&#xd7;" d="M131 450l232 233l-232 232l159 160l233 -233l233 233l160 -160l-233 -232l233 -233l-160 -159l-233 232l-233 -232z" />
<glyph unicode="&#xd8;" horiz-adv-x="1151" d="M80 683q0 703 495 703q141 0 246 -61l62 119h157l-110 -217q141 -173 141 -544q0 -704 -496 -704q-124 0 -238 55l-62 -118h-157l107 215q-145 181 -145 552zM368 683q0 -157 15 -248l315 672q-50 52 -123 52q-99 0 -153 -89.5t-54 -386.5zM457 244q48 -40 127 -40 q108 0 153.5 111.5t45.5 411.5q0 96 -14 193z" />
<glyph unicode="&#xd9;" horiz-adv-x="1186" d="M129 585v780h300v-780q0 -165 15 -230t62.5 -98.5t116.5 -33.5q75 0 119 37t54 98t10 227v780h251v-768q0 -230 -26.5 -343t-135 -194t-298.5 -81q-178 0 -280 59.5t-145 167t-43 379.5zM325 1682l112 167l341 -314l-84 -84z" />
<glyph unicode="&#xda;" horiz-adv-x="1186" d="M129 585v780h300v-780q0 -165 15 -230t62.5 -98.5t116.5 -33.5q75 0 119 37t54 98t10 227v780h251v-768q0 -230 -26.5 -343t-135 -194t-298.5 -81q-178 0 -280 59.5t-145 167t-43 379.5zM437 1535l341 314l112 -167l-369 -231z" />
<glyph unicode="&#xdb;" horiz-adv-x="1186" d="M116 1481l401 313l401 -313h-218l-183 118l-183 -118h-218zM129 585v780h300v-780q0 -165 15 -230t62.5 -98.5t116.5 -33.5q75 0 119 37t54 98t10 227v780h251v-768q0 -230 -26.5 -343t-135 -194t-298.5 -81q-178 0 -280 59.5t-145 167t-43 379.5z" />
<glyph unicode="&#xdc;" horiz-adv-x="1186" d="M129 585v780h300v-780q0 -165 15 -230t62.5 -98.5t116.5 -33.5q75 0 119 37t54 98t10 227v780h251v-768q0 -230 -26.5 -343t-135 -194t-298.5 -81q-178 0 -280 59.5t-145 167t-43 379.5zM317 1601q0 45 33.5 76.5t80.5 31.5t80.5 -31.5t33.5 -76.5q0 -47 -35.5 -77 t-78.5 -30q-41 0 -77.5 29t-36.5 78zM655 1601q0 45 33.5 76.5t80.5 31.5q48 0 81 -31.5t33 -76.5q0 -48 -36 -77.5t-78 -29.5q-43 0 -78.5 30t-35.5 77z" />
<glyph unicode="&#xdd;" horiz-adv-x="907" d="M-58 1365h330l193 -498l206 498h293l-379 -788v-577h-300v577zM305 1535l341 314l112 -167l-369 -231z" />
<glyph unicode="&#xde;" d="M129 0v1365h300v-186h93q179 0 278 -30.5t165.5 -136t66.5 -260.5q0 -150 -54 -248t-149.5 -141.5t-293.5 -43.5h-106v-319h-300zM429 554h93q121 0 157.5 55.5t36.5 149.5q0 77 -27.5 124.5t-64 61t-102.5 13.5h-93v-404z" />
<glyph unicode="&#xdf;" horiz-adv-x="1116" d="M20 695v221h112q0 252 125 391.5t356 139.5q178 0 266 -87t88 -208q0 -230 -305 -326q16 -31 125 -77q186 -80 246 -172t60 -213q0 -177 -106.5 -281t-275.5 -104q-110 0 -224 42l68 191q82 -38 151 -38q135 0 135 135q0 64 -34 102t-131 96q-106 64 -153 122.5 t-47 137.5q0 73 37 169q191 28 191 172q0 65 -36.5 104t-100.5 39q-58 0 -95.5 -36t-48 -92.5t-10.5 -197.5v-1043h-281v813h-112z" />
<glyph unicode="&#xe0;" horiz-adv-x="977" d="M73 255q0 169 112 261.5t408 110.5v38q0 101 -20.5 140t-79.5 39q-108 0 -119 -155l-267 26q19 152 129.5 234t278.5 82q142 0 228 -54.5t108.5 -126.5t22.5 -223v-403q0 -188 17 -224h-261q-14 41 -14 155q-93 -176 -277 -176q-118 0 -192 70.5t-74 205.5zM217 1350 l112 167l341 -314l-84 -84zM365 292q0 -128 94 -128q51 0 92.5 57.5t41.5 211.5v50q-123 -14 -175.5 -54.5t-52.5 -136.5z" />
<glyph unicode="&#xe1;" horiz-adv-x="977" d="M73 255q0 169 112 261.5t408 110.5v38q0 101 -20.5 140t-79.5 39q-108 0 -119 -155l-267 26q19 152 129.5 234t278.5 82q142 0 228 -54.5t108.5 -126.5t22.5 -223v-403q0 -188 17 -224h-261q-14 41 -14 155q-93 -176 -277 -176q-118 0 -192 70.5t-74 205.5zM364 1203 l341 314l112 -167l-369 -231zM365 292q0 -128 94 -128q51 0 92.5 57.5t41.5 211.5v50q-123 -14 -175.5 -54.5t-52.5 -136.5z" />
<glyph unicode="&#xe2;" horiz-adv-x="977" d="M56 1132l401 313l401 -313h-218l-183 118l-183 -118h-218zM73 255q0 169 112 261.5t408 110.5v38q0 101 -20.5 140t-79.5 39q-108 0 -119 -155l-267 26q19 152 129.5 234t278.5 82q142 0 228 -54.5t108.5 -126.5t22.5 -223v-403q0 -188 17 -224h-261q-14 41 -14 155 q-93 -176 -277 -176q-118 0 -192 70.5t-74 205.5zM365 292q0 -128 94 -128q51 0 92.5 57.5t41.5 211.5v50q-123 -14 -175.5 -54.5t-52.5 -136.5z" />
<glyph unicode="&#xe3;" horiz-adv-x="977" d="M73 255q0 169 112 261.5t408 110.5v38q0 101 -20.5 140t-79.5 39q-108 0 -119 -155l-267 26q19 152 129.5 234t278.5 82q142 0 228 -54.5t108.5 -126.5t22.5 -223v-403q0 -188 17 -224h-261q-14 41 -14 155q-93 -176 -277 -176q-118 0 -192 70.5t-74 205.5zM181 1244 q111 143 219 143q50 0 132 -35q90 -39 122 -39q45 0 96 72l89 -66q-102 -153 -229 -153q-48 0 -126 35q-88 39 -122 39q-39 0 -95 -63zM365 292q0 -128 94 -128q51 0 92.5 57.5t41.5 211.5v50q-123 -14 -175.5 -54.5t-52.5 -136.5z" />
<glyph unicode="&#xe4;" horiz-adv-x="977" d="M73 255q0 169 112 261.5t408 110.5v38q0 101 -20.5 140t-79.5 39q-108 0 -119 -155l-267 26q19 152 129.5 234t278.5 82q142 0 228 -54.5t108.5 -126.5t22.5 -223v-403q0 -188 17 -224h-261q-14 41 -14 155q-93 -176 -277 -176q-118 0 -192 70.5t-74 205.5zM227 1269 q0 45 33.5 76.5t80.5 31.5t80.5 -31.5t33.5 -76.5q0 -47 -35.5 -77t-78.5 -30q-41 0 -77.5 29t-36.5 78zM365 292q0 -128 94 -128q51 0 92.5 57.5t41.5 211.5v50q-123 -14 -175.5 -54.5t-52.5 -136.5zM565 1269q0 45 33.5 76.5t80.5 31.5q48 0 81 -31.5t33 -76.5 q0 -48 -36 -77.5t-78 -29.5q-43 0 -78.5 30t-35.5 77z" />
<glyph unicode="&#xe5;" horiz-adv-x="977" d="M73 255q0 169 112 261.5t408 110.5v38q0 101 -20.5 140t-79.5 39q-108 0 -119 -155l-267 26q19 152 129.5 234t278.5 82q142 0 228 -54.5t108.5 -126.5t22.5 -223v-403q0 -188 17 -224h-261q-14 41 -14 155q-93 -176 -277 -176q-118 0 -192 70.5t-74 205.5zM320 1301 q0 83 58 139t135 56t135 -55.5t58 -139.5q0 -86 -60.5 -139t-132.5 -53t-132.5 53.5t-60.5 138.5zM365 292q0 -128 94 -128q51 0 92.5 57.5t41.5 211.5v50q-123 -14 -175.5 -54.5t-52.5 -136.5zM436 1302q0 -36 24.5 -58.5t52.5 -22.5q29 0 53 22.5t24 58.5q0 35 -23.5 58.5 t-53.5 23.5t-53.5 -23.5t-23.5 -58.5z" />
<glyph unicode="&#xe6;" horiz-adv-x="1430" d="M73 263q0 86 39.5 167t133.5 129t327 69q2 47 2 66q0 97 -32.5 123.5t-74.5 26.5q-114 0 -125 -163l-245 28q51 322 385 322q176 0 242 -104q97 103 250 103q144 0 232 -71.5t125.5 -185t37.5 -315.5h-523q-1 -30 -1 -46q0 -238 134 -238q121 0 139 169l242 -17 q-60 -347 -380 -347q-210 0 -290 172q-107 -172 -325 -172q-139 0 -216 78t-77 206zM354 297q0 -132 94 -132q126 0 126 239q0 27 -1 79q-141 -18 -180 -65t-39 -121zM846 621h260q-3 223 -129 223q-121 0 -131 -223z" />
<glyph unicode="&#xe7;" horiz-adv-x="907" d="M60 502q0 258 108.5 393t304.5 135q354 0 385 -392l-262 -10q-6 93 -30 140.5t-81 47.5q-142 0 -142 -298q0 -173 34.5 -242t102.5 -69q106 0 116 187l262 -17q-34 -364 -352 -397l-32 -82q26 3 40 3q70 0 116.5 -44t46.5 -115q0 -76 -55 -123.5t-152 -47.5 q-106 0 -220 72l34 88q96 -55 162 -55q71 0 71 61q0 38 -33.5 62t-83.5 24q-26 0 -67 -5l60 165q-333 54 -333 519z" />
<glyph unicode="&#xe8;" horiz-adv-x="942" d="M60 490q0 263 113.5 401.5t304.5 138.5q172 0 287.5 -122.5t115.5 -449.5h-530v-56q0 -136 37 -182t97 -46q129 0 145 173l251 -16q-67 -352 -401 -352q-206 0 -313 139t-107 372zM198 1350l112 167l341 -314l-84 -84zM353 621h262q1 18 1 28q0 195 -132 195 q-130 0 -131 -223z" />
<glyph unicode="&#xe9;" horiz-adv-x="942" d="M60 490q0 263 113.5 401.5t304.5 138.5q172 0 287.5 -122.5t115.5 -449.5h-530v-56q0 -136 37 -182t97 -46q129 0 145 173l251 -16q-67 -352 -401 -352q-206 0 -313 139t-107 372zM338 1203l341 314l112 -167l-369 -231zM353 621h262q1 18 1 28q0 195 -132 195 q-130 0 -131 -223z" />
<glyph unicode="&#xea;" horiz-adv-x="942" d="M60 490q0 263 113.5 401.5t304.5 138.5q172 0 287.5 -122.5t115.5 -449.5h-530v-56q0 -136 37 -182t97 -46q129 0 145 173l251 -16q-67 -352 -401 -352q-206 0 -313 139t-107 372zM90 1132l401 313l401 -313h-218l-183 118l-183 -118h-218zM353 621h262q1 18 1 28 q0 195 -132 195q-130 0 -131 -223z" />
<glyph unicode="&#xeb;" horiz-adv-x="942" d="M60 490q0 263 113.5 401.5t304.5 138.5q172 0 287.5 -122.5t115.5 -449.5h-530v-56q0 -136 37 -182t97 -46q129 0 145 173l251 -16q-67 -352 -401 -352q-206 0 -313 139t-107 372zM208 1269q0 45 33.5 76.5t80.5 31.5t80.5 -31.5t33.5 -76.5q0 -47 -35.5 -77t-78.5 -30 q-41 0 -77.5 29t-36.5 78zM353 621h262q1 18 1 28q0 195 -132 195q-130 0 -131 -223zM546 1269q0 45 33.5 76.5t80.5 31.5q48 0 81 -31.5t33 -76.5q0 -48 -36 -77.5t-78 -29.5q-43 0 -78.5 30t-35.5 77z" />
<glyph unicode="&#xec;" horiz-adv-x="488" d="M-49 1350l112 167l341 -314l-84 -84zM103 0v1010h282v-1010h-282z" />
<glyph unicode="&#xed;" horiz-adv-x="488" d="M85 1203l341 314l112 -167l-369 -231zM103 0v1010h282v-1010h-282z" />
<glyph unicode="&#xee;" horiz-adv-x="488" d="M-157 1132l401 313l401 -313h-218l-183 118l-183 -118h-218zM103 0v1010h282v-1010h-282z" />
<glyph unicode="&#xef;" horiz-adv-x="488" d="M-39 1269q0 45 33.5 76.5t80.5 31.5t80.5 -31.5t33.5 -76.5q0 -47 -35.5 -77t-78.5 -30q-41 0 -77.5 29t-36.5 78zM103 0v1010h282v-1010h-282zM299 1269q0 45 33.5 76.5t80.5 31.5q48 0 81 -31.5t33 -76.5q0 -48 -36 -77.5t-78 -29.5q-43 0 -78.5 30t-35.5 77z" />
<glyph unicode="&#xf0;" horiz-adv-x="942" d="M61 505q0 260 100.5 392t244.5 132q73 0 132 -46q-34 101 -80 181l-139 -83l-61 102l141 85l-70 113l159 96l75 -111l132 80l61 -103l-128 -76q254 -405 254 -779q0 -230 -97.5 -369.5t-307.5 -139.5q-416 0 -416 526zM352 505q0 -185 24 -257t96 -72q69 0 94 71.5 t25 257.5q0 193 -26.5 261t-92.5 68q-64 0 -92 -64.5t-28 -264.5z" />
<glyph unicode="&#xf1;" horiz-adv-x="977" d="M104 0v1010h267v-138q70 158 253 158q99 0 163.5 -44.5t82.5 -113.5t18 -210v-662h-282v662q0 102 -26 126t-70 24q-76 0 -100 -46.5t-24 -173.5v-592h-282zM153 1244q111 143 219 143q50 0 132 -35q90 -39 122 -39q45 0 96 72l89 -66q-102 -153 -229 -153q-48 0 -126 35 q-88 39 -122 39q-39 0 -95 -63z" />
<glyph unicode="&#xf2;" horiz-adv-x="942" d="M61 505q0 525 411 525q410 0 410 -525q0 -526 -410 -526q-411 0 -411 526zM185 1350l112 167l341 -314l-84 -84zM352 505q0 -185 24 -257t96 -72q69 0 94 71.5t25 257.5q0 193 -26.5 261t-92.5 68q-64 0 -92 -64.5t-28 -264.5z" />
<glyph unicode="&#xf3;" horiz-adv-x="942" d="M61 505q0 525 411 525q410 0 410 -525q0 -526 -410 -526q-411 0 -411 526zM325 1203l341 314l112 -167l-369 -231zM352 505q0 -185 24 -257t96 -72q69 0 94 71.5t25 257.5q0 193 -26.5 261t-92.5 68q-64 0 -92 -64.5t-28 -264.5z" />
<glyph unicode="&#xf4;" horiz-adv-x="942" d="M61 505q0 525 411 525q410 0 410 -525q0 -526 -410 -526q-411 0 -411 526zM70 1132l401 313l401 -313h-218l-183 118l-183 -118h-218zM352 505q0 -185 24 -257t96 -72q69 0 94 71.5t25 257.5q0 193 -26.5 261t-92.5 68q-64 0 -92 -64.5t-28 -264.5z" />
<glyph unicode="&#xf5;" horiz-adv-x="942" d="M61 505q0 525 411 525q410 0 410 -525q0 -526 -410 -526q-411 0 -411 526zM142 1244q111 143 219 143q50 0 132 -35q90 -39 122 -39q45 0 96 72l89 -66q-102 -153 -229 -153q-48 0 -126 35q-88 39 -122 39q-39 0 -95 -63zM352 505q0 -185 24 -257t96 -72q69 0 94 71.5 t25 257.5q0 193 -26.5 261t-92.5 68q-64 0 -92 -64.5t-28 -264.5z" />
<glyph unicode="&#xf6;" horiz-adv-x="942" d="M61 505q0 525 411 525q410 0 410 -525q0 -526 -410 -526q-411 0 -411 526zM188 1269q0 45 33.5 76.5t80.5 31.5t80.5 -31.5t33.5 -76.5q0 -47 -35.5 -77t-78.5 -30q-41 0 -77.5 29t-36.5 78zM352 505q0 -185 24 -257t96 -72q69 0 94 71.5t25 257.5q0 193 -26.5 261 t-92.5 68q-64 0 -92 -64.5t-28 -264.5zM526 1269q0 45 33.5 76.5t80.5 31.5q48 0 81 -31.5t33 -76.5q0 -48 -36 -77.5t-78 -29.5q-43 0 -78.5 30t-35.5 77z" />
<glyph unicode="&#xf7;" d="M105 574v217h837v-217h-837zM403 210v271h242v-271h-242zM403 885v270h242v-270h-242z" />
<glyph unicode="&#xf8;" horiz-adv-x="942" d="M61 505q0 525 411 525q107 0 190 -35l60 120h134l-97 -193q123 -135 123 -417q0 -526 -410 -526q-100 0 -180 31l-64 -127h-133l98 195q-132 137 -132 427zM312 505q0 -98 10 -201l242 521q-45 23 -89 23q-96 0 -129.5 -75.5t-33.5 -267.5zM391 176q35 -14 81 -14 q98 0 128.5 81.5t30.5 261.5q0 77 -7 176z" />
<glyph unicode="&#xf9;" horiz-adv-x="977" d="M90 353v657h282v-648q0 -98 18 -131t78 -33q55 0 83.5 27t34.5 74.5t6 195.5v515h282v-1010h-265v138q-60 -103 -119.5 -131t-140.5 -28q-109 0 -167 45t-75 114t-17 215zM189 1350l112 167l341 -314l-84 -84z" />
<glyph unicode="&#xfa;" horiz-adv-x="977" d="M90 353v657h282v-648q0 -98 18 -131t78 -33q55 0 83.5 27t34.5 74.5t6 195.5v515h282v-1010h-265v138q-60 -103 -119.5 -131t-140.5 -28q-109 0 -167 45t-75 114t-17 215zM329 1203l341 314l112 -167l-369 -231z" />
<glyph unicode="&#xfb;" horiz-adv-x="977" d="M81 1132l401 313l401 -313h-218l-183 118l-183 -118h-218zM90 353v657h282v-648q0 -98 18 -131t78 -33q55 0 83.5 27t34.5 74.5t6 195.5v515h282v-1010h-265v138q-60 -103 -119.5 -131t-140.5 -28q-109 0 -167 45t-75 114t-17 215z" />
<glyph unicode="&#xfc;" horiz-adv-x="977" d="M90 353v657h282v-648q0 -98 18 -131t78 -33q55 0 83.5 27t34.5 74.5t6 195.5v515h282v-1010h-265v138q-60 -103 -119.5 -131t-140.5 -28q-109 0 -167 45t-75 114t-17 215zM199 1269q0 45 33.5 76.5t80.5 31.5t80.5 -31.5t33.5 -76.5q0 -47 -35.5 -77t-78.5 -30 q-41 0 -77.5 29t-36.5 78zM537 1269q0 45 33.5 76.5t80.5 31.5q48 0 81 -31.5t33 -76.5q0 -48 -36 -77.5t-78 -29.5q-43 0 -78.5 30t-35.5 77z" />
<glyph unicode="&#xfd;" horiz-adv-x="733" d="M-28 1010h282l136 -617l131 617h243l-304 -1026q-44 -147 -75 -206t-93 -97.5t-158 -38.5q-59 0 -120 16v222q42 -6 79 -6q82 0 112.5 27t57.5 118zM236 1203l341 314l112 -167l-369 -231z" />
<glyph unicode="&#xfe;" horiz-adv-x="977" d="M104 -342v1707h277v-483q85 141 219 141q139 0 228 -129t89 -372q0 -266 -90 -401t-252 -135q-116 0 -189 89l-5 -417h-277zM381 413q0 -145 23.5 -188.5t95.5 -43.5q64 0 95 58t31 281q0 194 -27 256t-86 62q-64 0 -98 -59.5t-34 -174.5v-191z" />
<glyph unicode="&#xff;" horiz-adv-x="733" d="M-28 1010h282l136 -617l131 617h243l-304 -1026q-44 -147 -75 -206t-93 -97.5t-158 -38.5q-59 0 -120 16v222q42 -6 79 -6q82 0 112.5 27t57.5 118zM97 1269q0 45 33.5 76.5t80.5 31.5t80.5 -31.5t33.5 -76.5q0 -47 -35.5 -77t-78.5 -30q-41 0 -77.5 29t-36.5 78z M435 1269q0 45 33.5 76.5t80.5 31.5q48 0 81 -31.5t33 -76.5q0 -48 -36 -77.5t-78 -29.5q-43 0 -78.5 30t-35.5 77z" />
<glyph unicode="&#x100;" d="M-40 0l410 1365h302l390 -1365h-307l-68 282h-384l-67 -282h-276zM229 1528v147h562v-147h-562zM360 516h270l-137 557z" />
<glyph unicode="&#x101;" horiz-adv-x="977" d="M73 255q0 169 112 261.5t408 110.5v38q0 101 -20.5 140t-79.5 39q-108 0 -119 -155l-267 26q19 152 129.5 234t278.5 82q142 0 228 -54.5t108.5 -126.5t22.5 -223v-403q0 -188 17 -224h-261q-14 41 -14 155q-93 -176 -277 -176q-118 0 -192 70.5t-74 205.5zM229 1196v147 h562v-147h-562zM365 292q0 -128 94 -128q51 0 92.5 57.5t41.5 211.5v50q-123 -14 -175.5 -54.5t-52.5 -136.5z" />
<glyph unicode="&#x102;" d="M-40 0l410 1365h302l390 -1365h-307l-68 282h-384l-67 -282h-276zM179 1742h161q42 -105 170 -105q127 0 170 105h161q-71 -251 -331 -251q-258 0 -331 251zM360 516h270l-137 557z" />
<glyph unicode="&#x103;" horiz-adv-x="977" d="M73 255q0 169 112 261.5t408 110.5v38q0 101 -20.5 140t-79.5 39q-108 0 -119 -155l-267 26q19 152 129.5 234t278.5 82q142 0 228 -54.5t108.5 -126.5t22.5 -223v-403q0 -188 17 -224h-261q-14 41 -14 155q-93 -176 -277 -176q-118 0 -192 70.5t-74 205.5zM179 1401h161 q42 -105 170 -105q127 0 170 105h161q-71 -251 -331 -251q-258 0 -331 251zM365 292q0 -128 94 -128q51 0 92.5 57.5t41.5 211.5v50q-123 -14 -175.5 -54.5t-52.5 -136.5z" />
<glyph unicode="&#x104;" d="M-40 0l410 1365h302l390 -1365q-94 -87 -94 -165q0 -111 137 -111q44 0 66 5l22 -97q-67 -17 -122 -17q-134 0 -199.5 53t-65.5 134q0 116 146 198h-197l-68 282h-384l-67 -282h-276zM360 516h270l-137 557z" />
<glyph unicode="&#x105;" horiz-adv-x="977" d="M73 255q0 169 112 261.5t408 110.5v38q0 101 -20.5 140t-79.5 39q-108 0 -119 -155l-267 26q19 153 130 234t275 81q136 0 220 -45.5t113 -119t29 -238.5v-403q0 -188 17 -224q-91 -85 -91 -160q0 -107 131 -107q45 0 66 4l21 -94q-65 -16 -117 -16q-133 0 -195.5 51.5 t-62.5 129.5q0 112 141 192h-154q-14 41 -14 155q-93 -176 -277 -176q-118 0 -192 70.5t-74 205.5zM365 292q0 -128 94 -128q51 0 92.5 57.5t41.5 211.5v50q-123 -14 -175.5 -54.5t-52.5 -136.5z" />
<glyph unicode="&#x106;" horiz-adv-x="1117" d="M80 681q0 331 131 518t389 187q427 0 465 -528l-274 -20q-11 304 -190 304q-94 0 -149.5 -98t-55.5 -380q0 -252 51 -346.5t153 -94.5q164 0 193 274l277 -17q-15 -222 -141 -361.5t-333 -139.5q-252 0 -384 187t-132 515zM426 1535l341 314l112 -167l-369 -231z" />
<glyph unicode="&#x107;" horiz-adv-x="907" d="M60 502q0 258 108.5 393t304.5 135q354 0 385 -392l-262 -10q-6 93 -30 140.5t-81 47.5q-142 0 -142 -298q0 -173 34.5 -242t102.5 -69q106 0 116 187l262 -17q-35 -398 -396 -398q-195 0 -298.5 131.5t-103.5 391.5zM332 1203l341 314l112 -167l-369 -231z" />
<glyph unicode="&#x108;" horiz-adv-x="1117" d="M80 681q0 331 131 518t389 187q427 0 465 -528l-274 -20q-11 304 -190 304q-94 0 -149.5 -98t-55.5 -380q0 -252 51 -346.5t153 -94.5q164 0 193 274l277 -17q-15 -222 -141 -361.5t-333 -139.5q-252 0 -384 187t-132 515zM195 1488l401 313l401 -313h-218l-183 118 l-183 -118h-218z" />
<glyph unicode="&#x109;" horiz-adv-x="907" d="M60 502q0 258 108.5 393t304.5 135q354 0 385 -392l-262 -10q-6 93 -30 140.5t-81 47.5q-142 0 -142 -298q0 -173 34.5 -242t102.5 -69q106 0 116 187l262 -17q-35 -398 -396 -398q-195 0 -298.5 131.5t-103.5 391.5zM78 1132l401 313l401 -313h-218l-183 118l-183 -118 h-218z" />
<glyph unicode="&#x10a;" horiz-adv-x="1117" d="M80 681q0 331 131 518t389 187q427 0 465 -528l-274 -20q-11 304 -190 304q-94 0 -149.5 -98t-55.5 -380q0 -252 51 -346.5t153 -94.5q164 0 193 274l277 -17q-15 -222 -141 -361.5t-333 -139.5q-252 0 -384 187t-132 515zM465 1601q0 52 37.5 88.5t89.5 36.5 q53 0 90.5 -37t37.5 -88q0 -53 -38.5 -88.5t-88.5 -35.5q-51 0 -89.5 35.5t-38.5 88.5z" />
<glyph unicode="&#x10b;" horiz-adv-x="907" d="M60 502q0 258 108.5 393t304.5 135q354 0 385 -392l-262 -10q-6 93 -30 140.5t-81 47.5q-142 0 -142 -298q0 -173 34.5 -242t102.5 -69q106 0 116 187l262 -17q-35 -398 -396 -398q-195 0 -298.5 131.5t-103.5 391.5zM356 1269q0 52 37.5 88.5t89.5 36.5q53 0 90.5 -37 t37.5 -88q0 -53 -38.5 -88.5t-88.5 -35.5q-51 0 -89.5 35.5t-38.5 88.5z" />
<glyph unicode="&#x10c;" horiz-adv-x="1117" d="M80 681q0 331 131 518t389 187q427 0 465 -528l-274 -20q-11 304 -190 304q-94 0 -149.5 -98t-55.5 -380q0 -252 51 -346.5t153 -94.5q164 0 193 274l277 -17q-15 -222 -141 -361.5t-333 -139.5q-252 0 -384 187t-132 515zM195 1758h218l183 -119l183 119h218l-401 -313z " />
<glyph unicode="&#x10d;" horiz-adv-x="907" d="M34 502q0 258 108.5 393t304.5 135q354 0 385 -392l-262 -10q-6 93 -30 140.5t-81 47.5q-142 0 -142 -298q0 -173 34.5 -242t102.5 -69q106 0 116 187l262 -17q-35 -398 -396 -398q-195 0 -298.5 131.5t-103.5 391.5zM56 1426h218l183 -119l183 119h218l-401 -313z" />
<glyph unicode="&#x10e;" horiz-adv-x="1151" d="M129 0v1365h323q210 0 341.5 -56.5t210.5 -208.5t79 -411q0 -184 -48 -326.5t-126 -224.5t-176 -110t-245 -28h-359zM137 1758h218l183 -119l183 119h218l-401 -313zM429 235h51q104 0 161 40t91 139.5t34 287.5q0 174 -37.5 268t-94 127.5t-154.5 33.5h-51v-896z" />
<glyph unicode="&#x10f;" horiz-adv-x="1191" d="M61 501q0 263 91.5 393t244.5 130q141 0 201 -108v449h277v-1365h-261v167q-64 -181 -230 -181q-163 0 -243 142t-80 373zM353 477q0 -164 28 -230t92 -66q54 0 89.5 44.5t35.5 182.5v179q0 149 -31.5 199.5t-91.5 50.5q-71 0 -96.5 -70t-25.5 -290zM940 965l56 400h209 l-160 -400h-105z" />
<glyph unicode="&#x110;" horiz-adv-x="1152" d="M13 589v204h116v572h323q211 0 342.5 -57t210 -209.5t78.5 -409.5q0 -184 -48 -327t-126 -224.5t-176 -109.5t-245 -28h-359v589h-116zM429 235h51q104 0 161 39.5t91.5 140t34.5 287.5q0 174 -38 268t-95 127.5t-154 33.5h-51v-338h200v-204h-200v-354z" />
<glyph unicode="&#x111;" horiz-adv-x="977" d="M61 501q0 265 92 393.5t242 128.5q142 0 203 -107v195h-198v137h198v117h277v-117h109v-137h-109v-1111h-261v167q-64 -181 -230 -181q-162 0 -242.5 142.5t-80.5 372.5zM353 477q0 -164 28 -230t92 -66q54 0 89.5 44.5t35.5 182.5v179q0 149 -31.5 199.5t-91.5 50.5 q-71 0 -96.5 -70t-25.5 -290z" />
<glyph unicode="&#x112;" horiz-adv-x="977" d="M129 0v1365h830v-234h-530v-317h412v-235h-412v-335h530v-244h-830zM262 1528v147h562v-147h-562z" />
<glyph unicode="&#x113;" horiz-adv-x="942" d="M60 490q0 263 113.5 401.5t304.5 138.5q172 0 287.5 -122.5t115.5 -449.5h-530v-56q0 -136 37 -182t97 -46q129 0 145 173l251 -16q-67 -352 -401 -352q-206 0 -313 139t-107 372zM210 1196v147h562v-147h-562zM353 621h262q1 18 1 28q0 195 -132 195q-130 0 -131 -223z " />
<glyph unicode="&#x114;" horiz-adv-x="977" d="M129 0v1365h830v-234h-530v-317h412v-235h-412v-335h530v-244h-830zM212 1742h161q42 -105 170 -105q127 0 170 105h161q-71 -251 -331 -251q-258 0 -331 251z" />
<glyph unicode="&#x115;" horiz-adv-x="942" d="M60 490q0 263 113.5 401.5t304.5 138.5q172 0 287.5 -122.5t115.5 -449.5h-530v-56q0 -136 37 -182t97 -46q129 0 145 173l251 -16q-67 -352 -401 -352q-206 0 -313 139t-107 372zM160 1401h161q42 -105 170 -105q127 0 170 105h161q-71 -251 -331 -251q-258 0 -331 251z M353 621h262q1 18 1 28q0 195 -132 195q-130 0 -131 -223z" />
<glyph unicode="&#x116;" horiz-adv-x="977" d="M129 0v1365h830v-234h-530v-317h412v-235h-412v-335h530v-244h-830zM417 1601q0 52 37.5 88.5t89.5 36.5q53 0 90.5 -37t37.5 -88q0 -53 -38.5 -88.5t-88.5 -35.5q-51 0 -89.5 35.5t-38.5 88.5z" />
<glyph unicode="&#x117;" horiz-adv-x="942" d="M60 490q0 263 113.5 401.5t304.5 138.5q172 0 287.5 -122.5t115.5 -449.5h-530v-56q0 -136 37 -182t97 -46q129 0 145 173l251 -16q-67 -352 -401 -352q-206 0 -313 139t-107 372zM353 621h262q1 18 1 28q0 195 -132 195q-130 0 -131 -223zM363 1269q0 52 37.5 88.5 t89.5 36.5q53 0 90.5 -37t37.5 -88q0 -53 -38.5 -88.5t-88.5 -35.5q-51 0 -89.5 35.5t-38.5 88.5z" />
<glyph unicode="&#x118;" horiz-adv-x="977" d="M129 0v1365h830v-234h-530v-317h412v-235h-412v-335h530v-244q-93 -87 -93 -165q0 -111 136 -111q45 0 67 5l22 -97q-66 -17 -123 -17q-133 0 -198.5 53.5t-65.5 133.5q0 116 146 198h-721z" />
<glyph unicode="&#x119;" horiz-adv-x="942" d="M60 490q0 263 113.5 401.5t304.5 138.5q189 0 296 -133t107 -439h-530v-56q0 -136 37 -182t97 -46q129 0 145 173l251 -16q-22 -101 -52.5 -157t-102.5 -127q-101 -100 -101 -191q0 -109 128 -109q54 0 68 4l21 -94q-64 -16 -117 -16q-133 0 -195.5 51.5t-62.5 129.5 q0 99 108 166q-48 -10 -75 -10q-235 0 -337.5 145.5t-102.5 366.5zM353 621h262q1 18 1 28q0 195 -132 195q-130 0 -131 -223z" />
<glyph unicode="&#x11a;" horiz-adv-x="977" d="M129 0v1365h830v-234h-530v-317h412v-235h-412v-335h530v-244h-830zM143 1758h218l183 -119l183 119h218l-401 -313z" />
<glyph unicode="&#x11b;" horiz-adv-x="942" d="M60 490q0 263 113.5 401.5t304.5 138.5q172 0 287.5 -122.5t115.5 -449.5h-530v-56q0 -136 37 -182t97 -46q129 0 145 173l251 -16q-67 -352 -401 -352q-206 0 -313 139t-107 372zM90 1426h218l183 -119l183 119h218l-401 -313zM353 621h262q1 18 1 28q0 195 -132 195 q-130 0 -131 -223z" />
<glyph unicode="&#x11c;" horiz-adv-x="1187" d="M80 656q0 337 134.5 533.5t397.5 196.5q419 0 470 -468l-270 -44q-28 268 -194 268q-101 0 -161.5 -99t-60.5 -375q0 -245 59 -345t173 -100q183 0 184 270h-204v235h474v-728h-127l-39 156q-110 -177 -330 -177q-233 0 -369.5 183.5t-136.5 493.5zM215 1488l401 313 l401 -313h-218l-183 118l-183 -118h-218z" />
<glyph unicode="&#x11d;" horiz-adv-x="942" d="M40 1232l401 313l401 -313h-218l-183 118l-183 -118h-218zM43 -116q0 133 165 188q-132 62 -132 175q0 130 174 222q-150 74 -150 252q0 151 103.5 230t276.5 79q115 0 216 -44q11 108 54 154t135 46q44 0 78 -10v-184q-32 8 -61 8q-88 0 -107 -91q75 -79 75 -202 q0 -137 -102 -219.5t-264 -82.5q-62 0 -131 17q-66 -36 -66 -83q0 -38 37 -50t202 -21q152 -9 227.5 -30t126 -86t50.5 -171q0 -338 -493 -338q-414 0 -414 241zM275 -78q0 -102 232 -102q199 0 199 106q0 39 -21.5 63.5t-55 31t-140.5 11.5q-63 4 -125 12q-89 -41 -89 -122 zM391 709q0 -153 97 -153q49 0 70 36t21 124q0 163 -89 163q-54 0 -76.5 -39.5t-22.5 -130.5z" />
<glyph unicode="&#x11e;" horiz-adv-x="1187" d="M80 656q0 337 134.5 533.5t397.5 196.5q419 0 470 -468l-270 -44q-28 268 -194 268q-101 0 -161.5 -99t-60.5 -375q0 -245 59 -345t173 -100q183 0 184 270h-204v235h474v-728h-127l-39 156q-110 -177 -330 -177q-233 0 -369.5 183.5t-136.5 493.5zM287 1733h161 q42 -105 170 -105q127 0 170 105h161q-71 -251 -331 -251q-258 0 -331 251z" />
<glyph unicode="&#x11f;" horiz-adv-x="942" d="M43 -116q0 133 165 188q-132 62 -132 175q0 130 174 222q-150 74 -150 252q0 151 103.5 230t276.5 79q115 0 216 -44q11 108 54 154t135 46q44 0 78 -10v-184q-32 8 -61 8q-88 0 -107 -91q75 -79 75 -202q0 -137 -102 -219.5t-264 -82.5q-62 0 -131 17q-66 -36 -66 -83 q0 -38 37 -50t202 -21q152 -9 227.5 -30t126 -86t50.5 -171q0 -338 -493 -338q-414 0 -414 241zM158 1401h161q42 -105 170 -105q127 0 170 105h161q-71 -251 -331 -251q-258 0 -331 251zM275 -78q0 -102 232 -102q199 0 199 106q0 39 -21.5 63.5t-55 31t-140.5 11.5 q-63 4 -125 12q-89 -41 -89 -122zM391 709q0 -153 97 -153q49 0 70 36t21 124q0 163 -89 163q-54 0 -76.5 -39.5t-22.5 -130.5z" />
<glyph unicode="&#x120;" horiz-adv-x="1187" d="M80 656q0 337 134.5 533.5t397.5 196.5q419 0 470 -468l-270 -44q-28 268 -194 268q-101 0 -161.5 -99t-60.5 -375q0 -245 59 -345t173 -100q183 0 184 270h-204v235h474v-728h-127l-39 156q-110 -177 -330 -177q-233 0 -369.5 183.5t-136.5 493.5zM488 1601 q0 52 37.5 88.5t89.5 36.5q53 0 90.5 -37t37.5 -88q0 -53 -38.5 -88.5t-88.5 -35.5q-51 0 -89.5 35.5t-38.5 88.5z" />
<glyph unicode="&#x121;" horiz-adv-x="942" d="M43 -116q0 133 165 188q-132 62 -132 175q0 130 174 222q-150 74 -150 252q0 151 103.5 230t276.5 79q115 0 216 -44q11 108 54 154t135 46q44 0 78 -10v-184q-32 8 -61 8q-88 0 -107 -91q75 -79 75 -202q0 -137 -102 -219.5t-264 -82.5q-62 0 -131 17q-66 -36 -66 -83 q0 -38 37 -50t202 -21q152 -9 227.5 -30t126 -86t50.5 -171q0 -338 -493 -338q-414 0 -414 241zM275 -78q0 -102 232 -102q199 0 199 106q0 39 -21.5 63.5t-55 31t-140.5 11.5q-63 4 -125 12q-89 -41 -89 -122zM362 1269q0 52 37.5 88.5t89.5 36.5q53 0 90.5 -37t37.5 -88 q0 -53 -38.5 -88.5t-88.5 -35.5q-51 0 -89.5 35.5t-38.5 88.5zM391 709q0 -153 97 -153q49 0 70 36t21 124q0 163 -89 163q-54 0 -76.5 -39.5t-22.5 -130.5z" />
<glyph unicode="&#x122;" horiz-adv-x="1187" d="M80 656q0 337 134.5 533.5t397.5 196.5q419 0 470 -468l-270 -44q-28 268 -194 268q-101 0 -161.5 -99t-60.5 -375q0 -245 59 -345t173 -100q183 0 184 270h-204v235h474v-728h-127l-39 156q-110 -177 -330 -177q-233 0 -369.5 183.5t-136.5 493.5zM459 -490l56 381h209 l-160 -381h-105z" />
<glyph unicode="&#x123;" horiz-adv-x="942" d="M43 -116q0 133 165 188q-132 62 -132 175q0 130 174 222q-150 74 -150 252q0 151 103.5 230t276.5 79q115 0 216 -44q11 108 54 154t135 46q44 0 78 -10v-184q-32 8 -61 8q-88 0 -107 -91q75 -79 75 -202q0 -137 -102 -219.5t-264 -82.5q-62 0 -131 17q-66 -36 -66 -83 q0 -38 37 -50t202 -21q152 -9 227.5 -30t126 -86t50.5 -171q0 -338 -493 -338q-414 0 -414 241zM275 -78q0 -102 232 -102q199 0 199 106q0 39 -21.5 63.5t-55 31t-140.5 11.5q-63 4 -125 12q-89 -41 -89 -122zM371 1135l159 380h105l-56 -380h-208zM391 709q0 -153 97 -153 q49 0 70 36t21 124q0 163 -89 163q-54 0 -76.5 -39.5t-22.5 -130.5z" />
<glyph unicode="&#x124;" horiz-adv-x="1186" d="M129 0v1365h300v-551h328v551h300v-1365h-300v558h-328v-558h-300zM192 1488l401 313l401 -313h-218l-183 118l-183 -118h-218z" />
<glyph unicode="&#x125;" horiz-adv-x="977" d="M-141 1484l401 313l401 -313h-218l-183 118l-183 -118h-218zM104 0v1365h282v-462q76 128 248 128q103 0 162.5 -48t75.5 -121.5t16 -213.5v-648h-282v648q0 99 -18.5 131.5t-76.5 32.5q-57 0 -91 -31t-34 -141v-640h-282z" />
<glyph unicode="&#x126;" horiz-adv-x="1186" d="M-8 978v223h138v164h299v-164h329v164h300v-164h135v-223h-135v-978h-300v558h-329v-558h-299v978h-138zM429 814h329v164h-329v-164z" />
<glyph unicode="&#x127;" horiz-adv-x="977" d="M-34 1122v164h138v79h281v-79h367v-164h-367v-219q77 128 249 128q102 0 161.5 -47.5t75.5 -121.5t16 -214v-648h-281v648q0 99 -18.5 131.5t-76.5 32.5t-92 -31.5t-34 -140.5v-640h-281v1122h-138z" />
<glyph unicode="&#x128;" horiz-adv-x="558" d="M-46 1569q111 143 219 143q50 0 132 -35q90 -39 122 -39q45 0 96 72l89 -66q-102 -153 -229 -153q-48 0 -126 35q-88 39 -122 39q-39 0 -95 -63zM129 0v1365h300v-1365h-300z" />
<glyph unicode="&#x129;" horiz-adv-x="488" d="M-89 1244q111 143 219 143q50 0 132 -35q90 -39 122 -39q45 0 96 72l89 -66q-102 -153 -229 -153q-48 0 -126 35q-88 39 -122 39q-39 0 -95 -63zM103 0v1010h282v-1010h-282z" />
<glyph unicode="&#x12a;" horiz-adv-x="558" d="M-1 1530v147h562v-147h-562zM129 0v1365h300v-1365h-300z" />
<glyph unicode="&#x12b;" horiz-adv-x="488" d="M-37 1196v147h562v-147h-562zM103 0v1010h282v-1010h-282z" />
<glyph unicode="&#x12c;" horiz-adv-x="558" d="M-51 1741h161q42 -105 170 -105q127 0 170 105h161q-71 -251 -331 -251q-258 0 -331 251zM129 0v1365h300v-1365h-300z" />
<glyph unicode="&#x12d;" horiz-adv-x="488" d="M-91 1401h161q42 -105 170 -105q127 0 170 105h161q-71 -251 -331 -251q-258 0 -331 251zM103 0v1010h282v-1010h-282z" />
<glyph unicode="&#x12e;" horiz-adv-x="558" d="M129 0v1365h300v-1365q-79 -64 -96.5 -94t-17.5 -70q0 -112 132 -112q17 0 44 5l22 -97q-68 -17 -120 -17q-100 0 -170 50.5t-70 136.5q0 123 159 198h-183z" />
<glyph unicode="&#x12f;" horiz-adv-x="488" d="M101 1093v279h286v-279h-286zM103 0v1010h282v-1010q-57 -45 -80.5 -79.5t-23.5 -79.5q0 -52 36.5 -81t74.5 -29q17 0 51 6l21 -94q-65 -16 -114 -16q-87 0 -157 47.5t-70 135.5q0 104 148 190h-168z" />
<glyph unicode="&#x130;" horiz-adv-x="558" d="M129 0v1365h300v-1365h-300zM152 1601q0 52 37.5 88.5t89.5 36.5q53 0 90.5 -37t37.5 -88q0 -53 -38.5 -88.5t-88.5 -35.5q-51 0 -89.5 35.5t-38.5 88.5z" />
<glyph unicode="&#x131;" horiz-adv-x="488" d="M103 0v1010h282v-1010h-282z" />
<glyph unicode="&#x132;" horiz-adv-x="1214" d="M129 0v1365h300v-1365h-300zM541 0v251q72 -14 121 -14q79 0 104.5 42.5t25.5 179.5v906h300v-906q0 -173 -25.5 -269.5t-105.5 -153.5t-237 -57q-68 0 -183 21z" />
<glyph unicode="&#x133;" horiz-adv-x="977" d="M101 1093v279h286v-279h-286zM103 0v1010h282v-1010h-282zM471 -125q21 -3 37 -3q62 0 77.5 31t15.5 138v969h282v-977q0 -156 -17 -234t-81 -123.5t-163 -45.5q-63 0 -151 14v231zM599 1093v279h286v-279h-286z" />
<glyph unicode="&#x134;" horiz-adv-x="663" d="M-10 0v251q72 -14 121 -14q79 0 104.5 42.5t25.5 179.5v906h300v-906q0 -173 -25.5 -269.5t-105.5 -153.5t-237 -57q-68 0 -183 21zM-10 1480l401 313l401 -313h-218l-183 118l-183 -118h-218z" />
<glyph unicode="&#x135;" horiz-adv-x="488" d="M-131 1138l401 313l401 -313h-218l-183 118l-183 -118h-218zM-17 -125q21 -3 37 -3q62 0 77.5 30.5t15.5 138.5v969h281v-977q0 -157 -17 -235t-81 -123t-163 -45q-63 0 -150 14v231z" />
<glyph unicode="&#x136;" horiz-adv-x="1081" d="M129 0v1365h300v-569l332 569h303l-342 -502l371 -863h-310l-240 629l-114 -165v-464h-300zM454 -490l56 381h209l-160 -381h-105z" />
<glyph unicode="&#x137;" horiz-adv-x="942" d="M104 0v1365h282v-745l284 390h256l-255 -339l280 -671h-304l-158 469l-103 -142v-327h-282zM354 -490l56 381h209l-160 -381h-105z" />
<glyph unicode="&#x138;" horiz-adv-x="942" d="M104 0v1010h282v-390l284 390h256l-255 -339l280 -671h-304l-158 469l-103 -142v-327h-282z" />
<glyph unicode="&#x139;" horiz-adv-x="872" d="M129 0v1365h300v-1109h440v-256h-740zM129 1535l341 314l112 -167l-369 -231z" />
<glyph unicode="&#x13a;" horiz-adv-x="488" d="M96 1535l341 314l112 -167l-369 -231zM103 0v1365h282v-1365h-282z" />
<glyph unicode="&#x13b;" horiz-adv-x="872" d="M129 0v1365h300v-1109h440v-256h-740zM349 -490l56 381h209l-160 -381h-105z" />
<glyph unicode="&#x13c;" horiz-adv-x="488" d="M88 -490l56 381h209l-160 -381h-105zM103 0v1365h282v-1365h-282z" />
<glyph unicode="&#x13d;" horiz-adv-x="872" d="M129 0v1365h300v-1109h440v-256h-740zM570 965l56 400h209l-160 -400h-105z" />
<glyph unicode="&#x13e;" horiz-adv-x="702" d="M103 0v1365h282v-1365h-282zM453 965l56 400h209l-160 -400h-105z" />
<glyph unicode="&#x13f;" horiz-adv-x="872" d="M129 0v1365h300v-1109h440v-256h-740zM562 542v309h306v-310z" />
<glyph unicode="&#x140;" horiz-adv-x="776" d="M103 0v1365h282v-1365h-282zM488 543v301h287v-302z" />
<glyph unicode="&#x141;" horiz-adv-x="872" d="M13 327v241l116 118v679h300v-475l224 223v-241l-224 -223v-393h440v-256h-740v444z" />
<glyph unicode="&#x142;" horiz-adv-x="558" d="M15 396v199l123 124v646h281v-460l123 118v-200l-123 -117v-706h-281v520z" />
<glyph unicode="&#x143;" horiz-adv-x="1151" d="M118 0v1365h333l351 -848v848h232v-1365h-268l-416 988v-988h-232zM413 1535l341 314l112 -167l-369 -231z" />
<glyph unicode="&#x144;" horiz-adv-x="977" d="M104 0v1010h267v-138q70 158 253 158q99 0 163.5 -44.5t82.5 -113.5t18 -210v-662h-282v662q0 102 -26 126t-70 24q-76 0 -100 -46.5t-24 -173.5v-592h-282zM345 1203l341 314l112 -167l-369 -231z" />
<glyph unicode="&#x145;" horiz-adv-x="1151" d="M118 0v1365h333l351 -848v848h232v-1365h-268l-416 988v-988h-232zM426 -490l56 381h209l-160 -381h-105z" />
<glyph unicode="&#x146;" horiz-adv-x="977" d="M104 0v1010h267v-138q70 158 253 158q99 0 163.5 -44.5t82.5 -113.5t18 -210v-662h-282v662q0 102 -26 126t-70 24q-76 0 -100 -46.5t-24 -173.5v-592h-282zM343 -490l56 381h209l-160 -381h-105z" />
<glyph unicode="&#x147;" horiz-adv-x="1151" d="M118 0v1365h333l351 -848v848h232v-1365h-268l-416 988v-988h-232zM175 1758h218l183 -119l183 119h218l-401 -313z" />
<glyph unicode="&#x148;" horiz-adv-x="977" d="M81 1426h218l183 -119l183 119h218l-401 -313zM104 0v1010h267v-138q70 158 253 158q99 0 163.5 -44.5t82.5 -113.5t18 -210v-662h-282v662q0 102 -26 126t-70 24q-76 0 -100 -46.5t-24 -173.5v-592h-282z" />
<glyph unicode="&#x149;" horiz-adv-x="1110" d="M-57 833l113 268h-113v302h256v-302l-146 -268h-110zM194 0v1010h267v-138q70 158 253 158q99 0 163.5 -44.5t82.5 -113.5t18 -210v-662h-282v662q0 102 -26 126t-70 24q-76 0 -100 -46.5t-24 -173.5v-592h-282z" />
<glyph unicode="&#x14a;" horiz-adv-x="1197" d="M97 0v1365h292v-138q124 158 315 158q184 0 292 -115t108 -399v-739q0 -174 -41.5 -275.5t-146.5 -168.5t-265 -67q-79 0 -169 25v244q93 -19 136 -19q112 0 149 39t37 170v825q0 224 -154 224q-106 0 -179.5 -95t-73.5 -272v-762h-300z" />
<glyph unicode="&#x14b;" horiz-adv-x="942" d="M104 0v1010h267v-138q70 158 253 158q99 0 163.5 -44.5t82.5 -113.5t18 -210v-662q0 -345 -298 -345q-62 0 -162 20v235q73 -18 118 -18q41 0 51 27t10 81l-1 662q0 102 -26 126t-70 24q-76 0 -100 -46.5t-24 -173.5v-592h-282z" />
<glyph unicode="&#x14c;" horiz-adv-x="1151" d="M80 683q0 703 495 703q242 0 369 -176t127 -527q0 -704 -495 -704q-246 0 -371 179.5t-125 524.5zM302 1528v147h562v-147h-562zM396 683q0 -270 42.5 -365t136.5 -95q93 0 136.5 91t43.5 369q0 276 -43 367.5t-137 91.5q-93 0 -136 -92t-43 -367z" />
<glyph unicode="&#x14d;" horiz-adv-x="942" d="M61 505q0 525 411 525q410 0 410 -525q0 -526 -410 -526q-411 0 -411 526zM194 1196v147h562v-147h-562zM352 505q0 -185 24 -257t96 -72q69 0 94 71.5t25 257.5q0 193 -26.5 261t-92.5 68q-64 0 -92 -64.5t-28 -264.5z" />
<glyph unicode="&#x14e;" horiz-adv-x="1151" d="M80 683q0 703 495 703q242 0 369 -176t127 -527q0 -704 -495 -704q-246 0 -371 179.5t-125 524.5zM245 1745h161q42 -105 170 -105q127 0 170 105h161q-71 -251 -331 -251q-258 0 -331 251zM396 683q0 -270 42.5 -365t136.5 -95q93 0 136.5 91t43.5 369q0 276 -43 367.5 t-137 91.5q-93 0 -136 -92t-43 -367z" />
<glyph unicode="&#x14f;" horiz-adv-x="942" d="M61 505q0 525 411 525q410 0 410 -525q0 -526 -410 -526q-411 0 -411 526zM137 1383h161q42 -105 170 -105q127 0 170 105h161q-71 -251 -331 -251q-258 0 -331 251zM352 505q0 -185 24 -257t96 -72q69 0 94 71.5t25 257.5q0 193 -26.5 261t-92.5 68q-64 0 -92 -64.5 t-28 -264.5z" />
<glyph unicode="&#x150;" horiz-adv-x="1151" d="M80 683q0 703 495 703q242 0 369 -176t127 -527q0 -704 -495 -704q-246 0 -371 179.5t-125 524.5zM324 1538l248 275l114 -124l-286 -227zM396 683q0 -270 42.5 -365t136.5 -95q93 0 136.5 91t43.5 369q0 276 -43 367.5t-137 91.5q-93 0 -136 -92t-43 -367zM637 1537 l248 276l114 -124l-286 -227z" />
<glyph unicode="&#x151;" horiz-adv-x="942" d="M61 505q0 525 411 525q410 0 410 -525q0 -526 -410 -526q-411 0 -411 526zM213 1194l248 275l114 -124l-286 -227zM352 505q0 -185 24 -257t96 -72q69 0 94 71.5t25 257.5q0 193 -26.5 261t-92.5 68q-64 0 -92 -64.5t-28 -264.5zM526 1193l248 276l114 -124l-286 -227z " />
<glyph unicode="&#x152;" horiz-adv-x="1605" d="M80 648q0 388 136 563t390 175q77 0 186 -21h795v-234h-536v-317h419v-235h-419v-335h536v-244h-812q-106 -21 -180 -21q-139 0 -259.5 65t-188 236.5t-67.5 367.5zM396 661q0 -438 219 -438q91 0 148 51v814q-56 54 -153 54q-137 0 -175.5 -143.5t-38.5 -337.5z" />
<glyph unicode="&#x153;" horiz-adv-x="1465" d="M61 505q0 525 404 525q183 0 279 -117q96 117 258 117q141 0 235 -74.5t131 -192t37 -305.5h-536q-1 -35 -1 -56q0 -136 39.5 -182t102.5 -46q127 0 144 173l251 -16q-74 -352 -395 -352q-170 0 -278 109q-93 -109 -270 -109q-200 0 -300.5 135t-100.5 391zM352 505 q0 -185 24.5 -257t94.5 -72q71 0 95.5 73t24.5 256q0 191 -26.5 260t-93.5 69q-64 0 -91.5 -64.5t-27.5 -264.5zM871 621h269v29q0 194 -132 194q-136 0 -137 -223z" />
<glyph unicode="&#x154;" horiz-adv-x="1116" d="M129 0v1365h429q125 0 191.5 -11.5t134.5 -62t106.5 -138t38.5 -196.5q0 -256 -192 -360l251 -597h-327l-182 540h-150v-540h-300zM367 1547l341 314l112 -167l-369 -231zM429 761h132q176 0 176 197q0 68 -26 111.5t-60.5 59t-101.5 15.5h-120v-383z" />
<glyph unicode="&#x155;" horiz-adv-x="628" d="M104 0v1010h248v-244q67 257 239 257q21 0 48 -5v-275q-31 4 -47 4q-206 0 -206 -312v-435h-282zM241 1203l341 314l112 -167l-369 -231z" />
<glyph unicode="&#x156;" horiz-adv-x="1116" d="M129 0v1365h429q125 0 191.5 -11.5t134.5 -62t106.5 -138t38.5 -196.5q0 -256 -192 -360l251 -597h-327l-182 540h-150v-540h-300zM429 761h132q176 0 176 197q0 68 -26 111.5t-60.5 59t-101.5 15.5h-120v-383zM432 -490l56 381h209l-160 -381h-105z" />
<glyph unicode="&#x157;" horiz-adv-x="628" d="M85 -490l56 381h209l-160 -381h-105zM104 0v1010h248v-244q67 257 239 257q21 0 48 -5v-275q-31 4 -47 4q-206 0 -206 -312v-435h-282z" />
<glyph unicode="&#x158;" horiz-adv-x="1116" d="M129 0v1365h429q125 0 191.5 -11.5t134.5 -62t106.5 -138t38.5 -196.5q0 -256 -192 -360l251 -597h-327l-182 540h-150v-540h-300zM153 1758h218l183 -119l183 119h218l-401 -313zM429 761h132q176 0 176 197q0 68 -26 111.5t-60.5 59t-101.5 15.5h-120v-383z" />
<glyph unicode="&#x159;" horiz-adv-x="628" d="M-29 1426h218l183 -119l183 119h218l-401 -313zM104 0v1010h248v-244q67 257 239 257q21 0 48 -5v-275q-31 4 -47 4q-206 0 -206 -312v-435h-282z" />
<glyph unicode="&#x15a;" d="M33 354l262 75q48 -206 219 -206q78 0 126.5 40.5t48.5 106.5q0 50 -34 89.5t-156 83.5q-157 56 -234 101.5t-127 130t-50 192.5q0 184 118.5 301.5t313.5 117.5q356 0 444 -318l-248 -95q-53 169 -194 169q-66 0 -104.5 -37.5t-38.5 -87.5q0 -58 45.5 -92.5t190.5 -90.5 q132 -49 207.5 -97t122 -130.5t46.5 -191.5q0 -191 -131.5 -313.5t-352.5 -122.5q-371 0 -474 375zM349 1539l341 314l112 -167l-369 -231z" />
<glyph unicode="&#x15b;" horiz-adv-x="837" d="M39 280l224 36q28 -151 159 -151q112 0 112 94q0 50 -33 76t-128 56q-174 56 -239 135t-65 183q0 146 102.5 234t256.5 88q269 0 342 -264l-201 -60q-40 137 -148 137q-88 0 -88 -88q0 -50 33 -76t136 -62q116 -41 170 -72t91 -93.5t37 -143.5q0 -140 -101 -235t-282 -95 q-341 0 -378 301zM281 1203l341 314l112 -167l-369 -231z" />
<glyph unicode="&#x15c;" d="M33 354l262 75q48 -206 219 -206q78 0 126.5 40.5t48.5 106.5q0 50 -34 89.5t-156 83.5q-157 56 -234 101.5t-127 130t-50 192.5q0 184 118.5 301.5t313.5 117.5q356 0 444 -318l-248 -95q-53 169 -194 169q-66 0 -104.5 -37.5t-38.5 -87.5q0 -58 45.5 -92.5t190.5 -90.5 q132 -49 207.5 -97t122 -130.5t46.5 -191.5q0 -191 -131.5 -313.5t-352.5 -122.5q-371 0 -474 375zM139 1488l401 313l401 -313h-218l-183 118l-183 -118h-218z" />
<glyph unicode="&#x15d;" horiz-adv-x="837" d="M29 1132l401 313l401 -313h-218l-183 118l-183 -118h-218zM39 280l224 36q28 -151 159 -151q112 0 112 94q0 50 -33 76t-128 56q-174 56 -239 135t-65 183q0 146 102.5 234t256.5 88q269 0 342 -264l-201 -60q-40 137 -148 137q-88 0 -88 -88q0 -50 33 -76t136 -62 q116 -41 170 -72t91 -93.5t37 -143.5q0 -140 -101 -235t-282 -95q-341 0 -378 301z" />
<glyph unicode="&#x15e;" d="M33 354l262 75q48 -206 219 -206q78 0 126.5 40.5t48.5 106.5q0 50 -34 89.5t-156 83.5q-157 56 -234 101.5t-127 130t-50 192.5q0 184 118.5 301.5t313.5 117.5q356 0 444 -318l-248 -95q-53 169 -194 169q-65 0 -104 -37t-39 -88q0 -58 45.5 -92.5t190.5 -90.5 q132 -49 207.5 -97t122 -130.5t46.5 -191.5q0 -183 -121.5 -304t-328.5 -132l-30 -84q26 3 40 3q76 0 122.5 -46t46.5 -118q0 -78 -57 -127t-155 -49q-110 0 -228 74l35 91q97 -52 166 -52q65 0 65 58q0 36 -30.5 60t-87.5 24l-64 -1l63 171q-310 44 -394 371z" />
<glyph unicode="&#x15f;" horiz-adv-x="837" d="M39 280l224 36q28 -151 159 -151q112 0 112 94q0 50 -33 76t-128 56q-174 56 -239 135t-65 183q0 146 102.5 234t256.5 88q269 0 342 -264l-201 -60q-40 137 -148 137q-88 0 -88 -88q0 -50 33 -76t136 -62q116 -41 170 -72t91 -93.5t37 -143.5q0 -131 -91.5 -225.5 t-260.5 -104.5l-32 -81q26 3 40 3q69 0 116 -43t47 -116q0 -76 -55 -123.5t-152 -47.5q-105 0 -220 72l34 83q97 -50 160 -50q73 0 73 61q0 38 -33.5 62t-83.5 24q-26 0 -67 -5l60 167q-265 39 -296 295z" />
<glyph unicode="&#x160;" d="M33 354l262 75q48 -206 219 -206q78 0 126.5 40.5t48.5 106.5q0 50 -34 89.5t-156 83.5q-157 56 -234 101.5t-127 130t-50 192.5q0 184 118.5 301.5t313.5 117.5q356 0 444 -318l-248 -95q-53 169 -194 169q-66 0 -104.5 -37.5t-38.5 -87.5q0 -58 45.5 -92.5t190.5 -90.5 q132 -49 207.5 -97t122 -130.5t46.5 -191.5q0 -191 -131.5 -313.5t-352.5 -122.5q-371 0 -474 375zM137 1762h218l183 -119l183 119h218l-401 -313z" />
<glyph unicode="&#x161;" horiz-adv-x="837" d="M28 1426h218l183 -119l183 119h218l-401 -313zM39 280l224 36q28 -151 159 -151q112 0 112 94q0 50 -33 76t-128 56q-174 56 -239 135t-65 183q0 146 102.5 234t256.5 88q269 0 342 -264l-201 -60q-40 137 -148 137q-88 0 -88 -88q0 -50 33 -76t136 -62q116 -41 170 -72 t91 -93.5t37 -143.5q0 -140 -101 -235t-282 -95q-341 0 -378 301z" />
<glyph unicode="&#x162;" horiz-adv-x="802" d="M-24 1109v256h851v-256h-279v-1109h-300v1109h-272zM245 -490l56 381h209l-160 -381h-105z" />
<glyph unicode="&#x163;" horiz-adv-x="628" d="M34 788v222h112v310l274 9v-319h186v-222h-186v-371q0 -103 4.5 -133.5t30 -51t85.5 -20.5q32 0 80 2v-214q-94 -21 -172 -21q-128 0 -196 49t-87 123t-19 235v402h-112zM222 -490l56 381h209l-160 -381h-105z" />
<glyph unicode="&#x164;" horiz-adv-x="802" d="M-24 1109v256h851v-256h-279v-1109h-300v1109h-272zM1 1762h218l183 -119l183 119h218l-401 -313z" />
<glyph unicode="&#x165;" horiz-adv-x="753" d="M34 788v222h112v310l274 9v-319h186v-222h-186v-371q0 -103 4.5 -133.5t30 -51t85.5 -20.5q32 0 80 2v-214q-94 -21 -172 -21q-128 0 -196 49t-87 123t-19 235v402h-112zM515 1120l56 400h209l-160 -400h-105z" />
<glyph unicode="&#x166;" horiz-adv-x="802" d="M-75 656v258h323v195h-272v256h851v-256h-279v-195h344v-258h-344v-656h-300v656h-323z" />
<glyph unicode="&#x167;" horiz-adv-x="628" d="M34 788v222h126l23 298l237 21v-319h186v-222h-186v-84h142v-198h-142v-89q0 -103 4.5 -133.5t30 -51t85.5 -20.5q32 0 80 2v-214q-94 -21 -172 -21q-128 0 -196 49t-87 123t-19 235v120h-111v198h111v84h-112z" />
<glyph unicode="&#x168;" horiz-adv-x="1186" d="M129 585v780h300v-780q0 -165 15 -230t62.5 -98.5t116.5 -33.5q75 0 119 37t54 98t10 227v780h251v-768q0 -230 -26.5 -343t-135 -194t-298.5 -81q-178 0 -280 59.5t-145 167t-43 379.5zM269 1565q111 143 219 143q50 0 132 -35q90 -39 122 -39q45 0 96 72l89 -66 q-102 -153 -229 -153q-48 0 -126 35q-88 39 -122 39q-39 0 -95 -63z" />
<glyph unicode="&#x169;" horiz-adv-x="977" d="M90 353v657h282v-648q0 -98 18 -131t78 -33q55 0 83.5 27t34.5 74.5t6 195.5v515h282v-1010h-265v138q-60 -103 -119.5 -131t-140.5 -28q-109 0 -167 45t-75 114t-17 215zM160 1244q111 143 219 143q50 0 132 -35q90 -39 122 -39q45 0 96 72l89 -66q-102 -153 -229 -153 q-48 0 -126 35q-88 39 -122 39q-39 0 -95 -63z" />
<glyph unicode="&#x16a;" horiz-adv-x="1186" d="M129 585v780h300v-780q0 -165 15 -230t62.5 -98.5t116.5 -33.5q75 0 119 37t54 98t10 227v780h251v-768q0 -230 -26.5 -343t-135 -194t-298.5 -81q-178 0 -280 59.5t-145 167t-43 379.5zM319 1530v147h562v-147h-562z" />
<glyph unicode="&#x16b;" horiz-adv-x="977" d="M90 353v657h282v-648q0 -98 18 -131t78 -33q55 0 83.5 27t34.5 74.5t6 195.5v515h282v-1010h-265v138q-60 -103 -119.5 -131t-140.5 -28q-109 0 -167 45t-75 114t-17 215zM201 1196v147h562v-147h-562z" />
<glyph unicode="&#x16c;" horiz-adv-x="1186" d="M129 585v780h300v-780q0 -165 15 -230t62.5 -98.5t116.5 -33.5q75 0 119 37t54 98t10 227v780h251v-768q0 -230 -26.5 -343t-135 -194t-298.5 -81q-178 0 -280 59.5t-145 167t-43 379.5zM263 1738h161q42 -105 170 -105q127 0 170 105h161q-71 -251 -331 -251 q-258 0 -331 251z" />
<glyph unicode="&#x16d;" horiz-adv-x="977" d="M90 353v657h282v-648q0 -98 18 -131t78 -33q55 0 83.5 27t34.5 74.5t6 195.5v515h282v-1010h-265v138q-60 -103 -119.5 -131t-140.5 -28q-109 0 -167 45t-75 114t-17 215zM151 1401h161q42 -105 170 -105q127 0 170 105h161q-71 -251 -331 -251q-258 0 -331 251z" />
<glyph unicode="&#x16e;" horiz-adv-x="1186" d="M129 585v780h300v-780q0 -165 15 -230t62.5 -98.5t116.5 -33.5q75 0 119 37t54 98t10 227v780h251v-768q0 -230 -26.5 -343t-135 -194t-298.5 -81q-178 0 -280 59.5t-145 167t-43 379.5zM408 1644q0 83 58 139t135 56t135 -55.5t58 -139.5q0 -86 -60.5 -139t-132.5 -53 t-132.5 53.5t-60.5 138.5zM524 1645q0 -36 24.5 -58.5t52.5 -22.5q29 0 53 22.5t24 58.5q0 35 -23.5 58.5t-53.5 23.5t-53.5 -23.5t-23.5 -58.5z" />
<glyph unicode="&#x16f;" horiz-adv-x="977" d="M90 353v657h282v-648q0 -98 18 -131t78 -33q55 0 83.5 27t34.5 74.5t6 195.5v515h282v-1010h-265v138q-60 -103 -119.5 -131t-140.5 -28q-109 0 -167 45t-75 114t-17 215zM289 1301q0 83 58 139t135 56t135 -55.5t58 -139.5q0 -86 -60.5 -139t-132.5 -53t-132.5 53.5 t-60.5 138.5zM405 1302q0 -36 24.5 -58.5t52.5 -22.5q29 0 53 22.5t24 58.5q0 35 -23.5 58.5t-53.5 23.5t-53.5 -23.5t-23.5 -58.5z" />
<glyph unicode="&#x170;" horiz-adv-x="1186" d="M129 585v780h300v-780q0 -165 15 -230t62.5 -98.5t116.5 -33.5q75 0 119 37t54 98t10 227v780h251v-768q0 -230 -26.5 -343t-135 -194t-298.5 -81q-178 0 -280 59.5t-145 167t-43 379.5zM332 1535l248 275l114 -124l-286 -227zM645 1534l248 276l114 -124l-286 -227z" />
<glyph unicode="&#x171;" horiz-adv-x="977" d="M90 353v657h282v-648q0 -98 18 -131t78 -33q55 0 83.5 27t34.5 74.5t6 195.5v515h282v-1010h-265v138q-60 -103 -119.5 -131t-140.5 -28q-109 0 -167 45t-75 114t-17 215zM247 1194l248 275l114 -124l-286 -227zM560 1193l248 276l114 -124l-286 -227z" />
<glyph unicode="&#x172;" horiz-adv-x="1186" d="M129 585v780h300v-780q0 -165 15 -230t62.5 -98.5t116.5 -33.5q75 0 119 37t54 98t10 227v780h251v-768q0 -232 -23 -340t-147 -208q-120 -98 -120 -197q0 -114 134 -114q48 0 69 5l21 -97q-66 -17 -121 -17q-135 0 -200.5 53t-65.5 134q0 101 109 171q-74 -9 -121 -9 q-159 0 -270 58.5t-152 175t-41 373.5z" />
<glyph unicode="&#x173;" horiz-adv-x="977" d="M90 353v657h282v-648q0 -98 18 -131t78 -33q55 0 83.5 27t34.5 74.5t6 195.5v515h282v-1010q-91 -85 -91 -160q0 -107 131 -107q46 0 66 4l21 -94q-64 -16 -117 -16q-133 0 -195.5 52t-62.5 129q0 111 141 192h-158v138q-60 -103 -119.5 -131t-140.5 -28q-109 0 -167 45 t-75 114t-17 215z" />
<glyph unicode="&#x174;" horiz-adv-x="1465" d="M-11 1365h307l143 -945l179 945h275l168 -947l167 947h253l-293 -1372h-269l-182 949l-186 -949h-266zM354 1488l401 313l401 -313h-218l-183 118l-183 -118h-218z" />
<glyph unicode="&#x175;" horiz-adv-x="1186" d="M-17 1010h274l119 -614l113 614h274l92 -614l136 614h221l-253 -1010h-236l-130 687l-127 -687h-229zM200 1132l401 313l401 -313h-218l-183 118l-183 -118h-218z" />
<glyph unicode="&#x176;" horiz-adv-x="907" d="M-58 1365h330l193 -498l206 498h293l-379 -788v-577h-300v577zM52 1488l401 313l401 -313h-218l-183 118l-183 -118h-218z" />
<glyph unicode="&#x177;" horiz-adv-x="733" d="M-28 1010h282l136 -617l131 617h243l-304 -1026q-44 -147 -75 -206t-93 -97.5t-158 -38.5q-59 0 -120 16v222q42 -6 79 -6q82 0 112.5 27t57.5 118zM-26 1132l401 313l401 -313h-218l-183 118l-183 -118h-218z" />
<glyph unicode="&#x178;" horiz-adv-x="907" d="M-58 1365h330l193 -498l206 498h293l-379 -788v-577h-300v577zM171 1601q0 45 33.5 76.5t80.5 31.5t80.5 -31.5t33.5 -76.5q0 -47 -35.5 -77t-78.5 -30q-41 0 -77.5 29t-36.5 78zM509 1601q0 45 33.5 76.5t80.5 31.5q48 0 81 -31.5t33 -76.5q0 -48 -36 -77.5t-78 -29.5 q-43 0 -78.5 30t-35.5 77z" />
<glyph unicode="&#x179;" horiz-adv-x="942" d="M2 0v209l575 912h-533v244h877v-213l-571 -908h589v-244h-937zM305 1559l341 314l112 -167l-369 -231z" />
<glyph unicode="&#x17a;" horiz-adv-x="733" d="M41 0v200l366 610h-331v200h630v-181l-375 -629h385v-200h-675zM261 1203l341 314l112 -167l-369 -231z" />
<glyph unicode="&#x17b;" horiz-adv-x="942" d="M2 0v209l575 912h-533v244h877v-213l-571 -908h589v-244h-937zM366 1601q0 52 37.5 88.5t89.5 36.5q53 0 90.5 -37t37.5 -88q0 -53 -38.5 -88.5t-88.5 -35.5q-51 0 -89.5 35.5t-38.5 88.5z" />
<glyph unicode="&#x17c;" horiz-adv-x="733" d="M41 0v200l366 610h-331v200h630v-181l-375 -629h385v-200h-675zM275 1269q0 52 37.5 88.5t89.5 36.5q53 0 90.5 -37t37.5 -88q0 -53 -38.5 -88.5t-88.5 -35.5q-51 0 -89.5 35.5t-38.5 88.5z" />
<glyph unicode="&#x17d;" horiz-adv-x="942" d="M2 0v209l575 912h-533v244h877v-213l-571 -908h589v-244h-937zM90 1762h218l183 -119l183 119h218l-401 -313z" />
<glyph unicode="&#x17e;" horiz-adv-x="733" d="M-1 1426h218l183 -119l183 119h218l-401 -313zM41 0v200l366 610h-331v200h630v-181l-375 -629h385v-200h-675z" />
<glyph unicode="&#x17f;" horiz-adv-x="488" d="M103 0v1010q0 178 31 249t103 113.5t200 42.5q33 0 125 -6v-220l-85 2q-64 0 -84 -31t-20 -150v-1010h-270z" />
<glyph unicode="&#x192;" d="M120 -286l35 223q41 -5 63 -5q64 0 87 34.5t40 153.5l90 643h-144l31 221h144q42 272 126 343t213 71q62 0 157 -22l-32 -222q-47 18 -86 18q-53 0 -77.5 -38t-36.5 -150h175l-33 -221h-174l-95 -674q-32 -229 -125.5 -309t-238.5 -80q-59 0 -119 14z" />
<glyph unicode="&#x1fa;" d="M-40 0l408 1361q-43 53 -43 125q0 84 59 141.5t140 57.5q80 0 139 -57.5t59 -141.5q0 -76 -47 -130l387 -1356h-307l-68 282h-384l-67 -282h-276zM284 1830l422 222l67 -195l-428 -133zM360 516h270l-137 557zM445 1485q0 -39 26 -61t53 -22q29 0 54 23t25 60 q0 39 -25 62t-54 23q-31 0 -55 -24t-24 -61z" />
<glyph unicode="&#x1fb;" horiz-adv-x="977" d="M73 255q0 169 112 261.5t408 110.5v38q0 101 -20.5 140t-79.5 39q-108 0 -119 -155l-267 26q19 152 129.5 234t278.5 82q142 0 228 -54.5t108.5 -126.5t22.5 -223v-403q0 -188 17 -224h-261q-14 41 -14 155q-93 -176 -277 -176q-118 0 -192 70.5t-74 205.5zM291 1571 l341 314l112 -167l-369 -231zM320 1301q0 83 58 139t135 56t135 -55.5t58 -139.5q0 -86 -60.5 -139t-132.5 -53t-132.5 53.5t-60.5 138.5zM365 292q0 -128 94 -128q51 0 92.5 57.5t41.5 211.5v50q-123 -14 -175.5 -54.5t-52.5 -136.5zM436 1302q0 -36 24.5 -58.5t52.5 -22.5 q29 0 53 22.5t24 58.5q0 35 -23.5 58.5t-53.5 23.5t-53.5 -23.5t-23.5 -58.5z" />
<glyph unicode="&#x1fc;" horiz-adv-x="1396" d="M-82 0l536 1365h924v-234h-505v-317h398v-235h-398v-335h505v-244h-793v316h-298l-110 -316h-259zM363 537h229v628zM717 1554l341 314l112 -167l-369 -231z" />
<glyph unicode="&#x1fd;" horiz-adv-x="1430" d="M73 263q0 86 39.5 167t133.5 129t327 69q2 47 2 66q0 97 -32.5 123.5t-74.5 26.5q-114 0 -125 -163l-245 28q51 322 385 322q176 0 242 -104q97 103 250 103q144 0 232 -71.5t125.5 -185t37.5 -315.5h-523q-1 -30 -1 -46q0 -238 134 -238q121 0 139 169l242 -17 q-60 -347 -380 -347q-210 0 -290 172q-107 -172 -325 -172q-139 0 -216 78t-77 206zM354 297q0 -132 94 -132q126 0 126 239q0 27 -1 79q-141 -18 -180 -65t-39 -121zM545 1203l341 314l112 -167l-369 -231zM846 621h260q-3 223 -129 223q-121 0 -131 -223z" />
<glyph unicode="&#x1fe;" horiz-adv-x="1151" d="M80 683q0 703 495 703q141 0 246 -61l62 119h157l-110 -217q141 -173 141 -544q0 -704 -496 -704q-124 0 -238 55l-62 -118h-157l107 215q-145 181 -145 552zM344 1554l341 314l112 -167l-369 -231zM368 683q0 -157 15 -248l315 672q-50 52 -123 52q-99 0 -153 -89.5 t-54 -386.5zM457 244q48 -40 127 -40q108 0 153.5 111.5t45.5 411.5q0 96 -14 193z" />
<glyph unicode="&#x1ff;" horiz-adv-x="942" d="M61 505q0 525 411 525q107 0 190 -35l60 120h134l-97 -193q123 -135 123 -417q0 -526 -410 -526q-100 0 -180 31l-64 -127h-133l98 195q-132 137 -132 427zM281 1206l341 314l112 -167l-369 -231zM312 505q0 -98 10 -201l242 521q-45 23 -89 23q-96 0 -129.5 -75.5 t-33.5 -267.5zM391 176q35 -14 81 -14q98 0 128.5 81.5t30.5 261.5q0 77 -7 176z" />
<glyph unicode="&#x2c6;" horiz-adv-x="942" d="M70 1132l401 313l401 -313h-218l-183 118l-183 -118h-218z" />
<glyph unicode="&#x2c7;" horiz-adv-x="942" d="M70 1426h218l183 -119l183 119h218l-401 -313z" />
<glyph unicode="&#x2c9;" horiz-adv-x="942" d="M190 1196v147h562v-147h-562z" />
<glyph unicode="&#x2d8;" horiz-adv-x="942" d="M140 1401h161q42 -105 170 -105q127 0 170 105h161q-71 -251 -331 -251q-258 0 -331 251z" />
<glyph unicode="&#x2d9;" horiz-adv-x="942" d="M344 1269q0 52 37.5 88.5t89.5 36.5q53 0 90.5 -37t37.5 -88q0 -53 -38.5 -88.5t-88.5 -35.5q-51 0 -89.5 35.5t-38.5 88.5z" />
<glyph unicode="&#x2da;" horiz-adv-x="942" d="M278 1301q0 83 58 139t135 56t135 -55.5t58 -139.5q0 -86 -60.5 -139t-132.5 -53t-132.5 53.5t-60.5 138.5zM394 1302q0 -36 24.5 -58.5t52.5 -22.5q29 0 53 22.5t24 58.5q0 35 -23.5 58.5t-53.5 23.5t-53.5 -23.5t-23.5 -58.5z" />
<glyph unicode="&#x2db;" horiz-adv-x="942" d="M380 -192q0 111 141 192h107q-91 -85 -91 -160q0 -107 131 -107q46 0 66 4l21 -94q-63 -16 -117 -16q-133 0 -195.5 52t-62.5 129z" />
<glyph unicode="&#x2dc;" horiz-adv-x="942" d="M142 1244q111 143 219 143q50 0 132 -35q90 -39 122 -39q45 0 96 72l89 -66q-102 -153 -229 -153q-48 0 -126 35q-88 39 -122 39q-39 0 -95 -63z" />
<glyph unicode="&#x2dd;" horiz-adv-x="942" d="M259 1194l248 275l114 -124l-286 -227zM572 1193l248 276l114 -124l-286 -227z" />
<glyph unicode="&#x384;" horiz-adv-x="1045" d="M-221 1089l261 399l177 -118l-322 -354z" />
<glyph unicode="&#x385;" horiz-adv-x="1017" d="M225 1276q0 45 33.5 76.5t80.5 31.5q48 0 81 -31.5t33 -77.5q0 -47 -36 -76.5t-78 -29.5t-78 29.5t-36 77.5zM407 1499l282 253l97 -136l-319 -201zM563 1276q0 45 33.5 76.5t80.5 31.5q46 0 80 -31.5t34 -77.5q0 -47 -36.5 -76.5t-77.5 -29.5q-40 0 -77 28.5t-37 78.5z " />
<glyph unicode="&#x386;" horiz-adv-x="1054" d="M-164 1084l261 399l177 -118l-322 -354zM-33 0l410 1365h302l390 -1365h-307l-68 282h-384l-67 -282h-276zM367 516h270l-137 557z" />
<glyph unicode="&#x387;" horiz-adv-x="523" d="M122 375v302h279v-303z" />
<glyph unicode="&#x388;" horiz-adv-x="1020" d="M-433 1089l261 399l177 -118l-322 -354zM139 0v1365h830v-234h-530v-317h412v-235h-412v-335h530v-244h-830z" />
<glyph unicode="&#x389;" horiz-adv-x="1194" d="M-390 1084l261 399l177 -118l-322 -354zM137 0v1365h300v-551h328v551h300v-1365h-300v558h-328v-558h-300z" />
<glyph unicode="&#x38a;" horiz-adv-x="565" d="M-391 1084l261 399l177 -118l-322 -354zM136 0v1365h300v-1365h-300z" />
<glyph unicode="&#x38c;" horiz-adv-x="1169" d="M-241 1084l261 399l177 -118l-322 -354zM110 683q0 703 495 703q242 0 369 -176t127 -527q0 -704 -495 -704q-246 0 -371 179.5t-125 524.5zM426 683q0 -270 42.5 -365t136.5 -95q93 0 136.5 91t43.5 369q0 276 -43 367.5t-137 91.5q-93 0 -136 -92t-43 -367z" />
<glyph unicode="&#x38e;" horiz-adv-x="936" d="M-541 1084l261 399l177 -118l-322 -354zM-28 1365h330l193 -498l206 498h293l-379 -788v-577h-300v577z" />
<glyph unicode="&#x38f;" horiz-adv-x="1199" d="M-246 1084l261 399l177 -118l-322 -354zM53 0v249h233q-214 166 -214 507q0 305 147.5 469t389.5 164q244 0 391 -165.5t147 -458.5q0 -350 -215 -516h233v-249h-527v241q82 38 111 111t37 200t8 185q0 407 -185 407q-188 0 -188 -395q0 -81 9 -205.5t37.5 -192.5 t112.5 -110v-241h-527z" />
<glyph unicode="&#x390;" horiz-adv-x="488" d="M-35 1265q0 45 33.5 76.5t80.5 31.5q48 0 81 -31.5t33 -77.5q0 -47 -36 -76.5t-78 -29.5t-78 29.5t-36 77.5zM103 0v1010h282v-1010h-282zM147 1488l282 253l97 -136l-319 -201zM303 1265q0 45 33.5 76.5t80.5 31.5q46 0 80 -31.5t34 -77.5q0 -47 -36.5 -76.5 t-77.5 -29.5q-40 0 -77 28.5t-37 78.5z" />
<glyph unicode="&#x391;" d="M-40 0l410 1365h302l390 -1365h-307l-68 282h-384l-67 -282h-276zM360 516h270l-137 557z" />
<glyph unicode="&#x392;" horiz-adv-x="1140" d="M129 0v1365h466q164 0 247.5 -26t140 -114t56.5 -219q0 -229 -195 -294q232 -82 232 -335q0 -133 -63 -224.5t-155.5 -122t-262.5 -30.5h-466zM417 235h147q207 0 207 178q0 99 -51.5 139.5t-155.5 40.5h-147v-358zM417 814h97q145 0 182.5 52t37.5 119q0 62 -37.5 110.5 t-160.5 48.5h-119v-330z" />
<glyph unicode="&#x393;" horiz-adv-x="959" d="M129 0v1365h830v-248h-530v-1117h-300z" />
<glyph unicode="&#x394;" horiz-adv-x="1040" d="M-30 0l375 1365h337l390 -1365h-1102zM308 256h401l-206 817z" />
<glyph unicode="&#x395;" horiz-adv-x="1011" d="M129 0v1365h830v-234h-530v-317h412v-235h-412v-335h530v-244h-830z" />
<glyph unicode="&#x396;" horiz-adv-x="942" d="M2 0v209l575 912h-533v244h877v-213l-571 -908h589v-244h-937z" />
<glyph unicode="&#x397;" horiz-adv-x="1186" d="M129 0v1365h300v-551h328v551h300v-1365h-300v558h-328v-558h-300z" />
<glyph unicode="&#x398;" horiz-adv-x="1166" d="M68 670q0 716 515 716q240 0 377.5 -169.5t137.5 -520.5q0 -717 -515 -717q-240 0 -377.5 169.5t-137.5 521.5zM397 683q0 -277 45 -368.5t141 -91.5t141.5 90.5t45.5 369.5q0 277 -45 368t-142 91t-141.5 -91.5t-44.5 -367.5zM447 576v235h272v-235h-272z" />
<glyph unicode="&#x399;" horiz-adv-x="558" d="M129 0v1365h300v-1365h-300z" />
<glyph unicode="&#x39a;" horiz-adv-x="1116" d="M129 0v1365h300v-569l332 569h303l-342 -502l371 -863h-310l-240 629l-114 -165v-464h-300z" />
<glyph unicode="&#x39b;" horiz-adv-x="1049" d="M-32 0l375 1365h337l390 -1365h-298l-271 1073l-256 -1073h-277z" />
<glyph unicode="&#x39c;" horiz-adv-x="1535" d="M129 0v1365h440l193 -843l217 843h427v-1365h-281v1143l-279 -1143h-218l-255 1143v-1143h-244z" />
<glyph unicode="&#x39d;" horiz-adv-x="1151" d="M118 0v1365h333l351 -848v848h232v-1365h-268l-416 988v-988h-232z" />
<glyph unicode="&#x39e;" horiz-adv-x="923" d="M65 -1v251h793v-251h-793zM65 1114v251h793v-251h-793zM190 570v252h544v-252h-544z" />
<glyph unicode="&#x39f;" horiz-adv-x="1151" d="M80 683q0 703 495 703q242 0 369 -176t127 -527q0 -704 -495 -704q-246 0 -371 179.5t-125 524.5zM396 683q0 -270 42.5 -365t136.5 -95q93 0 136.5 91t43.5 369q0 276 -43 367.5t-137 91.5q-93 0 -136 -92t-43 -367z" />
<glyph unicode="&#x3a0;" horiz-adv-x="1186" d="M129 0v1365h928v-1365h-300v1109h-328v-1109h-300z" />
<glyph unicode="&#x3a1;" d="M129 0v1365h393q179 0 277.5 -30t165.5 -135.5t67 -261.5q0 -150 -54 -248t-149.5 -141.5t-293.5 -43.5h-106v-505h-300zM429 740h93q123 0 158.5 57t35.5 148q0 77 -27.5 124.5t-64 61t-102.5 13.5h-93v-404z" />
<glyph unicode="&#x3a3;" horiz-adv-x="915" d="M58 0v244l286 491l-286 396v234h796v-234h-496l271 -376l-298 -511h557v-244h-830z" />
<glyph unicode="&#x3a4;" horiz-adv-x="802" d="M-24 1109v256h851v-256h-279v-1109h-300v1109h-272z" />
<glyph unicode="&#x3a5;" horiz-adv-x="907" d="M-58 1365h330l193 -498l206 498h293l-379 -788v-577h-300v577z" />
<glyph unicode="&#x3a6;" horiz-adv-x="1332" d="M71 684q0 223 117.5 371.5t348.5 186.5v164h258v-165q223 -31 344.5 -180t121.5 -377q0 -472 -466 -556v-168h-258v166q-253 41 -359.5 194t-106.5 364zM361 675q0 -250 176 -318v653q-176 -66 -176 -335zM795 357q176 66 176 336q0 249 -176 317v-653z" />
<glyph unicode="&#x3a7;" horiz-adv-x="977" d="M-31 0l375 700l-334 665h334l163 -355l172 355h287l-322 -617l364 -748h-329l-199 446l-224 -446h-287z" />
<glyph unicode="&#x3a8;" horiz-adv-x="1454" d="M111 951v414h300v-414q0 -267 29.5 -348t136.5 -110v872h300v-872q106 29 136 109.5t30 348.5v414h300v-414q0 -228 -20 -338t-78 -189t-143 -119t-225 -59v-246h-300v246q-142 19 -229.5 62t-142 119.5t-74.5 188.5t-20 335z" />
<glyph unicode="&#x3a9;" horiz-adv-x="1218" d="M53 0v249h233q-214 166 -214 507q0 305 147.5 469t389.5 164q244 0 391 -165.5t147 -458.5q0 -350 -215 -516h233v-249h-527v241q82 38 111 111t37 200t8 185q0 407 -185 407q-188 0 -188 -395q0 -81 9 -205.5t37.5 -192.5t112.5 -110v-241h-527z" />
<glyph unicode="&#x3aa;" horiz-adv-x="558" d="M-4 1601q0 45 33.5 76.5t80.5 31.5t80.5 -31.5t33.5 -76.5q0 -47 -35.5 -77t-78.5 -30q-41 0 -77.5 29t-36.5 78zM129 0v1365h300v-1365h-300zM334 1601q0 45 33.5 76.5t80.5 31.5q48 0 81 -31.5t33 -76.5q0 -48 -36 -77.5t-78 -29.5q-43 0 -78.5 30t-35.5 77z" />
<glyph unicode="&#x3ab;" horiz-adv-x="907" d="M-58 1365h330l193 -498l206 498h293l-379 -788v-577h-300v577zM171 1601q0 45 33.5 76.5t80.5 31.5t80.5 -31.5t33.5 -76.5q0 -47 -35.5 -77t-78.5 -30q-41 0 -77.5 29t-36.5 78zM509 1601q0 45 33.5 76.5t80.5 31.5q48 0 81 -31.5t33 -76.5q0 -48 -36 -77.5t-78 -29.5 q-43 0 -78.5 30t-35.5 77z" />
<glyph unicode="&#x3ac;" horiz-adv-x="1114" d="M55 506q0 244 113 384.5t291 140.5q186 0 285 -210l53 189h278l-172 -478l195 -532h-290l-74 234q-109 -255 -301 -255q-170 0 -274 156t-104 371zM344 1203l341 314l112 -167l-369 -231zM369 513q0 -159 42 -247t99 -88q52 0 89 69t81 265q-50 198 -86 258.5t-89 60.5 q-56 0 -96 -87t-40 -231z" />
<glyph unicode="&#x3ad;" horiz-adv-x="869" d="M60 295q0 160 161 234q-136 75 -136 215q0 119 92.5 202.5t271.5 83.5q328 0 377 -280l-251 -48q-23 142 -107 142q-93 0 -93 -123q0 -52 20 -76.5t49.5 -29.5t129.5 -5v-191q-106 0 -140.5 -4t-59 -30.5t-24.5 -78.5q0 -68 32 -104t78 -36q102 0 147 155l241 -43 q-73 -193 -169.5 -247t-231.5 -54q-198 0 -292.5 90.5t-94.5 227.5zM315 1203l341 314l112 -167l-369 -231z" />
<glyph unicode="&#x3ae;" horiz-adv-x="986" d="M104 0v1010h282v-138q67 158 246 158q89 0 148.5 -38t83.5 -100t24 -230v-1006h-282v1006q0 134 -16.5 162t-71.5 28q-39 0 -77.5 -38t-46.5 -90t-8 -132v-592h-282zM373 1203l341 314l112 -167l-369 -231z" />
<glyph unicode="&#x3af;" horiz-adv-x="488" d="M85 1203l341 314l112 -167l-369 -231zM103 0v1010h282v-1010h-282z" />
<glyph unicode="&#x3b0;" horiz-adv-x="965" d="M97 426v584h282v-584q0 -151 18.5 -191t84.5 -40q68 0 87 40t19 191v584h281v-584q0 -177 -33.5 -264t-123 -136t-223.5 -49q-140 0 -229 45t-126 131t-37 273zM210 1265q0 45 33.5 76.5t80.5 31.5q48 0 81 -31.5t33 -77.5q0 -47 -36 -76.5t-78 -29.5t-78 29.5t-36 77.5z M392 1488l282 253l97 -136l-319 -201zM548 1265q0 45 33.5 76.5t80.5 31.5q46 0 80 -31.5t34 -77.5q0 -47 -36.5 -76.5t-77.5 -29.5q-40 0 -77 28.5t-37 78.5z" />
<glyph unicode="&#x3b1;" horiz-adv-x="1114" d="M55 506q0 244 113 384.5t291 140.5q186 0 285 -210l53 189h278l-172 -478l195 -532h-290l-74 234q-109 -255 -301 -255q-170 0 -274 156t-104 371zM369 513q0 -159 42 -247t99 -88q52 0 89 69t81 265q-50 198 -86 258.5t-89 60.5q-56 0 -96 -87t-40 -231z" />
<glyph unicode="&#x3b2;" horiz-adv-x="1033" d="M110 -340v1221q0 182 34 286t123.5 162.5t250.5 58.5q193 0 290 -97t97 -237q0 -224 -218 -283q167 -42 229 -142t62 -214q0 -174 -106.5 -305t-272.5 -131q-143 0 -207 102v-421h-282zM392 274q0 -32 16 -53t48.5 -39.5t63.5 -18.5q74 0 117.5 77t43.5 210q0 72 -22 126 t-57 73.5t-100 19.5v169q95 2 124 51.5t29 125.5q0 103 -40 153t-103 50q-67 0 -93.5 -53t-26.5 -245v-646z" />
<glyph unicode="&#x3b3;" horiz-adv-x="787" d="M-24 1010h281l166 -650l165 650h237l-296 -1009v-342h-282v342z" />
<glyph unicode="&#x3b4;" horiz-adv-x="1012" d="M60 478q0 189 111 315.5t263 143.5l-254 240v188h656v-188h-339l117 -104l51 -42q286 -237 286 -554q0 -229 -118 -365.5t-326 -136.5q-205 0 -326 133.5t-121 369.5zM374 467q0 -292 150 -292q151 0 151 298q0 151 -36 219.5t-112 68.5q-153 0 -153 -294z" />
<glyph unicode="&#x3b5;" horiz-adv-x="869" d="M60 295q0 160 161 234q-136 75 -136 215q0 119 92.5 202.5t271.5 83.5q328 0 377 -280l-251 -48q-23 142 -107 142q-93 0 -93 -123q0 -52 20 -76.5t49.5 -29.5t129.5 -5v-191q-106 0 -140.5 -4t-59 -30.5t-24.5 -78.5q0 -68 32 -104t78 -36q102 0 147 155l241 -43 q-73 -193 -169.5 -247t-231.5 -54q-198 0 -292.5 90.5t-94.5 227.5z" />
<glyph unicode="&#x3b6;" horiz-adv-x="716" d="M60 392q0 400 356 755h-322v218h596v-177q-346 -344 -346 -750q0 -124 27.5 -158t126.5 -42q106 -8 158 -57t52 -182q0 -144 -80 -344l-251 27q68 166 68 252q0 36 -17 48.5t-63 13.5q-110 3 -171.5 46.5t-97.5 130t-36 219.5z" />
<glyph unicode="&#x3b7;" horiz-adv-x="986" d="M104 0v1010h282v-138q67 158 246 158q89 0 148.5 -38t83.5 -100t24 -230v-1006h-282v1006q0 134 -16.5 162t-71.5 28q-39 0 -77.5 -38t-46.5 -90t-8 -132v-592h-282z" />
<glyph unicode="&#x3b8;" horiz-adv-x="1012" d="M63 682q0 321 110.5 512.5t332.5 191.5q219 0 331 -189.5t112 -514.5q0 -327 -114 -515t-329 -188q-216 0 -329.5 188t-113.5 515zM332 617q2 -438 175 -438q167 0 172 438h-347zM332 795h347q-12 392 -174 392q-160 0 -173 -392z" />
<glyph unicode="&#x3b9;" horiz-adv-x="488" d="M103 0v1010h282v-1010h-282z" />
<glyph unicode="&#x3ba;" horiz-adv-x="942" d="M104 0v1010h282v-390l284 390h256l-255 -339l280 -671h-304l-158 469l-103 -142v-327h-282z" />
<glyph unicode="&#x3bb;" horiz-adv-x="796" d="M-24 0l284 922l-123 443h282l405 -1365h-287l-149 579l-170 -579h-242z" />
<glyph unicode="&#x3bc;" horiz-adv-x="998" d="M103 -345v1355h282v-534q0 -136 4.5 -179.5t32 -72.5t73.5 -29q54 0 86 44t32 237v534h281v-1010h-273l1 137q-30 -161 -130 -161q-104 0 -124 157v-478h-265z" />
<glyph unicode="&#x3bd;" horiz-adv-x="733" d="M-22 1010h271l139 -597l141 597h234l-277 -1010h-223z" />
<glyph unicode="&#x3be;" horiz-adv-x="816" d="M55 356q0 149 67 230.5t203 134.5q-133 51 -170 102.5t-37 109.5q0 147 200 215h-222v217h682v-217h-125q-77 0 -116.5 -11t-71.5 -53.5t-32 -102.5q0 -168 176 -168h99v-214h-99q-94 0 -139 -14.5t-73 -60t-28 -114.5q0 -87 38 -122.5t130 -49.5q116 -17 164 -33.5 t79 -67t31 -155.5q0 -126 -61 -332l-220 36q32 147 32 199t-31 68t-81 19q-156 8 -232 48t-119.5 127.5t-43.5 208.5z" />
<glyph unicode="&#x3bf;" horiz-adv-x="942" d="M61 505q0 525 411 525q410 0 410 -525q0 -526 -410 -526q-411 0 -411 526zM352 505q0 -185 24 -257t96 -72q69 0 94 71.5t25 257.5q0 193 -26.5 261t-92.5 68q-64 0 -92 -64.5t-28 -264.5z" />
<glyph unicode="&#x3c0;" horiz-adv-x="1109" d="M31 782v228h1047v-228h-102v-782h-282v782h-279v-782h-282v782h-102z" />
<glyph unicode="&#x3c1;" horiz-adv-x="976" d="M91 -342v711q0 229 31.5 366.5t129 216t257.5 78.5q412 0 412 -525q0 -266 -99 -401.5t-259 -135.5q-164 0 -190 107v-417h-282zM391 505q0 -212 30 -270.5t90 -58.5q70 0 95 71.5t25 257.5q0 193 -27 261t-93 68q-64 0 -92 -64.5t-28 -264.5z" />
<glyph unicode="&#x3c2;" horiz-adv-x="884" d="M55 502q0 250 113 390.5t310 140.5q141 0 236 -75.5t141 -278.5l-259 -50q-23 188 -120 188q-54 0 -92.5 -65t-38.5 -211q0 -126 31.5 -189.5t81 -87.5t156.5 -43q122 -22 181 -73.5t59 -163.5q0 -126 -65 -335l-253 52q53 123 53 203q0 40 -17 56.5t-70 20.5 q-213 18 -330 152.5t-117 368.5z" />
<glyph unicode="&#x3c3;" horiz-adv-x="992" d="M55 505q0 525 411 525q83 0 148 -19l358 -1v-200h-191q57 -62 76 -126t19 -187q0 -518 -410 -518q-411 0 -411 526zM346 505q0 -185 24 -257t96 -72q69 0 94 71.5t25 257.5q0 193 -26.5 261t-92.5 68q-64 0 -92 -64.5t-28 -264.5z" />
<glyph unicode="&#x3c4;" horiz-adv-x="747" d="M-7 786v224h762v-224h-244v-786h-281v786h-237z" />
<glyph unicode="&#x3c5;" horiz-adv-x="965" d="M97 426v584h282v-584q0 -151 18.5 -191t84.5 -40q68 0 87 40t19 191v584h281v-584q0 -177 -33.5 -264t-123 -136t-223.5 -49q-140 0 -229 45t-126 131t-37 273z" />
<glyph unicode="&#x3c6;" horiz-adv-x="1273" d="M60 503q0 351 281 480l78 -234q-74 -90 -74 -250q0 -261 160 -319v843q66 8 128 8q199 0 318 -59.5t191 -186.5t72 -287q0 -200 -112.5 -351t-340.5 -171v-317h-256v317q-205 13 -325 155.5t-120 371.5zM761 178q162 56 162 328q0 279 -162 331v-659z" />
<glyph unicode="&#x3c7;" horiz-adv-x="844" d="M-46 -337l327 706l-269 641h269l162 -383l193 383h239l-294 -671l295 -676h-269l-190 470l-225 -470h-238z" />
<glyph unicode="&#x3c8;" horiz-adv-x="1293" d="M98 484v526h282v-526q0 -154 23 -211t102 -69v806h282v-806q81 12 103.5 70.5t22.5 209.5v526h281v-526q0 -180 -37.5 -278t-132 -154t-237.5 -68v-325h-282v325q-138 9 -229 63.5t-134.5 143.5t-43.5 293z" />
<glyph unicode="&#x3c9;" horiz-adv-x="1263" d="M55 458q0 201 56.5 337t152.5 248l213 -113q-132 -187 -132 -469q0 -267 94 -267q42 0 53.5 63.5t11.5 196.5v302h256v-302q0 -126 11.5 -193t53.5 -67q94 0 94 267q0 281 -130 467l212 113q147 -195 177.5 -319.5t30.5 -256.5q0 -233 -95.5 -360.5t-269.5 -127.5 q-146 0 -212 106q-66 -106 -212 -106q-179 0 -272 131t-93 350z" />
<glyph unicode="&#x3ca;" horiz-adv-x="488" d="M-39 1269q0 45 33.5 76.5t80.5 31.5t80.5 -31.5t33.5 -76.5q0 -47 -35.5 -77t-78.5 -30q-41 0 -77.5 29t-36.5 78zM103 0v1010h282v-1010h-282zM299 1269q0 45 33.5 76.5t80.5 31.5q48 0 81 -31.5t33 -76.5q0 -48 -36 -77.5t-78 -29.5q-43 0 -78.5 30t-35.5 77z" />
<glyph unicode="&#x3cb;" horiz-adv-x="965" d="M97 426v584h282v-584q0 -151 18.5 -191t84.5 -40q68 0 87 40t19 191v584h281v-584q0 -177 -33.5 -264t-123 -136t-223.5 -49q-140 0 -229 45t-126 131t-37 273zM209 1269q0 45 33.5 76.5t80.5 31.5t80.5 -31.5t33.5 -76.5q0 -47 -35.5 -77t-78.5 -30q-41 0 -77.5 29 t-36.5 78zM547 1269q0 45 33.5 76.5t80.5 31.5q48 0 81 -31.5t33 -76.5q0 -48 -36 -77.5t-78 -29.5q-43 0 -78.5 30t-35.5 77z" />
<glyph unicode="&#x3cc;" horiz-adv-x="942" d="M61 505q0 525 411 525q410 0 410 -525q0 -526 -410 -526q-411 0 -411 526zM325 1203l341 314l112 -167l-369 -231zM352 505q0 -185 24 -257t96 -72q69 0 94 71.5t25 257.5q0 193 -26.5 261t-92.5 68q-64 0 -92 -64.5t-28 -264.5z" />
<glyph unicode="&#x3cd;" horiz-adv-x="965" d="M97 426v584h282v-584q0 -151 18.5 -191t84.5 -40q68 0 87 40t19 191v584h281v-584q0 -177 -33.5 -264t-123 -136t-223.5 -49q-140 0 -229 45t-126 131t-37 273zM338 1203l341 314l112 -167l-369 -231z" />
<glyph unicode="&#x3ce;" horiz-adv-x="1263" d="M55 458q0 201 56.5 337t152.5 248l213 -113q-132 -187 -132 -469q0 -267 94 -267q42 0 53.5 63.5t11.5 196.5v302h256v-302q0 -126 11.5 -193t53.5 -67q94 0 94 267q0 281 -130 467l212 113q147 -195 177.5 -319.5t30.5 -256.5q0 -233 -95.5 -360.5t-269.5 -127.5 q-146 0 -212 106q-66 -106 -212 -106q-179 0 -272 131t-93 350zM521 1203l341 314l112 -167l-369 -231z" />
<glyph unicode="&#x401;" horiz-adv-x="977" d="M129 0v1365h830v-234h-530v-317h412v-235h-412v-335h530v-244h-830zM260 1601q0 45 33.5 76.5t80.5 31.5t80.5 -31.5t33.5 -76.5q0 -47 -35.5 -77t-78.5 -30q-41 0 -77.5 29t-36.5 78zM598 1601q0 45 33.5 76.5t80.5 31.5q48 0 81 -31.5t33 -76.5q0 -48 -36 -77.5 t-78 -29.5q-43 0 -78.5 30t-35.5 77z" />
<glyph unicode="&#x402;" horiz-adv-x="1038" d="M-17 1131v234h851v-234h-369v-211q75 130 244 130q100 0 158.5 -48t74.5 -123.5t16 -218.5l-1 -660q0 -345 -297 -345q-64 0 -163 20v235q73 -18 119 -18q38 0 49 23.5t11 84.5v660q0 100 -17 133.5t-77 33.5q-66 0 -91.5 -41t-25.5 -134v-652h-300v1131h-182z" />
<glyph unicode="&#x403;" horiz-adv-x="959" d="M129 0v1365h830v-248h-530v-1117h-300zM299 1554l341 314l112 -167l-369 -231z" />
<glyph unicode="&#x404;" horiz-adv-x="1144" d="M68 676q0 335 135 524t400 189q236 0 361.5 -112t148.5 -264l-294 -65q-38 195 -212 195q-205 0 -235 -323h402v-229h-406q25 -369 235 -369q199 0 249 245l266 -59q-58 -432 -515 -432q-276 0 -405.5 195t-129.5 505z" />
<glyph unicode="&#x405;" d="M33 354l262 75q48 -206 219 -206q78 0 126.5 40.5t48.5 106.5q0 50 -34 89.5t-156 83.5q-157 56 -234 101.5t-127 130t-50 192.5q0 184 118.5 301.5t313.5 117.5q356 0 444 -318l-248 -95q-53 169 -194 169q-66 0 -104.5 -37.5t-38.5 -87.5q0 -58 45.5 -92.5t190.5 -90.5 q132 -49 207.5 -97t122 -130.5t46.5 -191.5q0 -191 -131.5 -313.5t-352.5 -122.5q-371 0 -474 375z" />
<glyph unicode="&#x406;" horiz-adv-x="558" d="M129 0v1365h300v-1365h-300z" />
<glyph unicode="&#x407;" horiz-adv-x="558" d="M-4 1601q0 45 33.5 76.5t80.5 31.5t80.5 -31.5t33.5 -76.5q0 -47 -35.5 -77t-78.5 -30q-41 0 -77.5 29t-36.5 78zM129 0v1365h300v-1365h-300zM334 1601q0 45 33.5 76.5t80.5 31.5q48 0 81 -31.5t33 -76.5q0 -48 -36 -77.5t-78 -29.5q-43 0 -78.5 30t-35.5 77z" />
<glyph unicode="&#x408;" horiz-adv-x="663" d="M-10 0v251q72 -14 121 -14q79 0 104.5 42.5t25.5 179.5v906h300v-906q0 -173 -25.5 -269.5t-105.5 -153.5t-237 -57q-68 0 -183 21z" />
<glyph unicode="&#x409;" horiz-adv-x="1582" d="M-32 0l375 1365h337l144 -504h229q177 0 281.5 -41.5t160 -140t55.5 -253.5q0 -142 -55.5 -241t-145 -142t-279.5 -43h-298l-271 1073l-256 -1073h-277zM891 626l116 -405h33q67 0 104 14t63 61.5t26 123.5q0 92 -35 149t-158 57h-149z" />
<glyph unicode="&#x40a;" horiz-adv-x="1694" d="M129 0v1365h300v-561h330v561h300v-504h106q178 0 282 -42t159.5 -140.5t55.5 -253.5q0 -143 -57.5 -243t-147.5 -141t-305 -41h-393v569h-330v-569h-300zM1059 235h93q66 0 102.5 13t63.5 59t27 121q0 88 -35.5 143t-157.5 55h-93v-391z" />
<glyph unicode="&#x40b;" horiz-adv-x="1066" d="M-17 1131v234h851v-234h-369v-211q75 130 244 130q100 0 158.5 -48t74.5 -123.5t16 -218.5l-1 -660h-281v660q0 100 -17 133.5t-77 33.5q-66 0 -91.5 -41t-25.5 -134v-652h-300v1131h-182z" />
<glyph unicode="&#x40c;" horiz-adv-x="1081" d="M129 0v1365h300v-569l332 569h303l-342 -502l371 -863h-310l-240 629l-114 -165v-464h-300zM413 1554l341 314l112 -167l-369 -231z" />
<glyph unicode="&#x40e;" horiz-adv-x="934" d="M-41 1365h306l235 -596l204 596h278l-365 -1026q-71 -201 -151.5 -270t-223.5 -69h-127v253h127q30 0 60.5 19.5t68.5 135.5zM179 1733h161q42 -105 170 -105q127 0 170 105h161q-71 -251 -331 -251q-258 0 -331 251z" />
<glyph unicode="&#x40f;" horiz-adv-x="1186" d="M129 0v1365h300v-1109h328v1109h300v-1365h-357l-21 -290l-179 3l-17 287h-354z" />
<glyph unicode="&#x410;" d="M-40 0l410 1365h302l390 -1365h-307l-68 282h-384l-67 -282h-276zM360 516h270l-137 557z" />
<glyph unicode="&#x411;" horiz-adv-x="1093" d="M129 0v1365h776v-234h-476v-270h105q281 0 389.5 -112t108.5 -325q0 -163 -72.5 -266.5t-169.5 -130.5t-268 -27h-393zM429 235h93q100 0 146.5 43t46.5 148q0 91 -36 145.5t-157 54.5h-93v-391z" />
<glyph unicode="&#x412;" horiz-adv-x="1151" d="M129 0v1365h466q164 0 247.5 -26t140 -114t56.5 -219q0 -229 -195 -294q232 -82 232 -335q0 -133 -63 -224.5t-155.5 -122t-262.5 -30.5h-466zM417 235h147q207 0 207 178q0 99 -51.5 139.5t-155.5 40.5h-147v-358zM417 814h97q145 0 182.5 52t37.5 119q0 62 -37.5 110.5 t-160.5 48.5h-119v-330z" />
<glyph unicode="&#x413;" horiz-adv-x="959" d="M129 0v1365h830v-234h-530v-1131h-300z" />
<glyph unicode="&#x414;" horiz-adv-x="1061" d="M-30 249h86l297 1116h385l269 -1116h85v-526h-222l-27 277h-625l-26 -277h-222v526zM329 249h374l-164 828h-38z" />
<glyph unicode="&#x415;" horiz-adv-x="977" d="M129 0v1365h830v-234h-530v-317h412v-235h-412v-335h530v-244h-830z" />
<glyph unicode="&#x416;" horiz-adv-x="1469" d="M-30 0l404 710l-375 655h314l262 -499l21 -5v504h300v-504l11 5l272 499h291l-352 -588l431 -777h-317l-323 595l-13 -9v-586h-300v586l-10 9l-327 -595h-289z" />
<glyph unicode="&#x417;" horiz-adv-x="1013" d="M23 425l265 43q30 -166 76.5 -205.5t116.5 -39.5q80 0 120.5 52t40.5 133q0 190 -210 190h-45v220h45q66 0 104 12t64 52t26 106q0 166 -140 166q-48 0 -94.5 -27.5t-69.5 -175.5l-261 49q55 237 171 311.5t288 74.5q187 0 295.5 -96t108.5 -272q0 -214 -203 -302 q230 -69 230 -327q0 -192 -121 -301.5t-363 -109.5q-234 0 -318.5 123t-125.5 324z" />
<glyph unicode="&#x418;" horiz-adv-x="1208" d="M129 0v1365h300v-766l45 83l305 532v151h300v-1365h-300v707l1 54l-48 -90l-303 -531v-140h-300z" />
<glyph unicode="&#x419;" horiz-adv-x="1208" d="M129 0v1365h300v-766l45 83l305 532v151h300v-1365h-300v707l1 54l-48 -90l-303 -531v-140h-300zM289 1733h161q42 -105 170 -105q127 0 170 105h161q-71 -251 -331 -251q-258 0 -331 251z" />
<glyph unicode="&#x41a;" horiz-adv-x="1081" d="M129 0v1365h300v-569l332 569h303l-342 -502l371 -863h-310l-240 629l-114 -165v-464h-300z" />
<glyph unicode="&#x41b;" horiz-adv-x="1049" d="M-32 0l375 1365h337l390 -1365h-298l-271 1073l-256 -1073h-277z" />
<glyph unicode="&#x41c;" horiz-adv-x="1535" d="M129 0v1365h440l193 -843l217 843h427v-1365h-281v1143l-279 -1143h-218l-255 1143v-1143h-244z" />
<glyph unicode="&#x41d;" horiz-adv-x="1186" d="M129 0v1365h300v-551h328v551h300v-1365h-300v558h-328v-558h-300z" />
<glyph unicode="&#x41e;" horiz-adv-x="1151" d="M80 683q0 703 495 703q242 0 369 -176t127 -527q0 -704 -495 -704q-246 0 -371 179.5t-125 524.5zM396 683q0 -270 42.5 -365t136.5 -95q93 0 136.5 91t43.5 369q0 276 -43 367.5t-137 91.5q-93 0 -136 -92t-43 -367z" />
<glyph unicode="&#x41f;" horiz-adv-x="1186" d="M129 0v1365h928v-1365h-300v1109h-328v-1109h-300z" />
<glyph unicode="&#x420;" d="M129 0v1365h393q179 0 277.5 -30t165.5 -135.5t67 -261.5q0 -150 -54 -248t-149.5 -141.5t-293.5 -43.5h-106v-505h-300zM429 740h93q123 0 158.5 57t35.5 148q0 77 -27.5 124.5t-64 61t-102.5 13.5h-93v-404z" />
<glyph unicode="&#x421;" horiz-adv-x="1117" d="M80 681q0 331 131 518t389 187q427 0 465 -528l-274 -20q-11 304 -190 304q-94 0 -149.5 -98t-55.5 -380q0 -252 51 -346.5t153 -94.5q164 0 193 274l277 -17q-15 -222 -141 -361.5t-333 -139.5q-252 0 -384 187t-132 515z" />
<glyph unicode="&#x422;" horiz-adv-x="802" d="M-24 1109v256h851v-256h-279v-1109h-300v1109h-272z" />
<glyph unicode="&#x423;" horiz-adv-x="934" d="M-41 1365h306l235 -596l204 596h278l-365 -1026q-71 -201 -151.5 -270t-223.5 -69h-127v253h127q30 0 60.5 19.5t68.5 135.5z" />
<glyph unicode="&#x424;" horiz-adv-x="1330" d="M71 684q0 223 117.5 371.5t348.5 186.5v164h256v-165q167 -23 274 -111t149.5 -204.5t42.5 -241.5q0 -472 -466 -556v-168h-256v166q-253 41 -359.5 194t-106.5 364zM361 675q0 -250 176 -318v653q-176 -66 -176 -335zM793 357q176 67 176 336q0 249 -176 317v-653z" />
<glyph unicode="&#x425;" horiz-adv-x="977" d="M-31 0l375 700l-334 665h334l163 -355l172 355h287l-322 -617l364 -748h-329l-199 446l-224 -446h-287z" />
<glyph unicode="&#x426;" horiz-adv-x="1263" d="M139 0v1365h300v-1109h328v1109h300v-1109h204v-533h-222l-27 277h-883z" />
<glyph unicode="&#x427;" horiz-adv-x="1124" d="M101 879v486h300v-497q0 -111 25 -156t90 -45q96 0 179 96v602h300v-1365h-300v500q-101 -78 -232 -78q-112 0 -196.5 53.5t-125 145t-40.5 258.5z" />
<glyph unicode="&#x428;" horiz-adv-x="1677" d="M139 0v1365h300v-1109h250v1109h300v-1109h250v1109h299v-1365h-1399z" />
<glyph unicode="&#x429;" horiz-adv-x="1722" d="M129 0v1365h300v-1109h250v1109h300v-1109h250v1109h299v-1109h205v-533h-222l-27 277h-1355z" />
<glyph unicode="&#x42a;" horiz-adv-x="1206" d="M-52 1093v272h620v-504h106q281 0 389 -112.5t108 -325.5q0 -162 -72.5 -265.5t-169.5 -130.5t-268 -27h-393v1093h-320zM568 221h93q65 0 102 13.5t64.5 60.5t27.5 125q0 93 -36 149.5t-158 56.5h-93v-405z" />
<glyph unicode="&#x42b;" horiz-adv-x="1605" d="M129 0v1365h300v-504h106q280 0 388.5 -112t108.5 -325q0 -163 -72.5 -266.5t-169.5 -130.5t-268 -27h-393zM429 221h93q66 0 103 14t64 61.5t27 123.5q0 92 -35.5 149t-158.5 57h-93v-405zM1176 0v1365h300v-1365h-300z" />
<glyph unicode="&#x42c;" horiz-adv-x="1067" d="M129 0v1365h300v-504h106q280 0 388.5 -112t108.5 -325q0 -163 -72.5 -266.5t-169.5 -130.5t-268 -27h-393zM429 221h93q66 0 103 14t64 61.5t27 123.5q0 92 -35.5 149t-158.5 57h-93v-405z" />
<glyph unicode="&#x42d;" horiz-adv-x="1144" d="M27 408l266 59q49 -245 249 -245q210 0 235 369h-406v229h401q-29 323 -235 323q-173 0 -211 -195l-294 65q22 152 148 264t362 112q265 0 400 -189t135 -524q0 -197 -56 -358t-172.5 -251.5t-307.5 -90.5q-456 0 -514 432z" />
<glyph unicode="&#x42e;" horiz-adv-x="1650" d="M129 0v1365h300v-551h164q58 572 494 572q247 0 371 -180.5t124 -522.5q0 -704 -495 -704q-440 0 -494 579h-164v-558h-300zM908 683q0 -276 43 -368t136 -92q92 0 135.5 90t43.5 370q0 277 -43 368t-136 91q-94 0 -136.5 -92t-42.5 -367z" />
<glyph unicode="&#x42f;" horiz-adv-x="1116" d="M28 0l251 597q-192 104 -192 360q0 109 38.5 196.5t106.5 138t134.5 62t191.5 11.5h429v-1365h-300v540h-150l-182 -540h-327zM379 958q0 -197 176 -197h132v383h-120q-67 0 -101.5 -15.5t-60.5 -59t-26 -111.5z" />
<glyph unicode="&#x430;" horiz-adv-x="977" d="M73 255q0 169 112 261.5t408 110.5v38q0 101 -20.5 140t-79.5 39q-108 0 -119 -155l-267 26q19 152 129.5 234t278.5 82q142 0 228 -54.5t108.5 -126.5t22.5 -223v-403q0 -188 17 -224h-261q-14 41 -14 155q-93 -176 -277 -176q-118 0 -192 70.5t-74 205.5zM365 292 q0 -128 94 -128q51 0 92.5 57.5t41.5 211.5v50q-123 -14 -175.5 -54.5t-52.5 -136.5z" />
<glyph unicode="&#x431;" horiz-adv-x="985" d="M60 555q0 353 96.5 556t283.5 240q88 17 111.5 34.5t26.5 64.5h257q0 -74 -30 -117t-96 -78t-168 -61q-72 -19 -101.5 -35t-53.5 -54.5t-45 -115.5q79 63 196 63q176 0 282 -142t106 -393q0 -257 -113.5 -399t-321.5 -142q-430 0 -430 579zM334 506q0 -311 154 -311 q147 0 147 311q0 327 -149 327q-152 0 -152 -327z" />
<glyph unicode="&#x432;" horiz-adv-x="995" d="M104 0v1010h512q95 0 151.5 -20.5t101 -84.5t44.5 -152q0 -139 -126 -214q156 -75 156 -243q0 -130 -76 -213t-211 -83h-552zM404 218h168q58 0 78 28t20 85q0 55 -21 84.5t-77 29.5h-168v-227zM404 618h154q49 0 71 21.5t22 78.5q0 42 -14 75t-79 33h-154v-208z" />
<glyph unicode="&#x433;" horiz-adv-x="684" d="M104 0v1010h573v-219h-291v-791h-282z" />
<glyph unicode="&#x434;" horiz-adv-x="879" d="M-19 218h83l203 792h366l182 -792h82v-443h-204l-24 224h-459l-25 -224h-204v443zM275 218h258l-106 521h-18z" />
<glyph unicode="&#x435;" horiz-adv-x="942" d="M60 490q0 263 113.5 401.5t304.5 138.5q172 0 287.5 -122.5t115.5 -449.5h-530v-56q0 -136 37 -182t97 -46q129 0 145 173l251 -16q-67 -352 -401 -352q-206 0 -313 139t-107 372zM353 621h262q1 18 1 28q0 195 -132 195q-130 0 -131 -223z" />
<glyph unicode="&#x436;" horiz-adv-x="1220" d="M-28 0l309 543l-280 467h285l172 -325l29 -14v339h265v-339l24 15l177 324h276l-266 -403l314 -607h-291l-228 436l-6 -2v-434h-265v433l-7 3l-236 -436h-272z" />
<glyph unicode="&#x437;" horiz-adv-x="865" d="M22 278l241 43q44 -155 147 -155q46 0 77.5 36t31.5 104q0 52 -24 78.5t-58.5 30.5t-141.5 4v191q101 0 130 5t49 29.5t20 76.5q0 123 -92 123q-84 0 -108 -142l-251 48q50 280 377 280q180 0 272 -83.5t92 -202.5q0 -140 -135 -215q161 -74 161 -234 q0 -127 -89.5 -222.5t-297.5 -95.5q-135 0 -232 54t-169 247z" />
<glyph unicode="&#x438;" horiz-adv-x="998" d="M104 0v1010h282l-1 -485l228 355v130h282v-1010h-282v471l-46 -76l-181 -274v-121h-282z" />
<glyph unicode="&#x439;" horiz-adv-x="998" d="M104 0v1010h282l-1 -485l228 355v130h282v-1010h-282v471l-46 -76l-181 -274v-121h-282zM177 1383h161q42 -105 170 -105q127 0 170 105h161q-71 -251 -331 -251q-258 0 -331 251z" />
<glyph unicode="&#x43a;" horiz-adv-x="942" d="M104 0v1010h282v-390l284 390h256l-255 -339l280 -671h-304l-158 469l-103 -142v-327h-282z" />
<glyph unicode="&#x43b;" horiz-adv-x="825" d="M-28 0l300 1010h294l278 -1010h-291l-153 656l-169 -656h-259z" />
<glyph unicode="&#x43c;" horiz-adv-x="1282" d="M104 0v1010h365l185 -685l180 685h345v-1010h-258v568l-159 -568h-266l-154 564v-564h-238z" />
<glyph unicode="&#x43d;" horiz-adv-x="995" d="M104 0v1010h282v-362h224v362h282v-1010h-282v429h-224v-429h-282z" />
<glyph unicode="&#x43e;" horiz-adv-x="942" d="M61 505q0 525 411 525q410 0 410 -525q0 -526 -410 -526q-411 0 -411 526zM352 505q0 -185 24 -257t96 -72q69 0 94 71.5t25 257.5q0 193 -26.5 261t-92.5 68q-64 0 -92 -64.5t-28 -264.5z" />
<glyph unicode="&#x43f;" horiz-adv-x="958" d="M104 0v1010h751v-1010h-281v826h-188v-826h-282z" />
<glyph unicode="&#x440;" horiz-adv-x="977" d="M104 -342v1352h260v-151q83 164 230 164q139 0 231 -123.5t92 -377.5q0 -266 -90 -401t-253 -135q-117 0 -193 89v-417h-277zM381 413q0 -145 23.5 -188.5t95.5 -43.5q64 0 95 58t31 281q0 186 -27 252t-91 66q-53 0 -90 -41.5t-37 -192.5v-191z" />
<glyph unicode="&#x441;" horiz-adv-x="907" d="M60 502q0 258 108.5 393t304.5 135q354 0 385 -392l-262 -10q-6 93 -30 140.5t-81 47.5q-142 0 -142 -298q0 -173 34.5 -242t102.5 -69q106 0 116 187l262 -17q-35 -398 -396 -398q-195 0 -298.5 131.5t-103.5 391.5z" />
<glyph unicode="&#x442;" horiz-adv-x="747" d="M-7 786v224h762v-224h-244v-786h-281v786h-237z" />
<glyph unicode="&#x443;" horiz-adv-x="733" d="M-28 1010h282l136 -617l131 617h243l-304 -1026q-44 -147 -75 -206t-93 -97.5t-158 -38.5q-59 0 -120 16v222q42 -6 79 -6q82 0 112.5 27t57.5 118z" />
<glyph unicode="&#x444;" horiz-adv-x="1187" d="M60 504q0 428 417 518v326h232v-326q417 -90 417 -514q0 -203 -109.5 -338.5t-307.5 -164.5v-343h-232v343q-199 29 -308 165t-109 334zM333 512q0 -233 144 -303v606q-144 -70 -144 -303zM709 209q144 71 144 303q0 233 -144 303v-606z" />
<glyph unicode="&#x445;" horiz-adv-x="768" d="M-50 0l299 517l-260 493h306l107 -234l130 234h245l-261 -446l301 -564h-305l-148 302l-169 -302h-245z" />
<glyph unicode="&#x446;" horiz-adv-x="979" d="M104 -1v1011h282v-792h202v792h281v-792h125v-456h-203l-25 237h-662z" />
<glyph unicode="&#x447;" horiz-adv-x="922" d="M79 598v412h282v-380q0 -114 78 -114q58 0 97 31v463h282v-1010h-282v336q-79 -38 -166 -38q-135 0 -213 77.5t-78 222.5z" />
<glyph unicode="&#x448;" horiz-adv-x="1412" d="M109 0v1010h282v-791h174v791h281v-791h175v791h281v-1010h-1193z" />
<glyph unicode="&#x449;" horiz-adv-x="1410" d="M104 0v1010h277v-792h181v792h277v-792h181v792h277v-792h127v-456h-202l-25 238h-1093z" />
<glyph unicode="&#x44a;" horiz-adv-x="975" d="M-57 810v200h501v-349h185q166 0 239 -98.5t73 -232.5q0 -143 -77 -236.5t-248 -93.5h-454v810h-219zM445 197h135q27 0 58 32t31 102q0 128 -89 128h-135v-262z" />
<glyph unicode="&#x44b;" horiz-adv-x="1377" d="M104 0v1010h282v-349h185q165 0 238.5 -98.5t73.5 -232.5q0 -143 -77 -236.5t-248 -93.5h-454zM386 197h134q28 0 59 32t31 101q0 129 -90 129h-134v-262zM993 0v1010h281v-1010h-281z" />
<glyph unicode="&#x44c;" horiz-adv-x="917" d="M104 0v1010h282v-349h185q165 0 238.5 -98.5t73.5 -232.5q0 -143 -77 -236.5t-248 -93.5h-454zM386 197h134q28 0 59 32t31 101q0 129 -90 129h-134v-262z" />
<glyph unicode="&#x44d;" horiz-adv-x="881" d="M21 287l262 52q16 -131 115 -131q135 0 146 216h-318v185h315q-10 128 -45.5 172.5t-98.5 44.5q-89 0 -110 -119l-264 28q78 298 375 298q189 0 309 -126t120 -390q0 -258 -104.5 -399t-313.5 -141q-325 0 -388 310z" />
<glyph unicode="&#x44e;" horiz-adv-x="1353" d="M103 0v1000h282v-360h100q51 390 402 390q411 0 411 -525q0 -526 -411 -526q-373 0 -407 448h-95v-427h-282zM767 505q0 -212 30 -270.5t91 -58.5q69 0 94 71.5t25 257.5q0 193 -26 261t-94 68q-63 0 -91.5 -64t-28.5 -265z" />
<glyph unicode="&#x44f;" horiz-adv-x="974" d="M22 0l204 442q-141 80 -141 252q0 125 71.5 220.5t276.5 95.5h438v-1010h-282v383h-125l-154 -383h-288zM358 698q0 -49 20 -81t103 -32h108v241h-121q-66 0 -88 -30.5t-22 -97.5z" />
<glyph unicode="&#x451;" horiz-adv-x="942" d="M60 490q0 263 113.5 401.5t304.5 138.5q172 0 287.5 -122.5t115.5 -449.5h-530v-56q0 -136 37 -182t97 -46q129 0 145 173l251 -16q-67 -352 -401 -352q-206 0 -313 139t-107 372zM208 1269q0 45 33.5 76.5t80.5 31.5t80.5 -31.5t33.5 -76.5q0 -47 -35.5 -77t-78.5 -30 q-41 0 -77.5 29t-36.5 78zM353 621h262q1 18 1 28q0 195 -132 195q-130 0 -131 -223zM546 1269q0 45 33.5 76.5t80.5 31.5q48 0 81 -31.5t33 -76.5q0 -48 -36 -77.5t-78 -29.5q-43 0 -78.5 30t-35.5 77z" />
<glyph unicode="&#x452;" horiz-adv-x="965" d="M-46 1085v189h147v113h278v-113h328v-189h-328v-148q78 72 205 72q117 0 189 -69t92.5 -184t20.5 -438q0 -288 -23 -397t-102 -178t-203 -69q-24 0 -70 3l-24 204q27 -3 42 -3q47 0 82.5 53.5t35.5 394.5q0 298 -20 374t-81 76q-64 0 -104 -64t-40 -189v-523h-278v1085 h-147z" />
<glyph unicode="&#x453;" horiz-adv-x="684" d="M104 0v1010h573v-219h-291v-791h-282zM221 1213l341 314l112 -167l-369 -231z" />
<glyph unicode="&#x454;" horiz-adv-x="882" d="M55 517q0 264 120 390t308 126q297 0 375 -298l-264 -28q-21 119 -110 119q-62 0 -97.5 -44t-45.5 -173h314v-185h-318q11 -216 147 -216q98 0 114 131l263 -52q-62 -310 -388 -310q-210 0 -314 141.5t-104 398.5z" />
<glyph unicode="&#x455;" horiz-adv-x="837" d="M39 280l224 36q28 -151 159 -151q112 0 112 94q0 50 -33 76t-128 56q-174 56 -239 135t-65 183q0 146 102.5 234t256.5 88q269 0 342 -264l-201 -60q-40 137 -148 137q-88 0 -88 -88q0 -50 33 -76t136 -62q116 -41 170 -72t91 -93.5t37 -143.5q0 -140 -101 -235t-282 -95 q-341 0 -378 301z" />
<glyph unicode="&#x456;" horiz-adv-x="488" d="M101 1093v279h286v-279h-286zM103 0v1010h282v-1010h-282z" />
<glyph unicode="&#x457;" horiz-adv-x="488" d="M-39 1269q0 45 33.5 76.5t80.5 31.5t80.5 -31.5t33.5 -76.5q0 -47 -35.5 -77t-78.5 -30q-41 0 -77.5 29t-36.5 78zM103 0v1010h282v-1010h-282zM299 1269q0 45 33.5 76.5t80.5 31.5q48 0 81 -31.5t33 -76.5q0 -48 -36 -77.5t-78 -29.5q-43 0 -78.5 30t-35.5 77z" />
<glyph unicode="&#x458;" horiz-adv-x="488" d="M-17 -125q21 -3 37 -3q62 0 77.5 31t15.5 138v969h282v-977q0 -156 -17 -234t-81 -123.5t-163 -45.5q-63 0 -151 14v231zM111 1093v279h286v-279h-286z" />
<glyph unicode="&#x459;" horiz-adv-x="1282" d="M-28 0l330 1010h294l78 -349h268q166 0 239 -98t73 -233q0 -143 -77 -236.5t-248 -93.5h-396l-112 648l-189 -648h-260zM718 459l51 -256h122q37 0 63.5 31t26.5 96q0 129 -90 129h-173z" />
<glyph unicode="&#x45a;" horiz-adv-x="1424" d="M104 0v1010h282v-362h225v362h282v-349h185q166 0 239 -98t73 -233q0 -143 -76.5 -236.5t-248.5 -93.5h-454v429h-225v-429h-282zM893 197h134q27 0 58.5 32t31.5 102q0 128 -90 128h-134v-262z" />
<glyph unicode="&#x45b;" horiz-adv-x="973" d="M-46 1085v189h147v117h278v-117h322v-189h-322v-167q84 89 209 89q110 0 178.5 -48.5t96 -130t27.5 -231.5v-597h-277v575q0 121 -19.5 161.5t-66.5 40.5q-59 0 -103.5 -66t-44.5 -188v-523h-278v1085h-147z" />
<glyph unicode="&#x45c;" horiz-adv-x="942" d="M104 0v1010h282v-390l284 390h256l-255 -339l280 -671h-304l-158 469l-103 -142v-327h-282zM345 1209l341 314l112 -167l-369 -231z" />
<glyph unicode="&#x45e;" horiz-adv-x="733" d="M-28 1010h282l136 -617l131 617h243l-304 -1026q-44 -147 -75 -206t-93 -97.5t-158 -38.5q-59 0 -120 16v222q42 -6 79 -6q82 0 112.5 27t57.5 118zM37 1383h161q42 -105 170 -105q127 0 170 105h161q-71 -251 -331 -251q-258 0 -331 251z" />
<glyph unicode="&#x45f;" horiz-adv-x="971" d="M103 0v1010h282v-792h200v792h282v-1010h-268l-17 -238h-194l-18 238h-267z" />
<glyph unicode="&#x490;" horiz-adv-x="959" d="M129 0v1365h588v255h242v-503h-530v-1117h-300z" />
<glyph unicode="&#x491;" horiz-adv-x="712" d="M104 0v1028h320v208h282v-426h-320v-810h-282z" />
<glyph unicode="&#x1e80;" horiz-adv-x="1465" d="M-11 1365h307l143 -945l179 945h275l168 -947l167 947h253l-293 -1372h-269l-182 949l-186 -949h-266zM484 1682l112 167l341 -314l-84 -84z" />
<glyph unicode="&#x1e81;" horiz-adv-x="1186" d="M-17 1010h274l119 -614l113 614h274l92 -614l136 614h221l-253 -1010h-236l-130 687l-127 -687h-229zM359 1357l112 167l341 -314l-84 -84z" />
<glyph unicode="&#x1e82;" horiz-adv-x="1465" d="M-11 1365h307l143 -945l179 945h275l168 -947l167 947h253l-293 -1372h-269l-182 949l-186 -949h-266zM566 1535l341 314l112 -167l-369 -231z" />
<glyph unicode="&#x1e83;" horiz-adv-x="1186" d="M-17 1010h274l119 -614l113 614h274l92 -614l136 614h221l-253 -1010h-236l-130 687l-127 -687h-229zM442 1220l341 314l112 -167l-369 -231z" />
<glyph unicode="&#x1e84;" horiz-adv-x="1465" d="M-11 1365h307l143 -945l179 945h275l168 -947l167 947h253l-293 -1372h-269l-182 949l-186 -949h-266zM473 1601q0 45 33.5 76.5t80.5 31.5t80.5 -31.5t33.5 -76.5q0 -47 -35.5 -77t-78.5 -30q-41 0 -77.5 29t-36.5 78zM811 1601q0 45 33.5 76.5t80.5 31.5q48 0 81 -31.5 t33 -76.5q0 -48 -36 -77.5t-78 -29.5q-43 0 -78.5 30t-35.5 77z" />
<glyph unicode="&#x1e85;" horiz-adv-x="1186" d="M-17 1010h274l119 -614l113 614h274l92 -614l136 614h221l-253 -1010h-236l-130 687l-127 -687h-229zM321 1264q0 45 33.5 76.5t80.5 31.5t80.5 -31.5t33.5 -76.5q0 -47 -35.5 -77t-78.5 -30q-41 0 -77.5 29t-36.5 78zM659 1264q0 45 33.5 76.5t80.5 31.5q48 0 81 -31.5 t33 -76.5q0 -48 -36 -77.5t-78 -29.5q-43 0 -78.5 30t-35.5 77z" />
<glyph unicode="&#x1ef2;" horiz-adv-x="907" d="M-58 1365h330l193 -498l206 498h293l-379 -788v-577h-300v577zM161 1682l112 167l341 -314l-84 -84z" />
<glyph unicode="&#x1ef3;" horiz-adv-x="733" d="M-28 1010h282l136 -617l131 617h243l-304 -1026q-44 -147 -75 -206t-93 -97.5t-158 -38.5q-59 0 -120 16v222q42 -6 79 -6q82 0 112.5 27t57.5 118zM120 1360l112 167l341 -314l-84 -84z" />
<glyph unicode="&#x2013;" horiz-adv-x="907" d="M81 413v209h744v-209h-744z" />
<glyph unicode="&#x2014;" horiz-adv-x="1361" d="M76 413v209h1209v-209h-1209z" />
<glyph unicode="&#x2015;" horiz-adv-x="1361" d="M76 413v209h1209v-209h-1209z" />
<glyph unicode="&#x2017;" horiz-adv-x="1024" d="M0 -99h1024v-159h-1024v159zM0 -339h1024v-159h-1024v159z" />
<glyph unicode="&#x2018;" horiz-adv-x="488" d="M116 819v302l146 268h110l-113 -268h113v-302h-256z" />
<glyph unicode="&#x2019;" horiz-adv-x="488" d="M116 795l113 268h-113v302h256v-302l-146 -268h-110z" />
<glyph unicode="&#x201a;" horiz-adv-x="489" d="M116 0v302h256v-302l-146 -268h-110l113 268h-113z" />
<glyph unicode="&#x201b;" horiz-adv-x="488" d="M116 1063v302h256v-302h-113l113 -268h-110z" />
<glyph unicode="&#x201c;" horiz-adv-x="872" d="M133 819v302l146 268h110l-113 -268h113v-302h-256zM482 819v302l146 268h110l-113 -268h113v-302h-256z" />
<glyph unicode="&#x201d;" horiz-adv-x="872" d="M133 795l113 268h-113v302h256v-302l-146 -268h-110zM482 795l112 268h-112v302h256v-302l-146 -268h-110z" />
<glyph unicode="&#x201e;" horiz-adv-x="872" d="M133 0v302h256v-302l-146 -267h-110l113 267h-113zM482 0v302h256v-302l-146 -267h-110l112 267h-112z" />
<glyph unicode="&#x2020;" d="M105 764v235h283v366h271v-366h283v-235h-283v-1106h-271v1106h-283z" />
<glyph unicode="&#x2021;" d="M105 24v236h283v504h-283v235h283v366h271v-366h283v-235h-283v-504h283v-236h-283v-366h-271v366h-283z" />
<glyph unicode="&#x2022;" horiz-adv-x="1365" d="M401 696q0 118 82.5 202t201.5 84q114 0 196.5 -83.5t82.5 -202.5q0 -118 -82.5 -202t-198.5 -84t-199 84.5t-83 201.5z" />
<glyph unicode="&#x2026;" horiz-adv-x="1570" d="M122 0v302h279v-302h-279zM645 0v302h280v-302h-280zM1169 0v302h279v-302h-279z" />
<glyph unicode="&#x2030;" horiz-adv-x="1989" d="M56 1021q0 172 71.5 261.5t198.5 89.5t198.5 -90t71.5 -261t-72 -261t-198 -90q-125 0 -197.5 88t-72.5 263zM250 1021q0 -128 19.5 -164t56.5 -36q40 0 57.5 41.5t17.5 158.5q0 128 -19.5 164t-55.5 36q-40 0 -58 -40t-18 -160zM283 0l645 1365h154l-644 -1365h-155z M765 344q0 172 72.5 261.5t197.5 89.5q124 0 197 -88t73 -263q0 -172 -72 -261.5t-198 -89.5t-198 90t-72 261zM960 344q0 -127 19.5 -163.5t55.5 -36.5q41 0 58.5 41.5t17.5 158.5q0 128 -19.5 164t-56.5 36q-40 0 -57.5 -41t-17.5 -159zM1387 344q0 173 72.5 262t197.5 89 q124 0 197 -88t73 -263q0 -171 -72 -261t-198 -90t-198 89.5t-72 261.5zM1581 344q0 -128 20 -164t56 -36q41 0 58.5 42.5t17.5 157.5q0 128 -20 164t-56 36q-40 0 -58 -39.5t-18 -160.5z" />
<glyph unicode="&#x2032;" horiz-adv-x="397" d="M40 797l156 568h242l-227 -568h-171z" />
<glyph unicode="&#x2033;" horiz-adv-x="759" d="M40 797l156 568h242l-227 -568h-171zM430 797l155 568h242l-227 -568h-170z" />
<glyph unicode="&#x2039;" horiz-adv-x="558" d="M99 525l211 357h148l-125 -357l125 -358h-148z" />
<glyph unicode="&#x203a;" horiz-adv-x="559" d="M100 167l125 358l-125 357h149l210 -357l-210 -358h-149z" />
<glyph unicode="&#x203c;" horiz-adv-x="1110" d="M115 1365h360l-89 -958h-183zM155 0v302h279v-302h-279zM621 1365h360l-89 -958h-183zM661 0v302h279v-302h-279z" />
<glyph unicode="&#x203e;" horiz-adv-x="1147" d="M-42 1795v74h1231v-74h-1231z" />
<glyph unicode="&#x2044;" horiz-adv-x="176" d="M-318 0l647 1365h165l-651 -1365h-161z" />
<glyph unicode="&#x2075;" horiz-adv-x="698" d="M42 770l206 31q14 -94 98 -94q92 0 92 112q0 109 -95 109q-65 0 -86 -63l-178 31l33 469h501l-23 -182h-319l-12 -154q61 66 155 66q102 0 172.5 -67.5t70.5 -199.5q0 -144 -86.5 -219t-223.5 -75q-125 0 -208.5 63t-96.5 173z" />
<glyph unicode="&#x2077;" horiz-adv-x="698" d="M72 1179l17 186h551v-154q-211 -243 -212 -665h-242q1 359 244 632z" />
<glyph unicode="&#x2078;" horiz-adv-x="698" d="M36 764q0 119 150 186q-124 68 -124 188q0 96 73.5 167.5t221.5 71.5q147 0 214 -64t67 -149q0 -106 -123 -170q147 -78 147 -209q0 -101 -80.5 -176t-241.5 -75q-158 0 -231 67.5t-73 162.5zM238 781q0 -95 109 -95q49 0 75.5 22t26.5 55q0 64 -142 126 q-69 -44 -69 -108zM275 1162q0 -60 116 -111q49 48 49 99q0 82 -80 82q-85 0 -85 -70z" />
<glyph unicode="&#x207f;" horiz-adv-x="662" d="M68 546v614h167v-86q62 98 177 98q75 0 120.5 -29.5t58 -72t12.5 -126.5v-398h-213v398q0 70 -47 70q-22 0 -42 -16.5t-20 -94.5v-357h-213z" />
<glyph unicode="&#x20a3;" horiz-adv-x="907" d="M11 176v205h118v984h810v-234h-510v-357h393v-234h-393v-159h198v-205h-198v-176h-300v176h-118z" />
<glyph unicode="&#x20a4;" d="M17 0v232h105q68 0 100 17t56 65.5t32 142.5h-161v178h155l-17 101h-138v178h114q-4 57 -4 87q0 171 96 278t277 107q278 0 345 -258l-217 -103q-32 143 -127 143q-91 0 -91 -141q0 -39 8 -113h272v-178h-253l14 -101h239v-178h-246q-24 -122 -143 -225h151q154 0 210 56 t85 149l221 -83q-25 -110 -66.5 -179.5t-101.5 -108t-129.5 -52.5t-218.5 -14h-567z" />
<glyph unicode="&#x20a7;" horiz-adv-x="1969" d="M129 0v1365h393q179 0 277.5 -30t165.5 -135.5t67 -261.5q0 -150 -54 -248t-149.5 -141.5t-293.5 -43.5h-106v-505h-300zM429 740h93q123 0 158.5 57t35.5 148q0 77 -27.5 124.5t-64 61t-102.5 13.5h-93v-404zM988 454v160h101l15 171l169 15v-186h126v-160h-126v-198 q0 -68 9.5 -85t52.5 -17q26 0 73 3v-154q-74 -15 -129 -15q-85 0 -132.5 31t-61.5 77t-14 143v215h-83zM1434 175l176 25q15 -85 88 -85q62 0 62 51q0 24 -18.5 36t-76.5 30q-138 42 -175 91t-37 104q0 89 70.5 144t176.5 55q183 0 234 -164l-160 -43q-20 79 -80 79 q-49 0 -49 -45q0 -21 16.5 -35.5t84.5 -34.5q133 -38 170.5 -87t37.5 -103q0 -85 -69.5 -145t-191.5 -60q-227 0 -259 187z" />
<glyph unicode="&#x20ac;" d="M8 477v154h96q-2 13 -2 45l2 76h-96v153h115q43 235 162 359.5t303 124.5q176 0 292 -96t154 -279l-256 -66q-37 195 -186 195q-157 0 -186 -238h219v-153h-232l-2 -25v-96h234v-154h-224q32 -256 187 -256q76 0 118.5 41t69.5 137l256 -57q-52 -193 -152.5 -280 t-291.5 -87q-192 0 -313 129t-158 373h-109z" />
<glyph unicode="&#x2105;" horiz-adv-x="1582" d="M84 1011q0 184 82.5 281t233.5 97q252 0 289 -268l-220 -22q-7 54 -19 80.5t-48 26.5q-39 0 -62.5 -35.5t-23.5 -169.5q0 -174 85 -174q34 0 48 23t22 102l221 -17q-31 -295 -302 -295q-151 0 -228.5 99.5t-77.5 271.5zM385 0l647 1365h165l-651 -1365h-161zM861 351 q0 177 81 275.5t239 98.5q146 0 231 -93.5t85 -274.5q0 -191 -83.5 -286t-235.5 -95q-155 0 -236 99t-81 276zM1096 359q0 -196 84 -196q83 0 83 196t-83 196q-84 0 -84 -196z" />
<glyph unicode="&#x2113;" horiz-adv-x="1201" d="M263 361q0 26 27 57q68 76 97 112q61 353 166.5 603t264.5 250q78 0 122 -55t44 -140q0 -286 -361 -646q-56 -290 -56 -363q0 -64 31 -64q36 0 81 96q20 42 47 42q38 0 38 -45q0 -81 -68.5 -160.5t-161.5 -79.5q-76 0 -121 64.5t-45 235.5q0 35 3 91q-52 -55 -68 -55 q-13 0 -26.5 16t-13.5 41zM653 729q90 100 147.5 224t57.5 220q0 73 -36 73q-76 0 -169 -517z" />
<glyph unicode="&#x2116;" horiz-adv-x="1829" d="M129 0v1365h333l351 -848v848h232v-1365h-268l-416 988v-988h-232zM1198 0v210h558v-210h-558zM1198 688q0 319 279 319t279 -314q0 -324 -279 -324t-279 319zM1416 687q0 -67 9 -119.5t52 -52.5q42 0 51 51.5t9 121.5q0 83 -10.5 128t-49.5 45t-50 -44.5t-11 -129.5z " />
<glyph unicode="&#x2122;" horiz-adv-x="1500" d="M27 1179v145h511v-145h-168v-633h-180v633h-163zM600 546v778h269l111 -477l126 477h261v-778h-169v648l-168 -648h-130l-153 648v-648h-147z" />
<glyph unicode="&#x2126;" horiz-adv-x="1573" d="M55 0v230h98l309 -23q-385 162 -385 605q0 307 190.5 499t515.5 192q222 0 374.5 -74t252.5 -239.5t100 -378.5q0 -432 -382 -604l330 23h72v-230h-642v243q306 147 306 541q0 244 -113 372t-296 128q-188 0 -292.5 -141.5t-104.5 -351.5q0 -184 78.5 -332.5 t233.5 -215.5v-243h-645z" />
<glyph unicode="&#x212e;" horiz-adv-x="1229" d="M90 531q0 252 149.5 408.5t379.5 156.5q214 0 366 -142t163 -423h-827v-371q120 -121 298 -121q254 0 395 246l72 -43q-118 -170 -231.5 -223t-235.5 -53q-232 0 -380.5 158.5t-148.5 406.5zM321 605h596v297q-124 121 -300 121q-175 0 -296 -122v-296z" />
<glyph unicode="&#x215b;" horiz-adv-x="1640" d="M81 546v161h147v412q-72 -57 -147 -88v190q123 56 201 151h171v-665h144v-161h-516zM391 0l647 1365h165l-651 -1365h-161zM931 218q0 119 150 186q-124 68 -124 188q0 96 73.5 167.5t221.5 71.5q147 0 214 -64t67 -149q0 -106 -123 -170q147 -78 147 -209 q0 -101 -80.5 -176t-241.5 -75q-158 0 -231 67.5t-73 162.5zM1133 235q0 -95 109 -95q49 0 75.5 22t26.5 55q0 64 -142 126q-69 -44 -69 -108zM1170 616q0 -60 116 -111q49 48 49 99q0 82 -80 82q-85 0 -85 -70z" />
<glyph unicode="&#x215c;" horiz-adv-x="1640" d="M5 797l203 30q8 -120 97 -120q88 0 88 91q0 97 -118 97h-70v150h70q108 0 108 85q0 81 -73 81q-69 0 -87 -99l-200 33q65 232 308 232q132 0 203.5 -62.5t71.5 -157.5q0 -121 -133 -180q150 -52 150 -197q0 -112 -83 -179t-219 -67q-282 0 -316 263zM402 0l647 1365h165 l-651 -1365h-161zM967 218q0 119 150 186q-124 68 -124 188q0 96 73.5 167.5t221.5 71.5q147 0 214 -64t67 -149q0 -106 -123 -170q147 -78 147 -209q0 -101 -80.5 -176t-241.5 -75q-158 0 -231 67.5t-73 162.5zM1169 235q0 -95 109 -95q49 0 75.5 22t26.5 55q0 64 -142 126 q-69 -44 -69 -108zM1206 616q0 -60 116 -111q49 48 49 99q0 82 -80 82q-85 0 -85 -70z" />
<glyph unicode="&#x215d;" horiz-adv-x="1640" d="M42 770l206 31q14 -94 98 -94q92 0 92 112q0 109 -95 109q-65 0 -86 -63l-178 31l33 469h501l-23 -182h-319l-12 -154q61 66 155 66q102 0 172.5 -67.5t70.5 -199.5q0 -144 -86.5 -219t-223.5 -75q-125 0 -208.5 63t-96.5 173zM418 0l647 1365h165l-651 -1365h-161z M978 218q0 119 150 186q-124 68 -124 188q0 96 73.5 167.5t221.5 71.5q147 0 214 -64t67 -149q0 -106 -123 -170q147 -78 147 -209q0 -101 -80.5 -176t-241.5 -75q-158 0 -231 67.5t-73 162.5zM1180 235q0 -95 109 -95q49 0 75.5 22t26.5 55q0 64 -142 126q-69 -44 -69 -108 zM1217 616q0 -60 116 -111q49 48 49 99q0 82 -80 82q-85 0 -85 -70z" />
<glyph unicode="&#x215e;" horiz-adv-x="1640" d="M72 1179l17 186h551v-154q-211 -243 -212 -665h-242q1 359 244 632zM323 0l647 1365h165l-651 -1365h-161zM885 218q0 119 150 186q-124 68 -124 188q0 96 73.5 167.5t221.5 71.5q147 0 214 -64t67 -149q0 -106 -123 -170q147 -78 147 -209q0 -101 -80.5 -176t-241.5 -75 q-158 0 -231 67.5t-73 162.5zM1087 235q0 -95 109 -95q49 0 75.5 22t26.5 55q0 64 -142 126q-69 -44 -69 -108zM1124 616q0 -60 116 -111q49 48 49 99q0 82 -80 82q-85 0 -85 -70z" />
<glyph unicode="&#x2190;" horiz-adv-x="2048" d="M79 498v45q176 71 413 333h78q-82 -170 -197 -309h1595v-101h-1595q101 -102 197 -309h-78q-222 253 -413 341z" />
<glyph unicode="&#x2191;" horiz-adv-x="1024" d="M153 972v77q262 236 333 414h46q86 -191 340 -414v-77q-207 95 -309 196v-1595h-101v1595q-139 -114 -309 -196z" />
<glyph unicode="&#x2192;" horiz-adv-x="2048" d="M79 466v101h1595q-115 139 -196 309h77q236 -262 413 -333v-45q-191 -88 -413 -341h-77q95 207 196 309h-1595z" />
<glyph unicode="&#x2193;" horiz-adv-x="1024" d="M153 -13v77q170 -82 309 -196v1595h101v-1595q102 100 309 196v-77q-254 -223 -340 -414h-46q-71 178 -333 414z" />
<glyph unicode="&#x2194;" horiz-adv-x="2048" d="M79 495v45q182 79 406 338h80q-69 -172 -194 -311h1305q-125 139 -194 311h80q225 -259 406 -338v-45q-181 -79 -406 -337h-80q69 172 194 311h-1305q125 -139 194 -311h-80q-224 258 -406 337z" />
<glyph unicode="&#x2195;" horiz-adv-x="1024" d="M152 -20v79q171 -68 311 -194v1306q-140 -126 -311 -195v80q258 225 337 407h45q79 -182 337 -407v-80q-171 69 -311 195v-1306q140 126 311 194v-79q-258 -225 -337 -407h-45q-79 182 -337 407z" />
<glyph unicode="&#x21a8;" horiz-adv-x="1024" d="M155 -20v79q171 -69 309 -194v1306q-138 -126 -309 -195v80q257 226 335 407h45q79 -182 337 -407v-80q-171 69 -311 195v-1306q140 126 311 194v-79q-258 -225 -337 -407h-45q-78 181 -335 407zM155 -522h717v-98h-717v98z" />
<glyph unicode="&#x2202;" horiz-adv-x="1012" d="M45 326q0 261 204.5 439t538.5 178q12 0 39 -1q0 178 -58 272.5t-161 94.5q-137 0 -228 -186l-137 84q51 147 154 215.5t216 68.5q161 0 263 -136.5t102 -413.5q0 -239 -77 -487t-226.5 -365t-317.5 -117q-140 0 -226 93t-86 261zM274 338q0 -70 39.5 -121.5t101.5 -51.5 q137 0 251 160t149 433l-40 1q-229 0 -365 -124.5t-136 -296.5z" />
<glyph unicode="&#x2206;" horiz-adv-x="1253" d="M26 0l628 1387l572 -1387h-1200zM151 82h839l-399 967z" />
<glyph unicode="&#x220f;" horiz-adv-x="1685" d="M162 -426v1962h1362v-1962h-191v1788h-978v-1788h-193z" />
<glyph unicode="&#x2211;" horiz-adv-x="1460" d="M122 -239l620 800l-603 799v176h1237v-164h-988l607 -803l-649 -834h1040v-161h-1264v187z" />
<glyph unicode="&#x2212;" d="M105 574v217h837v-217h-837z" />
<glyph unicode="&#x2215;" horiz-adv-x="176" d="M-318 0l647 1365h165l-651 -1365h-161z" />
<glyph unicode="&#x2219;" horiz-adv-x="523" d="M122 375v302h279v-303z" />
<glyph unicode="&#x221a;" horiz-adv-x="1124" d="M81 916l301 151l405 -823l260 1625h74l-312 -1947l-496 1021l-198 -91z" />
<glyph unicode="&#x221e;" horiz-adv-x="1460" d="M150 735q0 126 67 209.5t175 83.5q77 0 157.5 -49t129.5 -123q134 228 323 228q129 0 218 -92t89 -257t-89 -257t-218 -92q-189 0 -323 229q-49 -75 -129.5 -123.5t-157.5 -48.5q-107 0 -174.5 83.5t-67.5 208.5zM290 740q0 -58 29.5 -101t83.5 -43q80 0 190 143 q-100 141 -190 141q-46 0 -79.5 -37.5t-33.5 -102.5zM772 737q94 -148 139 -175.5t94 -27.5q79 0 118.5 62t39.5 143t-40.5 140t-114.5 59q-112 0 -236 -201z" />
<glyph unicode="&#x221f;" horiz-adv-x="2005" d="M362 0v1279h100v-1179h1181v-100h-1281z" />
<glyph unicode="&#x2229;" horiz-adv-x="1473" d="M144 0v636q0 271 14.5 386t84 226t205 185.5t289.5 74.5t289 -75t203 -181t84 -222.5t16 -393.5v-636h-206v642q0 274 -21.5 386t-125 195t-239.5 83q-103 0 -194.5 -53t-132 -124.5t-50.5 -167t-10 -319.5v-642h-206z" />
<glyph unicode="&#x222b;" horiz-adv-x="561" d="M0 -99q0 43 24.5 71t65.5 28q40 0 70 -33q28 -31 48 -31q39 0 39 61q0 42 -9 120q-37 316 -37 831q0 589 56 752t178 163q54 0 89.5 -34.5t35.5 -72.5q0 -44 -25.5 -74t-66.5 -30q-35 0 -76 36q-23 20 -40 20q-40 0 -40 -64q0 -42 9 -145q37 -410 37 -665q0 -67 -12 -470 t-77 -493.5t-151 -90.5q-49 0 -83.5 32.5t-34.5 88.5z" />
<glyph unicode="&#x2248;" d="M28 380q112 278 305 278q68 0 231 -69q120 -52 158 -52q79 0 147 107l149 -104q-104 -275 -322 -275q-63 0 -226 72q-101 46 -151 46q-73 0 -142 -108zM28 822q111 278 305 278q69 0 231 -70q119 -51 158 -51q79 0 147 107l149 -104q-105 -275 -320 -275q-66 0 -228 72 q-101 45 -151 45q-73 0 -142 -107z" />
<glyph unicode="&#x2260;" d="M105 407v216h272l55 119h-327v216h428l104 224l196 -91l-62 -133h171v-216h-271l-56 -119h327v-216h-428l-104 -224l-196 92l62 132h-171z" />
<glyph unicode="&#x2261;" d="M105 234v216h837v-216h-837zM105 569v216h837v-216h-837zM105 904v216h837v-216h-837z" />
<glyph unicode="&#x2264;" d="M80 57v268h887v-268h-887zM80 716v256l887 336v-285l-554 -180l553 -178l1 -285z" />
<glyph unicode="&#x2265;" d="M80 57v268h887v-268h-887zM80 380l1 285l554 178l-555 180v285l887 -336v-256z" />
<glyph unicode="&#x2302;" horiz-adv-x="1229" d="M153 0v634l461 519l462 -519v-634h-923zM234 81h761v519l-381 427l-380 -427v-519z" />
<glyph unicode="&#x2310;" horiz-adv-x="1024" d="M68 0v595h887v-268h-590v-327h-297z" />
<glyph unicode="&#x2320;" horiz-adv-x="1229" d="M542 -515v1811q0 207 86 324t206 117q74 0 106 -34.5t32 -74.5q0 -41 -26.5 -66.5t-61.5 -25.5q-34 0 -55.5 13.5t-42.5 47.5q-24 37 -47 37q-29 0 -40.5 -24.5t-11.5 -153.5v-1971h-145z" />
<glyph unicode="&#x2321;" horiz-adv-x="1229" d="M257 -406q0 41 26.5 66.5t60.5 25.5q35 0 56.5 -14t42.5 -47q24 -37 47 -37q29 0 40.5 24t11.5 154v1971h145v-1811q0 -207 -86 -324t-206 -117q-74 0 -106 34.5t-32 74.5z" />
<glyph unicode="&#x2500;" horiz-adv-x="1460" d="M-18 534v175h1496v-175h-1496z" />
<glyph unicode="&#x2502;" horiz-adv-x="1460" d="M643 -621v2485h175v-2485h-175z" />
<glyph unicode="&#x250c;" horiz-adv-x="1460" d="M643 -621v1330h836v-175h-661v-1155h-175z" />
<glyph unicode="&#x2510;" horiz-adv-x="1460" d="M-18 534v175h835v-1330h-175v1155h-660z" />
<glyph unicode="&#x2514;" horiz-adv-x="1460" d="M643 534v1330h175v-1155h661v-175h-836z" />
<glyph unicode="&#x2518;" horiz-adv-x="1460" d="M-18 534v175h660v1155h175v-1330h-835z" />
<glyph unicode="&#x251c;" horiz-adv-x="1460" d="M643 -621v2485h175v-1155h661v-175h-661v-1155h-175z" />
<glyph unicode="&#x2524;" horiz-adv-x="1460" d="M-18 534v175h660v1155h175v-2485h-175v1155h-660z" />
<glyph unicode="&#x252c;" horiz-adv-x="1460" d="M-18 534v175h1496v-175h-661v-1155h-175v1155h-660z" />
<glyph unicode="&#x2534;" horiz-adv-x="1460" d="M-18 534v175h660v1155h175v-1155h661v-175h-1496z" />
<glyph unicode="&#x253c;" horiz-adv-x="1460" d="M-18 534v175h660v1155h175v-1155h661v-175h-661v-1155h-175v1155h-660z" />
<glyph unicode="&#x2550;" horiz-adv-x="1460" d="M-18 344v175h1496v-175h-1496zM-18 724v175h1496v-175h-1496z" />
<glyph unicode="&#x2551;" horiz-adv-x="1460" d="M453 -621v2485h175v-2485h-175zM833 -621v2485h175v-2485h-175z" />
<glyph unicode="&#x2552;" horiz-adv-x="1460" d="M643 -621v1520h836v-175h-661v-205h661v-175h-661v-965h-175z" />
<glyph unicode="&#x2553;" horiz-adv-x="1460" d="M453 -621v1330h1026v-175h-471v-1155h-175v1140h-205v-1140h-175z" />
<glyph unicode="&#x2554;" horiz-adv-x="1460" d="M453 -621v1520h1025v-175h-850v-1345h-175zM833 519h645v-175h-470v-965h-175v1140z" />
<glyph unicode="&#x2555;" horiz-adv-x="1460" d="M-18 344v175h660v205h-660v175h835v-1520h-175v965h-660z" />
<glyph unicode="&#x2556;" horiz-adv-x="1460" d="M-18 534v175h1025v-1330h-175v1155h-205v-1155h-175v1155h-470z" />
<glyph unicode="&#x2557;" horiz-adv-x="1460" d="M-18 344v175h645v-1140h-175v965h-470zM-18 724v175h1025v-1520h-175v1345h-850z" />
<glyph unicode="&#x2558;" horiz-adv-x="1460" d="M643 344v1520h175v-965h661v-175h-661v-205h661v-175h-836z" />
<glyph unicode="&#x2559;" horiz-adv-x="1460" d="M453 534v1330h175v-1155h205v1155h175v-1155h470v-175h-1025z" />
<glyph unicode="&#x255a;" horiz-adv-x="1460" d="M453 344v1520h175v-1345h850v-175h-1025zM833 724v1140h175v-965h470v-175h-645z" />
<glyph unicode="&#x255b;" horiz-adv-x="1460" d="M-18 344v175h660v205h-660v175h660v965h175v-1520h-835z" />
<glyph unicode="&#x255c;" horiz-adv-x="1460" d="M-18 534v175h470v1155h175v-1155h205v1155h175v-1330h-1025z" />
<glyph unicode="&#x255d;" horiz-adv-x="1460" d="M-18 344v175h850v1345h175v-1520h-1025zM-18 724v175h470v965h175v-1140h-645z" />
<glyph unicode="&#x255e;" horiz-adv-x="1460" d="M643 -621v2485h175v-965h661v-175h-661v-205h661v-175h-661v-965h-175z" />
<glyph unicode="&#x255f;" horiz-adv-x="1460" d="M453 -621v2485h175v-2485h-175zM833 -621v2485h175v-1155h471v-175h-471v-1155h-175z" />
<glyph unicode="&#x2560;" horiz-adv-x="1460" d="M453 -621v2485h175v-2485h-175zM833 519h646v-175h-471v-965h-175v1140zM833 724v1140h175v-965h471v-175h-646z" />
<glyph unicode="&#x2561;" horiz-adv-x="1460" d="M-18 344v175h660v205h-660v175h660v965h175v-2485h-175v965h-660z" />
<glyph unicode="&#x2562;" horiz-adv-x="1460" d="M-18 534v175h470v1155h175v-2485h-175v1155h-470zM832 -621v2485h175v-2485h-175z" />
<glyph unicode="&#x2563;" horiz-adv-x="1460" d="M-18 344v175h645v-1140h-175v965h-470zM-18 724v175h470v965h175v-1140h-645zM832 -621v2485h175v-2485h-175z" />
<glyph unicode="&#x2564;" horiz-adv-x="1460" d="M-18 344v175h1496v-175h-661v-965h-175v965h-660zM-18 724v175h1496v-175h-1496z" />
<glyph unicode="&#x2565;" horiz-adv-x="1460" d="M-18 534v175h1496v-175h-471v-1155h-175v1140h-205v-1140h-175v1155h-470z" />
<glyph unicode="&#x2566;" horiz-adv-x="1460" d="M-18 344v175h645v-1140h-175v965h-470zM-18 724v175h1496v-175h-1496zM832 519h646v-175h-471v-965h-175v1140z" />
<glyph unicode="&#x2567;" horiz-adv-x="1460" d="M-18 344v175h1496v-175h-1496zM-18 724v175h660v965h175v-965h661v-175h-1496z" />
<glyph unicode="&#x2568;" horiz-adv-x="1460" d="M-18 534v175h470v1155h175v-1155h205v1155h175v-1155h471v-175h-1496z" />
<glyph unicode="&#x2569;" horiz-adv-x="1460" d="M-18 344v175h1496v-175h-1496zM-18 724v175h470v965h175v-1140h-645zM832 724v1140h175v-965h471v-175h-646z" />
<glyph unicode="&#x256a;" horiz-adv-x="1460" d="M-18 344v175h660v205h-660v175h660v965h175v-965h661v-175h-661v-205h661v-175h-661v-965h-175v965h-660z" />
<glyph unicode="&#x256b;" horiz-adv-x="1460" d="M-18 534v175h470v1155h175v-1155h205v1155h175v-1155h471v-175h-471v-1155h-175v1155h-205v-1155h-175v1155h-470z" />
<glyph unicode="&#x256c;" horiz-adv-x="1460" d="M-18 344v175h645v-1140h-175v965h-470zM-18 724v175h470v965h175v-1140h-645zM833 519h645v-175h-470v-965h-175v1140zM833 724v1140h175v-965h470v-175h-645z" />
<glyph unicode="&#x2580;" horiz-adv-x="1460" d="M-18 621v1243h1496v-1243h-1496z" />
<glyph unicode="&#x2584;" horiz-adv-x="1460" d="M-18 -621v1242h1496v-1242h-1496z" />
<glyph unicode="&#x2588;" horiz-adv-x="1460" d="M-18 -621v2485h1496v-2485h-1496z" />
<glyph unicode="&#x258c;" horiz-adv-x="1460" d="M-18 -621v2485h748v-2485h-748z" />
<glyph unicode="&#x2590;" horiz-adv-x="1460" d="M730 -621v2485h748v-2485h-748z" />
<glyph unicode="&#x2591;" horiz-adv-x="1460" d="M107 -130h125v-125h-125v125zM107 244v125h125v-125h-125zM107 742v125h125v-125h-125zM107 1241v125h125v-125h-125zM107 1739v125h125v-125h-125zM356 -5v124h125v-124h-125zM356 -379h125v-125h-125v125zM356 493v125h125v-125h-125zM356 992v124h125v-124h-125z M356 1490v125h125v-125h-125zM605 -130h125v-125h-125v125zM605 244v125h125v-125h-125zM605 742v125h125v-125h-125zM605 1241v125h125v-125h-125zM605 1739v125h125v-125h-125zM855 -5v124h124v-124h-124zM855 -379h124v-125h-124v125zM855 493v125h124v-125h-124z M855 992v124h124v-124h-124zM855 1490v125h124v-125h-124zM1104 -130h125v-125h-125v125zM1104 244v125h125v-125h-125zM1104 742v125h125v-125h-125zM1104 1241v125h125v-125h-125zM1104 1739v125h125v-125h-125zM1353 -5v124h125v-124h-125zM1353 -379h125v-125h-125v125z M1353 493v125h125v-125h-125zM1353 992v124h125v-124h-125zM1353 1490v125h125v-125h-125z" />
<glyph unicode="&#x2592;" horiz-adv-x="1460" d="M-18 -5v124h125v-124h-125zM-18 -379h125v-125h-125v125zM-18 493v125h125v-125h-125zM-18 992v124h125v-124h-125zM-18 1490v125h125v-125h-125zM107 -130h124v-125h-124v125zM107 244v125h124v-125h-124zM107 742v125h124v-125h-124zM107 1241v125h124v-125h-124z M107 1739v125h124v-125h-124zM231 -5v124h125v-124h-125zM231 -379h125v-125h-125v125zM231 493v125h125v-125h-125zM231 992v124h125v-124h-125zM231 1490v125h125v-125h-125zM356 -130h124v-125h-124v125zM356 244v125h124v-125h-124zM356 742v125h124v-125h-124z M356 1241v125h124v-125h-124zM356 1739v125h124v-125h-124zM480 -5v124h125v-124h-125zM480 -379h125v-125h-125v125zM480 493v125h125v-125h-125zM480 992v124h125v-124h-125zM480 1490v125h125v-125h-125zM605 -130h125v-125h-125v125zM605 244v125h125v-125h-125z M605 742v125h125v-125h-125zM605 1241v125h125v-125h-125zM605 1739v125h125v-125h-125zM730 -5v124h124v-124h-124zM730 -379h124v-125h-124v125zM730 493v125h124v-125h-124zM730 992v124h124v-124h-124zM730 1490v125h124v-125h-124zM854 -130h125v-125h-125v125z M854 244v125h125v-125h-125zM854 742v125h125v-125h-125zM854 1241v125h125v-125h-125zM854 1739v125h125v-125h-125zM979 -5v124h125v-124h-125zM979 -379h125v-125h-125v125zM979 493v125h125v-125h-125zM979 992v124h125v-124h-125zM979 1490v125h125v-125h-125z M1104 -130h124v-125h-124v125zM1104 244v125h124v-125h-124zM1104 742v125h124v-125h-124zM1104 1241v125h124v-125h-124zM1104 1739v125h124v-125h-124zM1228 -5v124h125v-124h-125zM1228 -379h125v-125h-125v125zM1228 493v125h125v-125h-125zM1228 992v124h125v-124h-125 zM1228 1490v125h125v-125h-125zM1353 -130h124v-125h-124v125zM1353 244v125h124v-125h-124zM1353 742v125h124v-125h-124zM1353 1241v125h124v-125h-124zM1353 1739v125h124v-125h-124z" />
<glyph unicode="&#x2593;" horiz-adv-x="1495" d="M0 -130v374h125v125h-125v373h125v125h-125v374h125v125h-125v373h125v125h124v-125h125v125h124v-125h125v125h125v-125h124v125h125v-125h125v125h124v-125h125v125h124v-249h-124v-125h124v-374h-124v-124h124v-374h-124v-125h124v-374h-124v-124h124v-374h-124v-125 h124v-124h-1495v373h125v125h-125zM125 -5h124v124h-124v-124zM125 -379v-125h124v125h-124zM125 493h124v125h-124v-125zM125 992h124v124h-124v-124zM125 1490h124v125h-124v-125zM249 -130v-125h125v125h-125zM249 244h125v125h-125v-125zM249 742h125v125h-125v-125z M249 1241h125v125h-125v-125zM374 -5h124v124h-124v-124zM374 -379v-125h124v125h-124zM374 493h124v125h-124v-125zM374 992h124v124h-124v-124zM374 1490h124v125h-124v-125zM498 -130v-125h125v125h-125zM498 244h125v125h-125v-125zM498 742h125v125h-125v-125z M498 1241h125v125h-125v-125zM623 -5h125v124h-125v-124zM623 -379v-125h125v125h-125zM623 493h125v125h-125v-125zM623 992h125v124h-125v-124zM623 1490h125v125h-125v-125zM748 -130v-125h124v125h-124zM748 244h124v125h-124v-125zM748 742h124v125h-124v-125z M748 1241h124v125h-124v-125zM872 -5h125v124h-125v-124zM872 -379v-125h125v125h-125zM872 493h125v125h-125v-125zM872 992h125v124h-125v-124zM872 1490h125v125h-125v-125zM997 -130v-125h125v125h-125zM997 244h125v125h-125v-125zM997 742h125v125h-125v-125z M997 1241h125v125h-125v-125zM1122 -5h124v124h-124v-124zM1122 -379v-125h124v125h-124zM1122 493h124v125h-124v-125zM1122 992h124v124h-124v-124zM1122 1490h124v125h-124v-125zM1246 -130v-125h125v125h-125zM1246 244h125v125h-125v-125zM1246 742h125v125h-125v-125z M1246 1241h125v125h-125v-125z" />
<glyph unicode="&#x25a0;" horiz-adv-x="1237" d="M146 0v944h944v-944h-944z" />
<glyph unicode="&#x25a1;" horiz-adv-x="1237" d="M146 0v944h944v-944h-944zM222 76h792v792h-792v-792z" />
<glyph unicode="&#x25aa;" horiz-adv-x="727" d="M92 405v543h543v-543h-543z" />
<glyph unicode="&#x25ab;" horiz-adv-x="727" d="M92 405v543h543v-543h-543zM168 481h391v391h-391v-391z" />
<glyph unicode="&#x25ac;" horiz-adv-x="2048" d="M0 317v386h2047v-386h-2047z" />
<glyph unicode="&#x25b2;" horiz-adv-x="2027" d="M304 0l710 1419l710 -1419h-1420z" />
<glyph unicode="&#x25ba;" horiz-adv-x="2027" d="M288 -31v1448l1451 -724z" />
<glyph unicode="&#x25bc;" horiz-adv-x="2027" d="M304 1388h1420l-710 -1419z" />
<glyph unicode="&#x25c4;" horiz-adv-x="2027" d="M288 693l1451 724v-1448z" />
<glyph unicode="&#x25ca;" horiz-adv-x="1012" d="M47 709l391 713h111l418 -713l-418 -709h-111zM155 709l340 -615l359 615l-359 616z" />
<glyph unicode="&#x25cb;" horiz-adv-x="1229" d="M174 578q0 182 129.5 311t310.5 129q183 0 312 -129t129 -311t-129.5 -311.5t-310.5 -129.5q-182 0 -311.5 129.5t-129.5 311.5zM250 578q0 -149 107 -257t258 -108q150 0 257 107.5t107 257.5q0 151 -106.5 257.5t-257.5 106.5t-258 -107.5t-107 -256.5z" />
<glyph unicode="&#x25cf;" horiz-adv-x="1237" d="M178 578q0 182 129.5 311t311.5 129q181 0 310.5 -129.5t129.5 -310.5q0 -182 -129.5 -311.5t-310.5 -129.5q-183 0 -312 129t-129 312z" />
<glyph unicode="&#x25d8;" horiz-adv-x="1229" d="M124 0v980h980v-980h-980zM412 490q0 -83 59.5 -142.5t142.5 -59.5q84 0 143 60t59 142q0 83 -59 142.5t-143 59.5q-82 0 -142 -59t-60 -143z" />
<glyph unicode="&#x25d9;" horiz-adv-x="1229" d="M38 0v1155h1155v-1155h-1155zM175 577q0 -182 128.5 -311t312.5 -129q181 0 310.5 129.5t129.5 310.5t-129.5 311t-310.5 130q-183 0 -312 -130t-129 -311zM251 577q0 151 107.5 258t257.5 107t257 -106.5t107 -258.5q0 -150 -107 -257t-257 -107q-151 0 -258 107 t-107 257z" />
<glyph unicode="&#x25e6;" horiz-adv-x="727" d="M78 676q0 118 84 202t202 84t201.5 -84t83.5 -202t-83.5 -202t-201.5 -84t-202 84t-84 202zM154 676q0 -86 61.5 -148t148.5 -62t148.5 62t61.5 148q0 87 -62 148.5t-148 61.5t-148 -61.5t-62 -148.5z" />
<glyph unicode="&#x25fc;" horiz-adv-x="1010" d="M0 0v1010h1010v-1010h-1010z" />
<glyph unicode="&#x263a;" horiz-adv-x="2091" d="M408 518q0 263 187.5 450.5t450.5 187.5t450 -187.5t187 -450.5q0 -262 -187 -449.5t-450 -187.5q-264 0 -451 186.5t-187 450.5zM501 518q0 -224 160 -384t385 -160q224 0 384.5 160t160.5 384q0 225 -160.5 385t-384.5 160q-225 0 -385 -160t-160 -385zM720 650 q0 34 24 57.5t57 23.5q34 0 57.5 -23.5t23.5 -57.5q0 -33 -23.5 -57t-57.5 -24q-33 0 -57 24t-24 57zM752 313l62 36q79 -144 232 -144t231 144l63 -36q-104 -195 -294 -195q-191 0 -294 195zM1209 650q0 34 24 57.5t57 23.5t57 -23.5t24 -57.5q0 -33 -24 -57t-57 -24 t-57 24t-24 57z" />
<glyph unicode="&#x263b;" horiz-adv-x="2155" d="M440 518q0 263 187.5 450.5t450.5 187.5t450 -187.5t187 -450.5q0 -262 -187 -449.5t-450 -187.5q-264 0 -451 186.5t-187 450.5zM752 650q0 -33 24 -57t57 -24q34 0 57.5 24t23.5 57q0 34 -23.5 57.5t-57.5 23.5q-33 0 -57 -23.5t-24 -57.5zM784 313q103 -195 294 -195 q190 0 294 195l-63 36q-78 -144 -231 -144t-232 144zM1241 650q0 -33 24 -57t57 -24t57 24t24 57q0 34 -24 57.5t-57 23.5t-57 -23.5t-24 -57.5z" />
<glyph unicode="&#x263c;" horiz-adv-x="1878" d="M16 665v69h336q14 197 144 349l-284 287l49 57l291 -283q180 130 350 140v337h76v-337q191 -7 350 -140l289 283l52 -53l-286 -286q140 -175 143 -358h336v-69h-336q-14 -190 -143 -348l286 -289l-57 -51l-284 280q-167 -125 -350 -139v-337h-76v337q-203 25 -345 139 l-296 -280l-49 51l284 289q-125 153 -144 352h-336zM425 699q0 -212 150 -362.5t362 -150.5q211 0 362 151t151 362q0 212 -150.5 362t-362.5 150q-211 0 -361.5 -150.5t-150.5 -361.5z" />
<glyph unicode="&#x2640;" horiz-adv-x="1131" d="M89 956q0 196 139.5 336t336.5 140q196 0 336 -140t140 -336q0 -185 -127.5 -323.5t-322.5 -151.5v-365h417v-54h-417v-399h-54v399h-418v54h418v365q-83 0 -192 53.5t-182.5 168.5t-73.5 253zM138 955q0 -176 125.5 -301.5t301.5 -125.5t301.5 125.5t125.5 301.5 t-125 301t-302 125q-176 0 -301.5 -125.5t-125.5 -300.5z" />
<glyph unicode="&#x2642;" horiz-adv-x="1366" d="M102 118q0 188 130.5 316t306.5 128q76 0 170 -33l293 636q-214 -90 -457 -104v27q165 51 255.5 97.5t306.5 186.5l29 -10q35 -359 161 -615l-25 -16q-149 188 -222 415l-295 -635q110 -42 201 -162t91 -268q0 -188 -133 -304t-326 -116q-203 0 -344.5 134t-141.5 323z M145 134q0 -172 116.5 -282.5t274.5 -110.5q162 0 273.5 113.5t111.5 267.5q0 164 -117 279t-273 115q-158 0 -272 -113.5t-114 -268.5z" />
<glyph unicode="&#x2660;" horiz-adv-x="1092" d="M60 496q0 150 188 305q262 215 299 430q18 -82 64.5 -169t203.5 -230q122 -111 169.5 -181t47.5 -152q0 -96 -64.5 -160t-155.5 -64q-154 0 -254 190q0 -230 101 -325.5t277 -102.5l7 -37h-793l8 37q186 0 284.5 106.5t98.5 280.5v41q-90 -190 -262 -190q-92 0 -155.5 66 t-63.5 155z" />
<glyph unicode="&#x2663;" horiz-adv-x="1354" d="M60 553q0 111 72.5 193t169.5 82q64 0 163 -51q-67 106 -67 182q0 113 79 192.5t197 79.5t198.5 -79.5t80.5 -187.5q0 -94 -69 -187q106 53 162 53q105 0 176 -82t71 -191q0 -120 -81 -201.5t-193 -81.5q-78 0 -167 49.5t-165 187.5q4 -157 48 -250.5t122.5 -144.5 t237.5 -82l8 -34h-848l8 34q153 33 219.5 68.5t125 138.5t58.5 228l-1 42q-55 -117 -143.5 -177.5t-183.5 -60.5q-115 0 -196.5 81t-81.5 199z" />
<glyph unicode="&#x2665;" horiz-adv-x="1210" d="M60 969q0 110 74 185.5t183 75.5q206 0 290 -251q34 129 113.5 190.5t171.5 61.5q109 0 183.5 -75t74.5 -177q0 -84 -40 -179t-174 -264q-284 -360 -329 -560q-32 122 -92.5 228.5t-275.5 389.5q-101 133 -140 212t-39 163z" />
<glyph unicode="&#x2666;" horiz-adv-x="1038" d="M60 604q324 383 457 627q193 -323 461 -627q-52 -52 -214 -265t-247 -363q-101 190 -457 628z" />
<glyph unicode="&#x266a;" horiz-adv-x="1579" d="M26 -142q0 159 162.5 279t372.5 120q192 0 396 -94l-31 1372h60q164 -100 366 -309t202 -285q0 -16 -20 -44.5t-39 -28.5q-28 0 -63 44q-55 66 -195 190t-242 188l26 -1374q0 -122 -71.5 -193t-217 -131.5t-291.5 -60.5q-190 0 -302.5 97t-112.5 230z" />
<glyph unicode="&#x266b;" horiz-adv-x="2048" d="M304 -188q0 129 93 210.5t230 81.5q95 0 205 -54v1145l934 291v-1301q0 -148 -37.5 -221t-125 -121t-200.5 -48q-145 0 -212.5 77.5t-67.5 185.5q0 117 90 202t234 85q84 0 200 -50v850l-699 -217v-981q0 -123 -29.5 -203t-121 -136.5t-216.5 -56.5q-124 0 -200.5 71 t-76.5 190z" />
<glyph unicode="&#xf001;" horiz-adv-x="1081" d="M37 788v222h115q3 158 21.5 222.5t89 125.5t219.5 61q57 0 113 -8v-220q-29 2 -47 2q-72 0 -95 -24.5t-27 -51.5t-4 -107h178v-222h-178v-788h-270v788h-115zM694 1093v279h286v-279h-286zM696 0v1010h282v-1010h-282z" />
<glyph unicode="&#xf002;" horiz-adv-x="1081" d="M37 788v222h115q3 158 21.5 222.5t89 125.5t219.5 61q57 0 113 -8v-220q-29 2 -47 2q-72 0 -95 -24.5t-27 -51.5t-4 -107h178v-222h-178v-788h-270v788h-115zM696 0v1365h282v-1365h-282z" />
<glyph unicode="&#xf003;" horiz-adv-x="698" d="M28 731v155l304 491h234v-479h99v-167h-99v-185h-224v185h-314zM180 876h183v313z" />
<glyph unicode="&#xf004;" horiz-adv-x="942" d="M397 965l56 400h209l-160 -400h-105z" />
<glyph unicode="&#xf005;" horiz-adv-x="942" d="M325 -490l56 381h209l-160 -381h-105z" />
<glyph unicode="&#xf006;" horiz-adv-x="1109" d="M31 782v228h1047v-228h-102v-782h-282v782h-279v-782h-282v782h-102z" />
<glyph unicode="&#xfb01;" horiz-adv-x="1081" d="M37 788v222h115q3 158 21.5 222.5t89 125.5t219.5 61q57 0 113 -8v-220q-29 2 -47 2q-72 0 -95 -24.5t-27 -51.5t-4 -107h178v-222h-178v-788h-270v788h-115zM694 1093v279h286v-279h-286zM696 0v1010h282v-1010h-282z" />
<glyph unicode="&#xfb02;" horiz-adv-x="1081" d="M37 788v222h115q3 158 21.5 222.5t89 125.5t219.5 61q57 0 113 -8v-220q-29 2 -47 2q-72 0 -95 -24.5t-27 -51.5t-4 -107h178v-222h-178v-788h-270v788h-115zM696 0v1365h282v-1365h-282z" />
</font>
</defs>
</svg>
